<svg viewBox="0 0 1000 200" xmlns="http://www.w3.org/2000/svg">
<g transform="translate(72, 164)">
<g>
<g>
<path d="M0,-98.57651 L0,-98.57651 L2.2055137,-103.98777 L4.4110274,-108.72038 L6.6165414,-112.67985 L8.822055,-115.7871 L11.027569,-117.98012 L13.233083,-119.21509 L15.438597,-119.46738 L17.64411,-118.73193 L19.849625,-117.023445 L22.055138,-114.37602 L24.260653,-110.84253 L26.466166,-106.493515 L28.671679,-101.41582 L30.877193,-95.710815 L33.082706,-89.49243 L35.28822,-82.88481 L37.493732,-76.0199 L39.69925,-69.03476 L41.904762,-62.068863 L44.110275,-55.26129 L46.31579,-48.74798 L48.521305,-42.658966 L50.726818,-37.115833 L52.93233,-32.22926 L55.137844,-28.09681 L57.343357,-24.801 L59.548874,-22.407637 L61.754387,-20.964502 L63.9599,-20.500418 L66.16541,-21.024645 L68.370926,-22.526716 L70.57644,-24.976645 L72.78195,-28.32551 L74.987465,-32.506447 L77.192986,-37.435974 L79.3985,-43.01567 L81.60401,-49.134125 L83.809525,-55.66917 L86.01504,-62.490322 L88.22055,-69.461395 L90.42606,-76.443184 L92.63158,-83.2963 L94.83709,-89.8839 L97.04261,-96.074455 L99.24812,-101.74436 L101.453636,-106.78041 L103.65915,-111.08204 L105.86466,-114.56337 L108.070175,-117.15489 L110.27569,-118.804855 L112.4812,-119.480316 L114.686714,-119.167786 L116.89223,-117.87351 L119.09775,-115.62333 L121.30326,-112.46217 L123.50877,-108.453156 L125.71429,-103.67633 L127.9198,-98.227066 L130.12532,-92.21417 L132.33083,-85.757706 L134.53635,-78.98658 L136.74185,-72.035995 L138.94737,-65.04472 L141.15288,-58.152367 L143.3584,-51.496536 L145.5639,-45.21013 L147.76942,-39.418663 L149.97493,-34.237774 L152.18045,-29.77091 L154.38597,-26.10726 L156.59148,-23.319971 L158.797,-21.464697 L161.0025,-20.578484 L163.20802,-20.679024 L165.41353,-21.76431 L167.61905,-23.812675 L169.82455,-26.783218 L172.03008,-30.616629 L174.2356,-35.236362 L176.4411,-40.550182 L178.64662,-46.45199 L180.85213,-52.82394 L183.05765,-59.53881 L185.26315,-66.462524 L187.46867,-73.45684 L189.67418,-80.38211 L191.8797,-87.10005 L194.08522,-93.47653 L196.29073,-99.38423 L198.49625,-104.70519 L200.70175,-109.33318 L202.90727,-113.17579 L205.11278,-116.15628 L207.3183,-118.215164 L209.5238,-119.31132 L211.72932,-119.42285 L213.93483,-118.547554 L216.14035,-116.70289 L218.34587,-113.92569 L220.55138,-110.27141 L222.7569,-105.81302 L224.9624,-100.63953 L227.16792,-94.85423 L229.37343,-88.572655 L231.57895,-81.92021 L233.78445,-75.02974 L235.98997,-68.0388 L238.1955,-61.086994 L240.401,-54.313118 L242.60652,-47.852432 L244.81203,-41.833927 L247.01755,-36.377777 L249.22305,-31.59292 L251.42857,-27.574896 L253.63408,-24.40393 L255.8396,-22.14334 L258.0451,-20.838255 L260.25064,-20.51474 L262.45615,-21.17925 L264.66165,-22.818521 L266.86716,-25.39982 L269.0727,-28.871607 L271.2782,-33.164562 L273.4837,-38.19297 L275.6892,-43.856426 L277.89474,-50.041855 L280.10025,-56.62575 L282.30576,-63.476658 L284.5113,-70.45779 L286.7168,-77.42974 L288.9223,-84.25332 L291.1278,-90.79228 L293.33334,-96.91605 L295.53885,-102.50237 L297.74435,-107.4397 L299.94986,-111.62945 L302.1554,-114.98797 L304.3609,-117.4482 L306.5664,-118.961006 L308.77194,-119.4962 L310.97745,-119.04309 L313.18295,-117.610725 L315.38846,-115.2277 L317.594,-111.94159 L319.7995,-107.81802 L322.005,-102.93932 L324.21054,-97.40291 L326.41605,-91.31931 L328.62155,-84.81001 L330.82706,-78.00498 L333.0326,-71.040085 L335.2381,-64.05439 L337.4436,-57.187378 L339.6491,-50.57616 L341.85464,-44.352745 L344.06015,-38.64139 L346.26566,-33.556137 L348.4712,-29.198513 L350.6767,-25.65553 L352.8822,-22.997932 L355.0877,-21.278778 L357.29324,-20.532396 L359.49875,-20.77369 L361.70425,-21.997837 L363.90976,-24.1804 L366.1153,-27.277802 L368.3208,-31.228191 L370.5263,-35.952698 L372.73184,-41.356983 L374.93735,-47.33315 L377.14285,-53.761864 L379.34836,-60.51477 L381.5539,-67.45704 L383.7594,-74.45005 L385.9649,-81.35418 L388.17044,-88.03157 L390.37595,-94.34891 L392.58145,-100.180046 L394.78696,-105.408554 L396.9925,-109.930046 L399.198,-113.654236 L401.4035,-116.50676 L403.609,-118.43067 L405.81454,-119.38756 L408.02005,-119.35831 L410.22556,-118.3435 L412.4311,-116.3634 L414.6366,-113.45756 L416.8421,-109.683975 L419.0476,-105.11801 L421.25314,-99.85082 L423.45865,-93.98758 L425.66415,-87.645355 L427.86966,-80.95079 L430.0752,-74.03754 L432.2807,-67.04363 L434.4862,-60.108738 L436.69174,-53.371304 L438.89725,-46.96586 L441.10275,-41.0203 L443.30826,-35.653343 L445.5138,-30.972143 L447.7193,-27.070171 L449.9248,-24.025335 L452.13034,-21.898432 L454.33585,-20.731928 L456.54135,-20.549114 L458.74686,-21.353642 L460.9524,-23.129444 L463.1579,-25.841068 L465.3634,-29.43437 L467.5689,-33.837605 L469.77444,-38.96285 L471.97995,-44.707775 L474.18546,-50.957676 L476.391,-57.587753 L478.5965,-64.46564 L480.802,-71.453995 L483.0075,-78.413284 L485.21304,-85.20457 L487.41855,-91.69223 L489.62405,-97.74674 L491.82956,-103.247215 L494.0351,-108.08382 L496.2406,-112.15999 L498.4461,-115.39433 L500.65164,-117.72227 L502.85715,-119.09732 L505.06265,-119.492035 L507.26816,-118.89852 L509.4737,-117.32864 L511.6792,-114.813736 L513.8847,-111.404015 L516.0902,-107.16757 L518.2957,-102.18897 L520.5013,-96.56764 L522.7068,-90.41582 L524.9123,-83.85632 L527.1178,-77.020134 L529.3233,-70.04375 L531.5288,-63.06646 L533.7343,-56.227577 L535.9398,-49.66366 L538.1454,-43.505756 L540.3509,-37.876827 L542.5564,-32.889263 L544.7619,-28.642649 L546.9674,-25.221771 L549.1729,-22.694939 L551.3784,-21.1126 L553.584,-20.506353 L555.7895,-20.8883 L557.995,-22.250814 L560.2005,-24.566692 L562.406,-27.789694 L564.6115,-31.855465 L566.817,-36.682827 L569.0226,-42.175392 L571.2281,-48.22349 L573.4336,-54.706367 L575.6391,-61.49458 L577.8446,-68.45258 L580.0501,-75.44145 L582.2556,-82.32165 L584.4612,-88.95579 L586.6667,-95.21142 L588.8722,-100.96363 L591.0777,-106.097565 L593.2832,-110.51073 L595.4887,-114.11499 L597.6942,-116.838394 L599.8997,-118.626564 L602.1053,-119.44379 L604.3108,-119.27376 L606.5163,-118.11986 L608.7218,-116.00514 L610.9273,-112.97182 L613.1328,-109.08047 L615.3383,-104.408775 L617.5439,-99.05002 L619.7494,-93.111206 L621.9549,-86.71091 L624.1604,-79.97692 L626.3659,-73.04369 L628.5714,-66.04967 L630.7769,-59.134487 L632.9825,-52.436222 L635.188,-46.08862 L637.3935,-40.21842 L639.599,-34.942825 L641.8045,-30.367182 L644.01,-26.582842 L646.2155,-23.665369 L648.4211,-21.673016 L650.6266,-20.645563 L652.8321,-20.603525 L655.0376,-21.54774 L657.2431,-23.459358 L659.4486,-26.300209 L661.6541,-30.01357 L663.8596,-34.5253 L666.0652,-39.745308 L668.2707,-45.569374 L670.4762,-51.88121 L672.6817,-58.554787 L674.8872,-65.456856 L677.0927,-72.44961 L679.2982,-79.393425 L681.5038,-86.14965 L683.7093,-92.58339 L685.9148,-98.566185 L688.1203,-103.978584 L690.3258,-108.71251 L692.5313,-112.67344 L694.7368,-115.7823 L696.9424,-117.977005 L699.1479,-119.213745 L701.3534,-119.46781 L703.5589,-118.734146 L705.7644,-117.02739 L707.9699,-114.381615 L710.1754,-110.84966 L712.381,-106.50205 L714.5865,-101.42558 L716.792,-95.72162 L718.9975,-89.50404 L721.203,-82.89702 L723.4085,-76.03245 L725.614,-69.04739 L727.8195,-62.081337 L730.0251,-55.27336 L732.2306,-48.759396 L734.4361,-42.669502 L736.6416,-37.125282 L738.8471,-32.23743 L741.0526,-28.10354 L743.2581,-24.806156 L745.4637,-22.411114 L747.6692,-20.966232 L749.8747,-20.500364 L752.0802,-21.02281 L754.2857,-22.523138 L756.4912,-24.971394 L758.6967,-28.31869 L760.9023,-32.498196 L763.1078,-37.426456 L765.3133,-43.005074 L767.5188,-49.12266 L769.7243,-55.65707 L771.9298,-62.47783 L774.1353,-69.44875 L776.3409,-76.43066 L778.5464,-83.28413 L780.7519,-89.87232 L782.9574,-96.06371 L785.1629,-101.734665 L787.3684,-106.77195 L789.5739,-111.07499 L791.7794,-114.55787 L793.985,-117.15105 L796.1905,-118.80274 L798.396,-119.47998 L800.6015,-119.169235 L802.807,-117.87672 L805.0125,-115.62823 L807.218,-112.468666 L809.4236,-108.46111 L811.6291,-103.68559 L813.8346,-98.23745 L816.0401,-92.22547 L818.2456,-85.76969 L820.4511,-78.99901 L822.6566,-72.04862 L824.8622,-65.057304 L827.0677,-58.16464 L829.2732,-51.50826 L831.4787,-45.22107 L833.6842,-39.428604 L835.8897,-34.246517 L838.0952,-29.778278 L840.3008,-26.113104 L842.5063,-23.324177 L844.7118,-21.467182 L846.9173,-20.579197 L849.1228,-20.677952 L851.3283,-21.761475 L853.5338,-23.80813 L855.7393,-26.777058 L857.9449,-30.608973 L860.1504,-35.227364 L862.3559,-40.540024 L864.5614,-46.44087 L866.7669,-52.812084 L868.9724,-59.526455 L871.1779,-66.44992 L873.3835,-73.44424 L875.589,-80.36975 L877.7945,-87.08819 L880,-93.4654" fill="none" stroke="orange" stroke-linejoin="round" stroke-width="2"/>
</g>
</g>
<g>
<g>
<path d="M0,-12.842505 L0,-12.842505 L2.2055137,-19.10968 L4.4110274,-26.392937 L6.6165414,-34.546852 L8.822055,-43.40862 L11.027569,-52.8013 L13.233083,-62.537354 L15.438597,-72.42238 L17.64411,-82.259 L19.849625,-91.85083 L22.055138,-101.00634 L24.260653,-109.542725 L26.466166,-117.28954 L28.671679,-124.09212 L30.877193,-129.81462 L33.082706,-134.34279 L35.28822,-137.58623 L37.493732,-139.48015 L39.69925,-139.98676 L41.904762,-139.09593 L44.110275,-136.82547 L46.31579,-133.22067 L48.521305,-128.35356 L50.726818,-122.32128 L52.93233,-115.244286 L55.137844,-107.263885 L57.343357,-98.53942 L59.548874,-89.24509 L61.754387,-79.56646 L63.9599,-69.6968 L66.16541,-59.833157 L68.370926,-50.172485 L70.57644,-40.907673 L72.78195,-32.22371 L74.987465,-24.293983 L77.192986,-17.276825 L79.3985,-11.312344 L81.60401,-6.5196304 L83.809525,-2.9943807 L86.01504,-0.8069815 L88.22055,-0.0011079907 L90.42606,-0.59285074 L92.63158,-2.5703948 L94.83709,-5.8942547 L97.04261,-10.498065 L99.24812,-16.289902 L101.453636,-23.154121 L103.65915,-30.953669 L105.86466,-39.53281 L108.070175,-48.720253 L110.27569,-58.33255 L112.4812,-68.17778 L114.686714,-78.059364 L116.89223,-87.78 L119.09775,-97.14559 L121.30326,-105.969154 L123.50877,-114.0745 L125.71429,-121.29979 L127.9198,-127.50077 L130.12532,-132.55362 L132.33083,-136.35744 L134.53635,-138.8363 L136.74185,-139.9407 L138.94737,-139.64859 L141.15288,-137.96579 L143.3584,-134.9259 L145.5639,-130.58965 L147.76942,-125.04357 L149.97493,-118.39844 L152.18045,-110.78691 L154.38597,-102.36098 L156.59148,-93.28887 L158.797,-83.75174 L161.0025,-73.939995 L163.20802,-64.04956 L165.41353,-54.277897 L167.61905,-44.820126 L169.82455,-35.865086 L172.03008,-27.591574 L174.2356,-20.16479 L176.4411,-13.733019 L178.64662,-8.424685 L180.85213,-4.345775 L183.05765,-1.5777334 L185.26315,-0.17582797 L187.46867,-0.16805026 L189.67418,-1.5545557 L191.8797,-4.30766 L194.08522,-8.372394 L196.29073,-13.667596 L198.49625,-20.08754 L200.70175,-27.504042 L202.90727,-35.769016 L205.11278,-44.71744 L207.3183,-54.170643 L209.5238,-63.93988 L211.72932,-73.830086 L213.93483,-83.64378 L216.14035,-93.185036 L218.34587,-102.26333 L220.55138,-110.697395 L222.7569,-118.31884 L224.9624,-124.975494 L227.16792,-130.53444 L229.37343,-134.88467 L231.57895,-137.93936 L233.78445,-139.63748 L235.98997,-139.94514 L238.1955,-138.8562 L240.401,-136.39241 L242.60652,-132.60295 L244.81203,-127.56348 L247.01755,-121.374626 L249.22305,-114.159966 L251.42857,-106.063545 L253.63408,-97.24703 L255.8396,-87.88645 L258.0451,-78.16871 L260.25064,-68.287834 L262.45615,-58.441113 L264.66165,-48.825157 L266.86716,-39.63196 L269.0727,-31.045086 L271.2782,-23.235981 L273.4837,-16.36057 L275.6892,-10.556131 L277.89474,-5.938559 L280.10025,-2.6000524 L282.30576,-0.6072696 L284.5113,0 L286.7168,-0.79036885 L288.9223,-2.9625952 L291.1278,-6.4733067 L293.33334,-11.252406 L295.53885,-17.20447 L297.74435,-24.210657 L299.94986,-32.131077 L302.1554,-40.807583 L304.3609,-50.066933 L306.5664,-59.72425 L308.77194,-69.586716 L310.97745,-79.4574 L313.18295,-89.13922 L315.38846,-98.438866 L317.594,-107.170654 L319.7995,-115.16023 L322.005,-122.248085 L324.21054,-128.29268 L326.41605,-133.17334 L328.62155,-136.7926 L330.82706,-139.07822 L333.0326,-139.98453 L335.2381,-139.49345 L337.4436,-137.61479 L339.6491,-134.38606 L341.85464,-129.87173 L344.06015,-124.16193 L346.26566,-117.37065 L348.4712,-109.633514 L350.6767,-101.105 L352.8822,-91.95539 L355.0877,-82.36737 L357.29324,-72.532394 L359.49875,-62.64682 L361.70425,-52.90803 L363.90976,-43.510487 L366.1153,-34.64182 L368.3208,-26.479109 L370.5263,-19.185335 L372.73184,-12.906134 L374.93735,-7.7668767 L377.14285,-3.8701797 L379.34836,-1.2938465 L381.5539,-0.08931784 L383.7594,-0.28064427 L385.9649,-1.8640056 L388.17044,-4.8077874 L390.37595,-9.053212 L392.58145,-14.515512 L394.78696,-21.085625 L396.9925,-28.632364 L399.198,-37.00505 L401.4035,-46.036507 L403.609,-55.546402 L405.81454,-65.344864 L408.02005,-75.23624 L410.22556,-85.02303 L412.4311,-94.509834 L414.6366,-103.50723 L416.8421,-111.83557 L419.0476,-119.32856 L421.25314,-125.83659 L423.45865,-131.22972 L425.66415,-135.40027 L427.86966,-138.26495 L430.0752,-139.76659 L432.2807,-139.87518 L434.4862,-138.58858 L436.69174,-135.93245 L438.89725,-131.95984 L441.10275,-126.75008 L443.30826,-120.40716 L445.5138,-113.057755 L447.7193,-104.848595 L449.9248,-95.9436 L452.13034,-86.52057 L454.33585,-76.76764 L456.54135,-66.879555 L458.74686,-57.05375 L460.9524,-47.486404 L463.1579,-38.368553 L465.3634,-29.882246 L467.5689,-22.196928 L469.77444,-15.466051 L471.97995,-9.824005 L474.18546,-5.3834453 L476.391,-2.2330344 L478.5965,-0.4356754 L480.802,-0.027255885 L483.0075,-1.0159307 L485.21304,-3.381959 L487.41855,-7.0780993 L489.62405,-12.030552 L491.82956,-18.140432 L494.0351,-25.285748 L496.2406,-33.323826 L498.4461,-42.09418 L500.65164,-51.421688 L502.85715,-61.120117 L505.06265,-70.99582 L507.26816,-80.8516 L509.4737,-90.490685 L511.6792,-99.72061 L513.8847,-108.357086 L516.0902,-116.22766 L518.2957,-123.1752 L520.5013,-129.06097 L522.7068,-133.76747 L524.9123,-137.2007 L527.1178,-139.29213 L529.3233,-140 L531.5288,-139.31017 L533.7343,-137.23642 L535.9398,-133.82014 L538.1454,-129.12956 L540.3509,-123.25833 L542.5564,-116.32368 L544.7619,-108.46406 L546.9674,-99.83642 L549.1729,-90.61301 L551.3784,-80.978 L553.584,-71.123764 L555.7895,-61.24706 L557.995,-51.545094 L560.2005,-42.211582 L562.406,-33.43288 L564.6115,-25.384277 L566.817,-18.22647 L569.0226,-12.102382 L571.2281,-7.1342854 L573.4336,-3.42138 L575.6391,-1.0377992 L577.8446,-0.031135414 L580.0501,-0.4214884 L582.2556,-2.201064 L584.4612,-5.33433 L586.6667,-9.758726 L588.8722,-15.385911 L591.0777,-22.103527 L593.2832,-29.777449 L595.4887,-38.25445 L597.6942,-47.36528 L599.8997,-56.928017 L602.1053,-66.751724 L604.3108,-76.64027 L606.5163,-86.396194 L608.7218,-95.82471 L610.9273,-104.737564 L613.1328,-112.956795 L615.3383,-120.31829 L617.5439,-126.675064 L619.7494,-131.90019 L621.9549,-135.88936 L624.1604,-138.5629 L626.3659,-139.86743 L628.5714,-139.77692 L630.7769,-138.29315 L632.9825,-135.44579 L635.188,-131.29164 L637.3935,-125.91367 L639.599,-119.419266 L641.8045,-111.938095 L644.01,-103.61952 L646.2155,-94.629654 L648.4211,-85.14799 L650.6266,-75.36383 L652.8321,-65.47254 L655.0376,-55.67163 L657.2431,-46.156776 L659.4486,-37.11796 L661.6541,-28.735662 L663.8596,-21.177246 L666.0652,-14.593628 L668.2707,-9.116262 L670.4762,-4.854514 L672.6817,-1.8934753 L674.8872,-0.29226857 L677.0927,-0.082864605 L679.2982,-1.2694446 L681.5038,-3.8283162 L683.7093,-7.708388 L685.9148,-12.832187 L688.1203,-19.097408 L690.3258,-26.378956 L692.5313,-34.53144 L694.7368,-43.392086 L696.9424,-52.783974 L699.1479,-62.519577 L701.3534,-72.40451 L703.5589,-82.24141 L705.7644,-91.83385 L707.9699,-100.99032 L710.1754,-109.52798 L712.381,-117.27637 L714.5865,-124.08077 L716.792,-129.80533 L718.9975,-134.33575 L721.203,-137.58157 L723.4085,-139.47797 L725.614,-139.9871 L727.8195,-139.0988 L730.0251,-136.83078 L732.2306,-133.22835 L734.4361,-128.36343 L736.6416,-122.33315 L738.8471,-115.25793 L741.0526,-107.279015 L743.2581,-98.55574 L745.4637,-89.262276 L747.6692,-79.58417 L749.8747,-69.714676 L752.0802,-59.850845 L754.2857,-50.18963 L756.4912,-40.923935 L758.6967,-32.23876 L760.9023,-24.307524 L763.1078,-17.288586 L765.3133,-11.322089 L767.5188,-6.5271673 L769.7243,-2.9995577 L771.9298,-0.80969524 L774.1353,-0.0013042437 L776.3409,-0.5905256 L778.5464,-2.5655947 L780.7519,-5.8870754 L782.9574,-10.488649 L785.1629,-16.278439 L787.3684,-23.140839 L789.5739,-30.938833 L791.7794,-39.51672 L793.985,-48.703224 L796.1905,-58.314926 L798.396,-68.15991 L800.6015,-78.0416 L802.807,-87.76271 L805.0125,-97.12912 L807.218,-105.95382 L809.4236,-114.06061 L811.6291,-121.28763 L813.8346,-127.49057 L816.0401,-132.5456 L818.2456,-136.35175 L820.4511,-138.83305 L822.6566,-139.93996 L824.8622,-139.65038 L827.0677,-137.97006 L829.2732,-134.93259 L831.4787,-130.59859 L833.6842,-125.05461 L835.8897,-118.41135 L838.0952,-110.80144 L840.3008,-102.37683 L842.5063,-93.30573 L844.7118,-83.769264 L846.9173,-73.95785 L849.1228,-64.06737 L851.3283,-54.29532 L853.5338,-44.836807 L855.7393,-35.88069 L857.9449,-27.605799 L860.1504,-20.177345 L862.3559,-13.743656 L864.5614,-8.43319 L866.7669,-4.3519797 L868.9724,-1.5815129 L871.1779,-0.1771072 L873.3835,-0.16680361 L875.589,-1.550808 L877.7945,-4.301486 L880,-8.363916" fill="none" stroke="blue" stroke-linejoin="round" stroke-width="2"/>
</g>
</g>
<g>
<g>
<line stroke="black" stroke-width="1" x1="0" x2="0" y1="0" y2="10"/>
<line stroke="black" stroke-width="1" x1="220.5513784461153" x2="220.5513784461153" y1="0" y2="10"/>
<line stroke="black" stroke-width="1" x1="441.1027568922306" x2="441.1027568922306" y1="0" y2="10"/>
<line stroke="black" stroke-width="1" x1="661.6541353383459" x2="661.6541353383459" y1="0" y2="10"/>
</g>
<line stroke="black" stroke-width="1" x1="0" x2="880" y1="0" y2="0"/>
<g>
<text font-size="12" text-anchor="middle" x="0" y="20">
0
</text>
<text font-size="12" text-anchor="middle" x="220.5513784461153" y="20">
10
</text>
<text font-size="12" text-anchor="middle" x="441.1027568922306" y="20">
20
</text>
<text font-size="12" text-anchor="middle" x="661.6541353383459" y="20">
30
</text>
</g>
<text font-size="12" text-anchor="middle" x="440" y="30">
x
</text>
</g>
<g>
<g>
<line stroke="black" stroke-width="1" x1="0" x2="-10" y1="-12.842505129077132" y2="-12.842505129077132"/>
<line stroke="black" stroke-width="1" x1="0" x2="-10" y1="-41.42050653151349" y2="-41.42050653151349"/>
<line stroke="black" stroke-width="1" x1="0" x2="-10" y1="-69.99850793394984" y2="-69.99850793394984"/>
<line stroke="black" stroke-width="1" x1="0" x2="-10" y1="-98.5765093363862" y2="-98.5765093363862"/>
<line stroke="black" stroke-width="1" x1="0" x2="-10" y1="-127.15451073882257" y2="-127.15451073882257"/>
</g>
<line stroke="black" stroke-width="1" x1="0" x2="0" y1="0" y2="-140"/>
<g>
<text dominant-baseline="middle" font-size="12" text-anchor="end" x="-15" y="-12.842505129077132">
-2
</text>
<text dominant-baseline="middle" font-size="12" text-anchor="end" x="-15" y="-41.42050653151349">
-1
</text>
<text dominant-baseline="middle" font-size="12" text-anchor="end" x="-15" y="-69.99850793394984">
0
</text>
<text dominant-baseline="middle" font-size="12" text-anchor="end" x="-15" y="-98.5765093363862">
1
</text>
<text dominant-baseline="middle" font-size="12" text-anchor="end" x="-15" y="-127.15451073882257">
2
</text>
</g>
<text font-size="12" text-anchor="middle" transform="rotate(-90 -24 -70)" x="-24" y="-82">
y
</text>
</g>
</g>
</svg>