<svg viewBox="0 0 1000 200" xmlns="http://www.w3.org/2000/svg">
<g transform="translate(72, 164)">
<g>
<g>
<path d="M0,-93.60508 L0,-93.60508 L2.2055137,-87.231705 L4.4110274,-80.51369 L6.6165414,-73.5854 L8.822055,-66.5854 L11.027569,-59.653698 L13.233083,-52.928917 L15.438597,-46.54556 L17.64411,-40.631287 L19.849625,-35.30439 L22.055138,-30.671404 L24.260653,-26.82499 L26.466166,-23.842075 L28.671679,-21.782318 L30.877193,-20.686914 L33.082706,-20.577772 L35.28822,-21.457075 L37.493732,-23.307234 L39.69925,-26.091248 L41.904762,-29.753437 L44.110275,-34.22056 L46.31579,-39.403263 L48.521305,-45.197906 L50.726818,-51.48859 L52.93233,-58.1495 L55.137844,-65.047424 L57.343357,-72.044395 L59.548874,-79.00047 L61.754387,-85.77655 L63.9599,-92.23709 L66.16541,-98.25289 L68.370926,-103.70363 L70.57644,-108.4803 L72.78195,-112.48736 L74.987465,-115.64467 L77.192986,-117.88909 L79.3985,-119.17573 L81.60401,-119.47885 L83.809525,-118.7924 L86.01504,-117.13009 L88.22055,-114.525185 L90.42606,-111.02977 L92.63158,-106.71377 L94.83709,-101.66348 L97.04261,-95.97993 L99.24812,-89.77678 L101.453636,-83.17809 L103.65915,-76.31584 L105.86466,-69.32727 L108.070175,-62.352158 L110.27569,-55.53 L112.4812,-48.997242 L114.686714,-42.88454 L116.89223,-37.314144 L119.09775,-32.397465 L121.30326,-28.232838 L123.50877,-24.903551 L125.71429,-22.476194 L127.9198,-20.999313 L130.12532,-20.502445 L132.33083,-20.995527 L134.53635,-22.468699 L136.74185,-24.892494 L138.94737,-28.218441 L141.15288,-32.380016 L143.3584,-37.293995 L145.5639,-42.862087 L147.76942,-48.972942 L149.97493,-55.504337 L152.18045,-62.32564 L154.38597,-69.30044 L156.59148,-76.28922 L158.797,-83.15222 L161.0025,-89.752174 L163.20802,-95.957085 L165.41353,-101.64285 L167.61905,-106.69576 L169.82455,-111.014755 L172.03008,-114.51345 L174.2356,-117.12188 L176.4411,-118.78787 L178.64662,-119.4781 L180.85213,-119.17878 L183.05765,-117.895874 L185.26315,-115.655045 L187.46867,-112.50112 L189.67418,-108.49718 L191.8797,-103.72328 L194.08522,-98.274925 L196.29073,-92.26106 L198.49625,-85.80199 L200.70175,-79.02686 L202.90727,-72.07121 L205.11278,-65.07413 L207.3183,-58.17556 L209.5238,-51.513485 L211.72932,-45.221138 L213.93483,-39.424366 L216.14035,-34.23911 L218.34587,-29.769068 L220.55138,-26.103643 L222.7569,-23.316147 L224.9624,-21.462328 L227.16792,-20.57926 L229.37343,-20.684607 L231.57895,-21.776262 L233.78445,-23.83239 L235.98997,-26.81187 L238.1955,-30.655113 L240.401,-35.28525 L242.60652,-40.609688 L244.81203,-46.521927 L247.01755,-52.903725 L249.22305,-59.627453 L251.42857,-66.558624 L253.63408,-73.55863 L255.8396,-80.48746 L258.0451,-87.20654 L260.25064,-93.58149 L262.45615,-99.48481 L264.66165,-104.79843 L266.86716,-109.416084 L269.0727,-113.24541 L271.2782,-116.20983 L273.4837,-118.25005 L275.6892,-119.32528 L277.89474,-119.413994 L280.10025,-118.514435 L282.30576,-116.64458 L284.5113,-113.841835 L286.7168,-110.16225 L288.9223,-105.67942 L291.1278,-100.483 L293.33334,-94.676926 L295.53885,-88.37731 L297.74435,-81.710144 L299.94986,-74.80878 L302.1554,-67.81123 L304.3609,-60.857468 L306.5664,-54.086548 L308.77194,-47.6339 L310.97745,-41.62857 L313.18295,-36.19067 L315.38846,-31.428955 L317.594,-27.438662 L319.7995,-24.299593 L322.005,-22.074533 L324.21054,-20.807981 L326.41605,-20.52527 L328.62155,-21.232052 L330.82706,-22.914192 L333.0326,-25.53805 L335.2381,-29.051144 L337.4436,-33.383217 L339.6491,-38.44762 L341.85464,-44.143074 L344.06015,-50.355667 L346.26566,-56.961143 L348.4712,-63.827396 L350.6767,-70.8171 L352.8822,-77.79047 L355.0877,-84.60802 L357.29324,-91.133415 L359.49875,-97.23614 L361.70425,-102.794136 L363.90976,-107.69625 L366.1153,-111.844444 L368.3208,-115.15575 L370.5263,-117.563934 L372.73184,-119.020836 L374.93735,-119.49733 L377.14285,-118.98387 L379.34836,-117.49074 L381.5539,-115.04778 L383.7594,-111.70388 L385.9649,-107.525894 L388.17044,-102.59739 L390.37595,-97.01694 L392.58145,-90.89615 L394.78696,-84.35743 L396.9925,-77.53157 L399.198,-70.55508 L401.4035,-63.567474 L403.609,-56.708527 L405.81454,-50.11541 L408.02005,-43.919983 L410.22556,-38.246155 L412.4311,-33.2074 L414.6366,-28.904503 L416.8421,-25.423512 L419.0476,-22.834051 L421.25314,-21.187908 L423.45865,-20.518005 L425.66415,-20.837744 L427.86966,-22.140726 L430.0752,-24.400892 L432.2807,-27.573042 L434.4862,-31.593729 L436.69174,-36.38254 L438.89725,-41.8437 L441.10275,-47.86799 L443.30826,-54.334915 L445.5138,-61.115143 L447.7193,-68.07307 L449.9248,-75.06953 L452.13034,-81.9646 L454.33585,-88.62038 L456.54135,-94.90375 L458.74686,-100.68904 L460.9524,-105.86056 L463.1579,-110.31486 L465.3634,-113.96286 L467.5689,-116.731606 L469.77444,-118.56572 L471.97995,-119.42852 L474.18546,-119.30275 L476.391,-118.19092 L478.5965,-116.11527 L480.802,-113.11732 L483.0075,-109.25702 L485.21304,-104.61158 L487.41855,-99.2739 L489.62405,-93.35075 L491.82956,-86.96059 L494.0351,-80.23121 L496.2406,-73.2972 L498.4461,-66.29726 L500.65164,-59.37136 L502.85715,-52.65804 L505.06265,-46.291557 L507.26816,-40.399242 L509.4737,-35.09894 L511.6792,-30.49666 L513.8847,-26.684446 L516.0902,-23.738544 L518.2957,-21.717869 L520.5013,-20.662836 L522.7068,-20.594547 L524.9123,-21.514366 L527.1178,-23.403896 L529.3233,-26.22535 L531.5288,-29.922293 L533.7343,-34.42079 L535.9398,-39.630875 L538.1454,-45.448338 L540.3509,-51.756836 L542.5564,-58.430195 L544.7619,-65.334946 L546.9674,-72.33301 L549.1729,-79.2844 L551.3784,-86.0501 L553.584,-92.49481 L555.7895,-98.48962 L557.995,-103.91463 L560.2005,-108.661354 L562.406,-112.63484 L564.6115,-115.75564 L566.817,-117.96132 L569.0226,-119.20778 L571.2281,-119.47008 L573.4336,-118.74297 L575.6391,-117.041016 L577.8446,-114.39823 L580.0501,-110.86748 L582.2556,-106.51938 L584.4612,-101.440895 L586.6667,-95.73359 L588.8722,-89.51161 L591.0777,-82.8994 L593.2832,-76.0292 L595.4887,-69.038414 L597.6942,-62.066864 L599.8997,-55.253975 L602.1053,-48.736004 L604.3108,-42.643314 L606.5163,-37.097755 L608.7218,-32.210243 L610.9273,-28.078522 L613.1328,-24.785233 L615.3383,-22.396238 L617.5439,-20.959316 L619.7494,-20.50321 L621.9549,-21.037037 L624.1604,-22.550125 L626.3659,-25.012207 L628.5714,-28.374046 L630.7769,-32.568405 L632.9825,-37.511395 L635.188,-43.104153 L637.3935,-49.23483 L639.599,-55.78081 L641.8045,-62.61117 L644.01,-69.58931 L646.2155,-76.57566 L648.4211,-83.430504 L650.6266,-90.01673 L652.8321,-96.20262 L655.0376,-101.86446 L657.2431,-106.88901 L659.4486,-111.17578 L661.6541,-114.63903 L663.8596,-117.2095 L666.0652,-118.835785 L668.2707,-119.48535 L670.4762,-119.14521 L672.6817,-117.82216 L674.8872,-115.54267 L677.0927,-112.352325 L679.2982,-108.31493 L681.5038,-103.51124 L683.7093,-98.03732 L685.9148,-92.00266 L688.1203,-85.52794 L690.3258,-78.74267 L692.5313,-71.78253 L694.7368,-64.78675 L696.9424,-57.895233 L699.1479,-51.24581 L701.3534,-44.971474 L703.5589,-39.197704 L705.7644,-34.039978 L707.9699,-29.601454 L710.1754,-25.9709 L712.381,-23.220928 L714.5865,-21.406536 L716.792,-20.564013 L718.9975,-20.710209 L721.203,-21.842201 L723.4085,-23.937347 L725.614,-26.953747 L727.8195,-30.831072 L730.0251,-35.49177 L732.2306,-40.84264 L734.4361,-46.776653 L736.6416,-53.175133 L738.8471,-59.910107 L741.0526,-66.84688 L743.2581,-73.84672 L745.4637,-80.769615 L747.6692,-87.47712 L749.8747,-93.83508 L752.0802,-99.71635 L754.2857,-105.00328 L756.4912,-109.59015 L758.6967,-113.385216 L760.9023,-116.31258 L763.1078,-118.31368 L765.3133,-119.34852 L767.5188,-119.39638 L769.7243,-118.456314 L771.9298,-116.54712 L774.1353,-113.706985 L776.3409,-109.992714 L778.5464,-105.47858 L780.7519,-100.254875 L782.9574,-94.42608 L785.1629,-88.10876 L787.3684,-81.42925 L789.5739,-74.52117 L791.7794,-67.52267 L793.985,-60.5737 L796.1905,-53.813267 L798.396,-47.376564 L800.6015,-41.39233 L802.807,-35.980247 L805.0125,-31.24856 L807.218,-27.291903 L809.4236,-24.189405 L811.6291,-22.003119 L813.8346,-20.77677 L816.0401,-20.534885 L818.2456,-21.282303 L820.4511,-23.004072 L822.6566,-25.665762 L824.8622,-29.214134 L827.0677,-33.578224 L829.2732,-38.67075 L831.4787,-44.38986 L833.6842,-50.621166 L835.8897,-57.240055 L838.0952,-64.11414 L840.3008,-71.10594 L842.5063,-78.07562 L844.7118,-84.8838 L846.9173,-91.39429 L849.1228,-97.4769 L851.3283,-103.009964 L853.5338,-107.882835 L855.7393,-111.99805 L857.9449,-115.27329 L860.1504,-117.64308 L862.3559,-119.06 L864.5614,-119.49572 L866.7669,-118.94153 L868.9724,-117.4085 L871.1779,-114.92731 L873.3835,-111.54756 L875.589,-107.33687 L877.7945,-102.37944 L880,-96.774414" fill="none" stroke="orange" stroke-linejoin="round" stroke-width="2"/>
</g>
</g>
<g>
<g>
<path d="M0,-6.266175 L0,-6.266175 L2.2055137,-2.8198287 L4.4110274,-0.7170855 L6.6165414,0 L8.822055,-0.68291396 L11.027569,-2.7521691 L13.233083,-6.1663804 L15.438597,-10.857264 L17.64411,-16.731 L19.849625,-23.670116 L22.055138,-31.535831 L24.260653,-40.170826 L26.466166,-49.40241 L28.671679,-59.045937 L30.877193,-68.90855 L33.082706,-78.79299 L35.28822,-88.50157 L37.493732,-97.84012 L39.69925,-106.621864 L41.904762,-114.671165 L44.110275,-121.82705 L46.31579,-127.946396 L48.521305,-132.9068 L50.726818,-136.60909 L52.93233,-138.97917 L55.137844,-139.96968 L57.343357,-139.5608 L59.548874,-137.7607 L61.754387,-134.6054 L63.9599,-130.15796 L66.16541,-124.50738 L68.370926,-117.76665 L70.57644,-110.07058 L72.78195,-101.573105 L74.987465,-92.44417 L77.192986,-82.86634 L79.3985,-73.03119 L81.60401,-63.135414 L83.809525,-53.37693 L86.01504,-43.95091 L88.22055,-35.045864 L90.42606,-26.839905 L92.63158,-19.497147 L94.83709,-13.164443 L97.04261,-7.968452 L99.24812,-4.0130906 L101.453636,-1.3774669 L103.65915,-0.114293434 L105.86466,-0.2488335 L108.070175,-1.7783964 L110.27569,-4.672391 L112.4812,-8.872937 L114.686714,-14.296023 L116.89223,-20.833189 L119.09775,-28.353691 L121.30326,-36.70712 L123.50877,-45.726402 L125.71429,-55.231155 L127.9198,-65.03129 L130.12532,-74.93079 L132.33083,-84.73168 L134.53635,-94.23794 L136.74185,-103.25943 L138.94737,-111.61574 L141.15288,-119.13973 L143.3584,-125.68092 L145.5639,-131.1085 L147.76942,-135.3139 L149.97493,-138.21304 L152.18045,-139.74791 L154.38597,-139.88782 L156.59148,-138.62996 L158.797,-135.99951 L161.0025,-132.04907 L163.20802,-126.85765 L165.41353,-120.529076 L167.61905,-113.18992 L169.82455,-104.98696 L172.03008,-96.08427 L174.2356,-86.65988 L176.4411,-76.902306 L178.64662,-67.006676 L180.85213,-57.170914 L183.05765,-47.591736 L185.26315,-38.46072 L187.46867,-29.96049 L189.67418,-22.26105 L191.8797,-15.516388 L194.08522,-9.861398 L196.29073,-5.409179 L198.49625,-2.2487767 L200.70175,-0.44339773 L202.90727,-0.029150369 L205.11278,-1.0143194 L207.3183,-3.3792017 L209.5238,-7.076499 L211.72932,-12.032267 L213.93483,-18.147387 L216.14035,-25.29956 L218.34587,-33.34574 L220.55138,-42.125008 L222.7569,-51.461773 L224.9624,-61.1693 L227.16792,-71.053444 L229.37343,-80.91652 L231.57895,-90.56126 L233.78445,-99.79478 L235.98997,-108.432396 L238.1955,-116.30137 L240.401,-123.24431 L242.60652,-129.12238 L244.81203,-133.81798 L247.01755,-137.23723 L249.22305,-139.31174 L251.42857,-140 L253.63408,-139.28827 L255.8396,-137.19077 L258.0451,-133.74945 L260.25064,-129.03316 L262.45615,-123.136185 L264.66165,-116.1765 L266.86716,-108.293274 L269.0727,-99.64419 L271.2782,-90.402214 L273.4837,-80.7522 L275.6892,-70.88714 L277.89474,-61.004333 L280.10025,-51.30144 L282.30576,-41.97252 L284.5113,-33.204147 L286.7168,-25.171692 L288.9223,-18.0358 L291.1278,-11.939195 L293.33334,-7.0038037 L295.53885,-3.3283362 L297.74435,-0.9863013 L299.94986,-0.024539785 L302.1554,-0.46228695 L304.3609,-2.2907877 L306.5664,-5.4734726 L308.77194,-9.946687 L310.97745,-15.620967 L313.18295,-22.382828 L315.38846,-30.09703 L317.594,-38.60929 L319.7995,-47.749367 L322.005,-57.334457 L324.21054,-67.17285 L326.41605,-77.067795 L328.62155,-86.82138 L330.82706,-96.23853 L333.0326,-105.13092 L335.2381,-113.32069 L337.4436,-120.644035 L339.6491,-126.954506 L341.85464,-132.12589 L344.06015,-136.05475 L346.26566,-138.6625 L348.4712,-139.89703 L350.6767,-139.7336 L352.8822,-138.1755 L355.0877,-135.25389 L357.29324,-131.0272 L359.49875,-125.57997 L361.70425,-119.02114 L363.90976,-111.48189 L366.1153,-103.11299 L368.3208,-94.08183 L370.5263,-84.569046 L372.73184,-74.76487 L374.93735,-64.8654 L377.14285,-55.06862 L379.34836,-45.57047 L381.5539,-36.560905 L383.7594,-28.220123 L385.9649,-20.71494 L388.17044,-14.195456 L390.37595,-8.792063 L392.58145,-4.6128273 L394.78696,-1.7413354 L396.9925,-0.23501593 L399.198,-0.12399565 L401.4035,-1.4104949 L403.609,-4.0687838 L405.81454,-8.045696 L408.02005,-13.261694 L410.22556,-19.612457 L412.4311,-26.970972 L414.6366,-35.190067 L416.8421,-44.10536 L419.0476,-53.538544 L421.25314,-63.300957 L423.45865,-73.19735 L425.66415,-83.02979 L427.86966,-92.60165 L430.0752,-101.72146 L432.2807,-110.20685 L434.4862,-117.88809 L436.69174,-124.61158 L438.89725,-130.24283 L441.10275,-134.66924 L443.30826,-137.80225 L445.5138,-139.57921 L447.7193,-139.96458 L449.9248,-138.95068 L452.13034,-136.55775 L454.33585,-132.83368 L456.54135,-127.85292 L458.74686,-121.7151 L460.9524,-114.54299 L463.1579,-106.48001 L465.3634,-97.68744 L467.5689,-88.34111 L469.77444,-78.62796 L471.97995,-68.74225 L474.18546,-58.881695 L476.391,-49.243507 L478.5965,-40.020447 L480.802,-31.396976 L483.0075,-23.545567 L485.21304,-16.623245 L487.41855,-10.768459 L489.62405,-6.0983024 L491.82956,-2.7061791 L494.0351,-0.65993184 L496.2406,-0.00048537433 L498.4461,-0.7410286 L500.65164,-2.8667507 L502.85715,-6.3351374 L505.06265,-11.07682 L507.26816,-16.996967 L509.4737,-23.977173 L511.6792,-31.877836 L513.8847,-40.54094 L516.0902,-49.79323 L518.2957,-59.449646 L520.5013,-69.31708 L522.7068,-79.19816 L524.9123,-88.89528 L527.1178,-98.21449 L529.3233,-106.96942 L531.5288,-114.984955 L533.7343,-122.10079 L535.9398,-128.1746 L538.1454,-133.08495 L540.3509,-136.73357 L542.5564,-139.04752 L544.7619,-139.98053 L546.9674,-139.51392 L549.1729,-137.65703 L551.3784,-134.447 L553.584,-129.94804 L555.7895,-124.250114 L557.995,-117.46718 L560.2005,-109.7349 L562.406,-101.20793 L564.6115,-92.0568 L566.817,-82.46452 L569.0226,-72.62296 L571.2281,-62.728947 L573.4336,-52.980343 L575.6391,-43.572136 L577.8446,-34.692486 L580.0501,-26.518984 L582.2556,-19.215101 L584.4612,-12.926918 L586.6667,-7.7801948 L588.8722,-3.877867 L591.0777,-1.2979815 L593.2832,-0.09213577 L595.4887,-0.28444678 L597.6942,-1.8710682 L599.8997,-4.8202677 L602.1053,-9.073062 L604.3108,-14.544394 L606.5163,-21.124838 L608.7218,-28.682783 L610.9273,-37.067074 L613.1328,-46.11002 L615.3383,-55.630768 L617.5439,-65.438896 L619.7494,-75.33825 L621.9549,-85.13084 L624.1604,-94.62081 L626.3659,-103.61836 L628.5714,-111.94354 L630.7769,-119.42986 L632.9825,-125.927574 L635.188,-131.30673 L637.3935,-135.45976 L639.599,-138.3036 L641.8045,-139.78136 L644.01,-139.8635 L646.2155,-138.54836 L648.4211,-135.86224 L650.6266,-131.8589 L652.8321,-126.61837 L655.0376,-120.24547 L657.2431,-112.86766 L659.4486,-104.6325 L661.6541,-95.70469 L663.8596,-86.26278 L666.0652,-76.49562 L668.2707,-66.59854 L670.4762,-56.769497 L672.6817,-47.20506 L674.8872,-38.09652 L677.0927,-29.62605 L679.2982,-21.963058 L681.5038,-15.260805 L683.7093,-9.653335 L685.9148,-5.2527976 L688.1203,-2.1472037 L690.3258,-0.39866513 L692.5313,-0.042152785 L694.7368,-1.0847968 L696.9424,-3.5057445 L699.1479,-7.2565765 L701.3534,-12.262277 L703.5589,-18.422731 L705.7644,-25.614729 L707.9699,-33.69443 L710.1754,-42.500248 L712.381,-51.856056 L714.5865,-61.574745 L716.792,-71.46194 L718.9975,-81.319885 L721.203,-90.95144 L723.4085,-100.16396 L725.614,-108.77321 L727.8195,-116.606995 L730.0251,-123.50863 L732.2306,-129.3401 L734.4361,-133.98476 L736.6416,-137.34973 L738.8471,-139.3677 L741.0526,-139.99832 L743.2581,-139.22897 L745.4637,-137.07504 L747.6692,-133.57962 L749.8747,-128.81259 L752.0802,-122.869316 L754.2857,-115.86865 L756.4912,-107.95062 L758.6967,-99.27357 L760.9023,-90.01105 L763.1078,-80.348305 L765.3133,-70.4786 L767.5188,-60.599316 L769.7243,-50.908047 L771.9298,-41.598618 L774.1353,-32.857216 L776.3409,-24.858667 L778.5464,-17.762947 L780.7519,-11.711966 L782.9574,-6.8267446 L785.1629,-3.204988 L787.3684,-0.9191313 L789.5739,-0.014891384 L791.7794,-0.51035315 L793.985,-2.3956072 L796.1905,-5.632949 L798.396,-10.157631 L800.6015,-15.879159 L802.807,-22.683104 L805.0125,-30.433386 L807.218,-38.975002 L809.4236,-48.137115 L811.6291,-57.736485 L813.8346,-67.58112 L816.0401,-77.474144 L818.2456,-87.217674 L820.4511,-96.61686 L822.6566,-105.483696 L824.8622,-113.64087 L827.0677,-120.92522 L829.2732,-127.19106 L831.4787,-132.31308 L833.6842,-136.18884 L835.8897,-138.74083 L838.0952,-139.918 L840.3008,-139.69681 L842.5063,-138.08167 L844.7118,-135.1049 L846.9173,-130.82603 L849.1228,-125.33066 L851.3283,-118.72866 L853.5338,-111.152084 L855.7393,-102.75247 L857.9449,-93.69781 L860.1504,-84.16919 L862.3559,-74.35718 L864.5614,-64.45803 L866.7669,-54.66972 L868.9724,-45.188015 L871.1779,-36.20255 L873.3835,-27.89303 L875.589,-20.425652 L877.7945,-13.949759 L880,-8.59487" fill="none" stroke="blue" stroke-linejoin="round" stroke-width="2"/>
</g>
</g>
<g>
<g>
<line stroke="black" stroke-width="1" x1="0" x2="0" y1="0" y2="10"/>
<line stroke="black" stroke-width="1" x1="220.55137844611528" x2="220.55137844611528" y1="0" y2="10"/>
<line stroke="black" stroke-width="1" x1="441.10275689223056" x2="441.10275689223056" y1="0" y2="10"/>
<line stroke="black" stroke-width="1" x1="661.6541353383459" x2="661.6541353383459" y1="0" y2="10"/>
</g>
<line stroke="black" stroke-width="1" x1="0" x2="880" y1="0" y2="0"/>
<g>
<text font-size="12" text-anchor="middle" x="0" y="20">
0
</text>
<text font-size="12" text-anchor="middle" x="220.55137844611528" y="20">
100
</text>
<text font-size="12" text-anchor="middle" x="441.10275689223056" y="20">
200
</text>
<text font-size="12" text-anchor="middle" x="661.6541353383459" y="20">
300
</text>
</g>
<text font-size="12" text-anchor="middle" x="440" y="30">
x
</text>
</g>
<g>
<g>
<line stroke="black" stroke-width="1" x1="0" x2="-10" y1="-10.987196822810052" y2="-10.987196822810052"/>
<line stroke="black" stroke-width="1" x1="0" x2="-10" y1="-40.49358456554398" y2="-40.49358456554398"/>
<line stroke="black" stroke-width="1" x1="0" x2="-10" y1="-69.99997230827792" y2="-69.99997230827792"/>
<line stroke="black" stroke-width="1" x1="0" x2="-10" y1="-99.50636005101185" y2="-99.50636005101185"/>
<line stroke="black" stroke-width="1" x1="0" x2="-10" y1="-129.0127477937458" y2="-129.0127477937458"/>
</g>
<line stroke="black" stroke-width="1" x1="0" x2="0" y1="0" y2="-140"/>
<g>
<text dominant-baseline="middle" font-size="12" text-anchor="end" x="-15" y="-10.987196822810052">
-2
</text>
<text dominant-baseline="middle" font-size="12" text-anchor="end" x="-15" y="-40.49358456554398">
-1
</text>
<text dominant-baseline="middle" font-size="12" text-anchor="end" x="-15" y="-69.99997230827792">
0
</text>
<text dominant-baseline="middle" font-size="12" text-anchor="end" x="-15" y="-99.50636005101185">
1
</text>
<text dominant-baseline="middle" font-size="12" text-anchor="end" x="-15" y="-129.0127477937458">
2
</text>
</g>
<text font-size="12" text-anchor="middle" transform="rotate(-90 -24 -70)" x="-24" y="-82">
y
</text>
</g>
</g>
</svg>