<svg viewBox="0 0 1000 200" xmlns="http://www.w3.org/2000/svg">
<g transform="translate(72, 164)">
<g>
<g>
<path d="M0,-140 L0,-140 L1.4691151,-140 L2.9382303,-140 L4.407346,-140 L5.8764606,-140 L7.345576,-140 L8.814692,-140 L10.283807,-140 L11.752921,-140 L13.222036,-140 L14.691152,-140 L16.160267,-140 L17.629383,-140 L19.098497,-140 L20.567614,-140 L22.036728,-140 L23.505842,-140 L24.974958,-140 L26.444073,-140 L27.913189,-140 L29.382303,-140 L30.85142,-140 L32.320534,-140 L33.78965,-140 L35.258766,-140 L36.72788,-140 L38.196995,-140 L39.66611,-140 L41.135227,-140 L42.60434,-140 L44.073456,-140 L45.542572,-140 L47.011684,-140 L48.4808,-140 L49.949917,-140 L51.419033,-140 L52.888145,-140 L54.35726,-140 L55.826378,-140 L57.295494,-140 L58.764606,-140 L60.233723,-140 L61.70284,-140 L63.171955,-140 L64.64107,-140 L66.11018,-140 L67.5793,-140 L69.048416,-140 L70.51753,-140 L71.98664,-140 L73.45576,-140 L74.92487,-140 L76.39399,-140 L77.863106,-140 L79.33222,-140 L80.80134,-140 L82.270454,-140 L83.73956,-140 L85.20868,-140 L86.677795,-140 L88.14691,-140 L89.61603,-140 L91.085144,-140 L92.55426,-140 L94.02337,-140 L95.492485,-140 L96.9616,-140 L98.43072,-140 L99.89983,-140 L101.36895,-140 L102.838066,-140 L104.30718,-140 L105.77629,-140 L107.24541,-140 L108.71452,-140 L110.18364,-140 L111.652756,-140 L113.12187,-140 L114.59099,-140 L116.0601,-140 L117.52921,-140 L118.99833,-140 L120.467445,-140 L121.93656,-140 L123.40568,-140 L124.874794,-140 L126.34391,-140 L127.81302,-140 L129.28214,-140 L130.75125,-140 L132.22037,-140 L133.68948,-140 L135.1586,-140 L136.62772,-140 L138.09683,-140 L139.56595,-140 L141.03506,-140 L142.50418,-140 L143.97328,-140 L145.4424,-140 L146.91151,-140 L148.38063,-140 L149.84975,-140 L151.31886,-140 L152.78798,-140 L154.2571,-140 L155.72621,-140 L157.19533,-140 L158.66444,-140 L160.13356,-140 L161.60268,-140 L163.0718,-140 L164.54091,-140 L166.01001,-140 L167.47913,-140 L168.94824,-140 L170.41736,-140 L171.88647,-140 L173.35559,-140 L174.8247,-140 L176.29382,-140 L177.76294,-140 L179.23206,-140 L180.70117,-140 L182.17029,-140 L183.6394,-140 L185.10852,-140 L186.57764,-140 L188.04674,-140 L189.51585,-140 L190.98497,-140 L192.45409,-140 L193.9232,-140 L195.39232,-140 L196.86143,-140 L198.33055,-140 L199.79967,-140 L201.26878,-140 L202.7379,-140 L204.20702,-140 L205.67613,-140 L207.14525,-140 L208.61436,-140 L210.08347,-140 L211.55258,-140 L213.0217,-140 L214.49081,-140 L215.95993,-140 L217.42905,-140 L218.89816,-140 L220.36728,-140 L221.8364,-140 L223.30551,-140 L224.77463,-140 L226.24374,-140 L227.71286,-140 L229.18198,-140 L230.6511,-140 L232.1202,-140 L233.58931,-140 L235.05843,-140 L236.52754,-140 L237.99666,-140 L239.46577,-140 L240.93489,-140 L242.404,-140 L243.87312,-140 L245.34224,-140 L246.81136,-140 L248.28047,-140 L249.74959,-140 L251.2187,-140 L252.68782,-140 L254.15692,-140 L255.62604,-140 L257.09515,-140 L258.56427,-140 L260.0334,-140 L261.5025,-140 L262.97162,-140 L264.44073,-140 L265.90985,-140 L267.37897,-140 L268.84808,-140 L270.3172,-140 L271.78632,-140 L273.25543,-140 L274.72455,-140 L276.19366,-140 L277.66278,-140 L279.1319,-140 L280.601,-140 L282.07013,-140 L283.53925,-140 L285.00836,-140 L286.47745,-140 L287.94656,-140 L289.41568,-140 L290.8848,-140 L292.3539,-140 L293.82303,-140 L295.29214,-140 L296.76126,-140 L298.23038,-140 L299.6995,-140 L301.1686,-140 L302.63773,-140 L304.10684,-140 L305.57596,-140 L307.04507,-140 L308.5142,-140 L309.9833,-140 L311.45242,-140 L312.92154,-140 L314.39066,-140 L315.85977,-140 L317.3289,-140 L318.798,-140 L320.26712,-140 L321.73624,-140 L323.20535,-140 L324.67447,-140 L326.1436,-140 L327.6127,-140 L329.08182,-140 L330.5509,-140 L332.02002,-140 L333.48914,-140 L334.95825,-140 L336.42737,-140 L337.89648,-140 L339.3656,-140 L340.83472,-140 L342.30383,-140 L343.77295,-140 L345.24207,-140 L346.71118,-140 L348.1803,-140 L349.6494,-140 L351.11853,-140 L352.58765,-140 L354.05676,-140 L355.52588,-140 L356.995,-140 L358.4641,-140 L359.93323,-140 L361.40234,-140 L362.87146,-140 L364.34058,-140 L365.8097,-140 L367.2788,-140 L368.74792,-140 L370.21704,-140 L371.68616,-140 L373.15527,-140 L374.62436,-140 L376.09348,-140 L377.5626,-140 L379.0317,-140 L380.50082,-140 L381.96994,-140 L383.43906,-140 L384.90817,-140 L386.3773,-140 L387.8464,-140 L389.31552,-140 L390.78464,-140 L392.25375,-140 L393.72287,-140 L395.192,-140 L396.6611,-140 L398.13022,-140 L399.59933,-140 L401.06845,-140 L402.53757,-140 L404.00668,-140 L405.4758,-140 L406.94492,-140 L408.41403,-140 L409.88315,-140 L411.35226,-140 L412.82138,-140 L414.2905,-140 L415.7596,-140 L417.22873,-140 L418.6978,-140 L420.16693,-140 L421.63605,-140 L423.10516,-140 L424.57428,-140 L426.0434,-140 L427.5125,-140 L428.98163,-140 L430.45074,-140 L431.91986,-140 L433.38898,-140 L434.8581,-140 L436.3272,-140 L437.79633,-140 L439.26544,-140 L440.73456,-140 L442.20367,-140 L443.6728,-140 L445.1419,-140 L446.61102,-140 L448.08014,-140 L449.54926,-140 L451.01837,-140 L452.4875,-140 L453.9566,-140 L455.42572,-140 L456.89484,-140 L458.36395,-140 L459.83307,-140 L461.3022,-140 L462.77127,-140 L464.2404,-140 L465.7095,-140 L467.17862,-140 L468.64774,-140 L470.11685,-140 L471.58597,-140 L473.05508,-140 L474.5242,-140 L475.99332,-140 L477.46243,-140 L478.93155,-140 L480.40067,-140 L481.86978,-140 L483.3389,-140 L484.808,-140 L486.27713,-140 L487.74625,-140 L489.21536,-140 L490.68448,-140 L492.1536,-140 L493.6227,-140 L495.09183,-140 L496.56094,-140 L498.03006,-140 L499.49918,-140 L500.9683,-140 L502.4374,-140 L503.90652,-140 L505.37564,-140 L506.84473,-140 L508.31384,-140 L509.78296,-140 L511.25208,-140 L512.7212,-140 L514.1903,-140 L515.6594,-140 L517.12854,-140 L518.59766,-140 L520.0668,-140 L521.5359,-140 L523.005,-140 L524.4741,-140 L525.94324,-140 L527.41235,-140 L528.8815,-140 L530.3506,-140 L531.8197,-140 L533.2888,-140 L534.75793,-140 L536.22705,-140 L537.69617,-140 L539.1653,-140 L540.6344,-140 L542.1035,-140 L543.57263,-140 L545.04175,-140 L546.51086,-140 L547.98,-140 L549.4491,-140 L550.9182,-140 L552.3873,-140 L553.85645,-140 L555.32556,-140 L556.7947,-140 L558.2638,-140 L559.7329,-140 L561.202,-140 L562.67114,-140 L564.14026,-140 L565.6094,-140 L567.0785,-140 L568.5476,-140 L570.0167,-140 L571.48584,-140 L572.9549,-140 L574.424,-140 L575.8931,-140 L577.36224,-140 L578.83136,-140 L580.3005,-140 L581.7696,-140 L583.2387,-140 L584.7078,-140 L586.17694,-140 L587.64606,-140 L589.1152,-140 L590.5843,-140 L592.0534,-140 L593.5225,-140 L594.99164,-140 L596.46075,-140 L597.9299,-140 L599.399,-140 L600.8681,-140 L602.3372,-140 L603.80634,-140 L605.27545,-140 L606.74457,-140 L608.2137,-140 L609.6828,-140 L611.1519,-139.99998 L612.62103,-139.99998 L614.09015,-139.99998 L615.55927,-139.99998 L617.0284,-139.99998 L618.4975,-139.99998 L619.9666,-139.99998 L621.4357,-139.99998 L622.90485,-139.99998 L624.37396,-139.99998 L625.8431,-139.99998 L627.3122,-139.99998 L628.7813,-139.99998 L630.2504,-139.99998 L631.71954,-139.99998 L633.18866,-139.99998 L634.6578,-139.99997 L636.1269,-139.99997 L637.596,-139.99997 L639.0651,-139.99995 L640.53424,-139.99995 L642.00336,-139.99994 L643.4725,-139.99994 L644.9416,-139.99992 L646.4107,-139.99992 L647.8798,-139.99991 L649.34894,-139.9999 L650.81805,-139.9999 L652.2872,-139.99988 L653.7563,-139.99986 L655.2254,-139.99985 L656.6945,-139.99985 L658.16364,-139.99983 L659.63275,-139.99983 L661.1018,-139.99982 L662.5709,-139.99982 L664.04004,-139.9998 L665.50916,-139.9998 L666.9783,-139.9998 L668.4474,-139.9998 L669.9165,-139.99979 L671.3856,-139.99979 L672.85474,-139.99979 L674.32385,-139.99977 L675.79297,-139.99976 L677.2621,-139.99974 L678.7312,-139.99971 L680.2003,-139.99966 L681.66943,-139.99962 L683.13855,-139.99956 L684.60767,-139.9995 L686.0768,-139.9994 L687.5459,-139.9993 L689.015,-139.99918 L690.48413,-139.99904 L691.95325,-139.99889 L693.42236,-139.9987 L694.8915,-139.9985 L696.3606,-139.99829 L697.8297,-139.99808 L699.2988,-139.99783 L700.76794,-139.99759 L702.23706,-139.99733 L703.7062,-139.99709 L705.1753,-139.99683 L706.6444,-139.99658 L708.1135,-139.99635 L709.58264,-139.99614 L711.05176,-139.99596 L712.5209,-139.99579 L713.99,-139.99564 L715.4591,-139.9955 L716.9282,-139.99539 L718.39734,-139.9953 L719.86646,-139.99521 L721.3356,-139.9951 L722.8047,-139.99498 L724.2738,-139.99481 L725.7429,-139.99457 L727.21204,-139.99423 L728.68115,-139.99376 L730.15027,-139.99312 L731.6194,-139.99228 L733.0885,-139.9912 L734.5576,-139.98984 L736.02673,-139.98816 L737.49585,-139.98613 L738.96497,-139.98372 L740.4341,-139.9809 L741.9032,-139.97763 L743.3723,-139.97394 L744.84143,-139.96979 L746.31055,-139.96524 L747.77966,-139.96028 L749.2487,-139.95497 L750.71783,-139.94939 L752.18695,-139.94356 L753.65607,-139.93762 L755.1252,-139.93163 L756.5943,-139.92572 L758.0634,-139.91997 L759.53253,-139.91452 L761.00165,-139.90944 L762.47076,-139.90483 L763.9399,-139.90073 L765.409,-139.89717 L766.8781,-139.89415 L768.3472,-139.89157 L769.81635,-139.8893 L771.28546,-139.88713 L772.7546,-139.88477 L774.2237,-139.88184 L775.6928,-139.87787 L777.1619,-139.8723 L778.63104,-139.86447 L780.10016,-139.85365 L781.5693,-139.83902 L783.0384,-139.8197 L784.5075,-139.79478 L785.9766,-139.76334 L787.44574,-139.72447 L788.91486,-139.6773 L790.384,-139.62108 L791.8531,-139.55519 L793.3222,-139.47914 L794.7913,-139.39273 L796.26044,-139.29596 L797.72955,-139.18916 L799.19867,-139.073 L800.6678,-138.94846 L802.1369,-138.81688 L803.606,-138.67995 L805.07513,-138.53969 L806.54425,-138.39836 L808.01337,-138.25844 L809.4825,-138.12244 L810.9516,-137.9929 L812.4207,-137.87216 L813.88983,-137.76218 L815.35895,-137.66438 L816.82806,-137.57938 L818.2972,-137.50679 L819.7663,-137.44502 L821.2354,-137.39095 L822.7045,-137.33978 L824.17365,-137.2848 L825.64276,-137.21729 L827.1119,-137.12631 L828.581,-136.99878 L830.0501,-136.8194 L831.5192,-136.57089 L832.98834,-136.23418 L834.45746,-135.78873 L835.9266,-135.21304 L837.3956,-134.48529 L838.86475,-133.58391 L840.33386,-132.48857 L841.803,-131.18097 L843.2721,-129.64589 L844.7412,-127.87215 L846.2103,-125.85372 L847.67944,-123.59064 L849.14856,-121.089874 L850.6177,-118.366066 L852.0868,-115.441986 L853.5559,-112.34873 L855.025,-109.12552 L856.49414,-105.819046 L857.96326,-102.48239 L859.4324,-99.1733 L860.9015,-95.95193 L862.3706,-92.87791 L863.8397,-90.00685 L865.30884,-87.386215 L866.77795,-85.05067 L868.2471,-83.01696 L869.7162,-81.278534 L871.1853,-79.7999 L872.6544,-78.51114 L874.12354,-77.302635 L875.59265,-76.02041 L877.06177,-74.46229 L878.5309,-72.37531 L880,-69.45459" fill="none" stroke="black" stroke-linejoin="round" stroke-width="2"/>
</g>
</g>
<g>
<g>
<path d="M0,-140 L0,-140 L1.4691151,-140 L2.9382303,-140 L4.407346,-140 L5.8764606,-140 L7.345576,-140 L8.814692,-140 L10.283807,-140 L11.752921,-140 L13.222036,-140 L14.691152,-140 L16.160267,-140 L17.629383,-140 L19.098497,-140 L20.567614,-140 L22.036728,-140 L23.505842,-140 L24.974958,-140 L26.444073,-140 L27.913189,-140 L29.382303,-140 L30.85142,-140 L32.320534,-140 L33.78965,-140 L35.258766,-140 L36.72788,-140 L38.196995,-140 L39.66611,-140 L41.135227,-140 L42.60434,-140 L44.073456,-140 L45.542572,-140 L47.011684,-140 L48.4808,-140 L49.949917,-140 L51.419033,-140 L52.888145,-140 L54.35726,-140 L55.826378,-140 L57.295494,-140 L58.764606,-140 L60.233723,-140 L61.70284,-140 L63.171955,-140 L64.64107,-140 L66.11018,-140 L67.5793,-140 L69.048416,-140 L70.51753,-140 L71.98664,-140 L73.45576,-140 L74.92487,-140 L76.39399,-140 L77.863106,-140 L79.33222,-140 L80.80134,-140 L82.270454,-140 L83.73956,-140 L85.20868,-140 L86.677795,-140 L88.14691,-140 L89.61603,-140 L91.085144,-140 L92.55426,-140 L94.02337,-140 L95.492485,-140 L96.9616,-140 L98.43072,-140 L99.89983,-140 L101.36895,-140 L102.838066,-140 L104.30718,-140 L105.77629,-140 L107.24541,-140 L108.71452,-140 L110.18364,-140 L111.652756,-140 L113.12187,-140 L114.59099,-140 L116.0601,-140 L117.52921,-140 L118.99833,-140 L120.467445,-140 L121.93656,-140 L123.40568,-140 L124.874794,-140 L126.34391,-140 L127.81302,-140 L129.28214,-140 L130.75125,-140 L132.22037,-140 L133.68948,-140 L135.1586,-140 L136.62772,-140 L138.09683,-140 L139.56595,-140 L141.03506,-140 L142.50418,-140 L143.97328,-140 L145.4424,-140 L146.91151,-140 L148.38063,-140 L149.84975,-140 L151.31886,-140 L152.78798,-140 L154.2571,-140 L155.72621,-140 L157.19533,-140 L158.66444,-140 L160.13356,-140 L161.60268,-140 L163.0718,-140 L164.54091,-140 L166.01001,-140 L167.47913,-140 L168.94824,-140 L170.41736,-140 L171.88647,-140 L173.35559,-140 L174.8247,-140 L176.29382,-140 L177.76294,-140 L179.23206,-140 L180.70117,-140 L182.17029,-140 L183.6394,-140 L185.10852,-140 L186.57764,-140 L188.04674,-140 L189.51585,-140 L190.98497,-140 L192.45409,-140 L193.9232,-140 L195.39232,-140 L196.86143,-140 L198.33055,-140 L199.79967,-140 L201.26878,-140 L202.7379,-140 L204.20702,-140 L205.67613,-140 L207.14525,-140 L208.61436,-140 L210.08347,-140 L211.55258,-140 L213.0217,-140 L214.49081,-140 L215.95993,-140 L217.42905,-140 L218.89816,-140 L220.36728,-140 L221.8364,-140 L223.30551,-140 L224.77463,-140 L226.24374,-140 L227.71286,-140 L229.18198,-140 L230.6511,-140 L232.1202,-140 L233.58931,-140 L235.05843,-140 L236.52754,-140 L237.99666,-140 L239.46577,-140 L240.93489,-140 L242.404,-140 L243.87312,-140 L245.34224,-140 L246.81136,-140 L248.28047,-140 L249.74959,-140 L251.2187,-140 L252.68782,-140 L254.15692,-140 L255.62604,-140 L257.09515,-140 L258.56427,-140 L260.0334,-140 L261.5025,-140 L262.97162,-140 L264.44073,-140 L265.90985,-140 L267.37897,-140 L268.84808,-140 L270.3172,-140 L271.78632,-140 L273.25543,-140 L274.72455,-140 L276.19366,-140 L277.66278,-140 L279.1319,-140 L280.601,-140 L282.07013,-140 L283.53925,-140 L285.00836,-140 L286.47745,-140 L287.94656,-140 L289.41568,-140 L290.8848,-140 L292.3539,-140 L293.82303,-140 L295.29214,-140 L296.76126,-140 L298.23038,-140 L299.6995,-140 L301.1686,-140 L302.63773,-140 L304.10684,-140 L305.57596,-140 L307.04507,-140 L308.5142,-140 L309.9833,-140 L311.45242,-140 L312.92154,-140 L314.39066,-140 L315.85977,-140 L317.3289,-140 L318.798,-140 L320.26712,-140 L321.73624,-140 L323.20535,-140 L324.67447,-140 L326.1436,-140 L327.6127,-140 L329.08182,-140 L330.5509,-140 L332.02002,-140 L333.48914,-140 L334.95825,-140 L336.42737,-140 L337.89648,-140 L339.3656,-140 L340.83472,-140 L342.30383,-140 L343.77295,-140 L345.24207,-140 L346.71118,-140 L348.1803,-140 L349.6494,-140 L351.11853,-140 L352.58765,-140 L354.05676,-140 L355.52588,-140 L356.995,-140 L358.4641,-140 L359.93323,-140 L361.40234,-140 L362.87146,-140 L364.34058,-140 L365.8097,-140 L367.2788,-140 L368.74792,-140 L370.21704,-140 L371.68616,-140 L373.15527,-140 L374.62436,-140 L376.09348,-140 L377.5626,-140 L379.0317,-140 L380.50082,-140 L381.96994,-140 L383.43906,-140 L384.90817,-140 L386.3773,-140 L387.8464,-140 L389.31552,-140 L390.78464,-140 L392.25375,-140 L393.72287,-140 L395.192,-140 L396.6611,-140 L398.13022,-140 L399.59933,-140 L401.06845,-140 L402.53757,-140 L404.00668,-140 L405.4758,-140 L406.94492,-140 L408.41403,-140 L409.88315,-140 L411.35226,-140 L412.82138,-140 L414.2905,-140 L415.7596,-140 L417.22873,-140 L418.6978,-140 L420.16693,-140 L421.63605,-140 L423.10516,-140 L424.57428,-140 L426.0434,-140 L427.5125,-140 L428.98163,-140 L430.45074,-140 L431.91986,-140 L433.38898,-140 L434.8581,-140 L436.3272,-140 L437.79633,-140 L439.26544,-140 L440.73456,-140 L442.20367,-140 L443.6728,-140 L445.1419,-140 L446.61102,-140 L448.08014,-140 L449.54926,-140 L451.01837,-140 L452.4875,-140 L453.9566,-140 L455.42572,-140 L456.89484,-140 L458.36395,-140 L459.83307,-140 L461.3022,-140 L462.77127,-140 L464.2404,-140 L465.7095,-140 L467.17862,-140 L468.64774,-140 L470.11685,-140 L471.58597,-140 L473.05508,-140 L474.5242,-140 L475.99332,-140 L477.46243,-140 L478.93155,-140 L480.40067,-140 L481.86978,-140 L483.3389,-140 L484.808,-140 L486.27713,-140 L487.74625,-140 L489.21536,-140 L490.68448,-140 L492.1536,-140 L493.6227,-140 L495.09183,-140 L496.56094,-140 L498.03006,-140 L499.49918,-140 L500.9683,-140 L502.4374,-140 L503.90652,-140 L505.37564,-140 L506.84473,-140 L508.31384,-140 L509.78296,-140 L511.25208,-140 L512.7212,-140 L514.1903,-140 L515.6594,-140 L517.12854,-140 L518.59766,-140 L520.0668,-140 L521.5359,-140 L523.005,-140 L524.4741,-140 L525.94324,-140 L527.41235,-140 L528.8815,-140 L530.3506,-140 L531.8197,-140 L533.2888,-140 L534.75793,-140 L536.22705,-140 L537.69617,-140 L539.1653,-140 L540.6344,-140 L542.1035,-140 L543.57263,-140 L545.04175,-140 L546.51086,-140 L547.98,-140 L549.4491,-140 L550.9182,-140 L552.3873,-140 L553.85645,-140 L555.32556,-140 L556.7947,-140 L558.2638,-140 L559.7329,-140 L561.202,-140 L562.67114,-140 L564.14026,-140 L565.6094,-140 L567.0785,-140 L568.5476,-140 L570.0167,-140 L571.48584,-140 L572.9549,-140 L574.424,-140 L575.8931,-140 L577.36224,-140 L578.83136,-140 L580.3005,-140 L581.7696,-140 L583.2387,-140 L584.7078,-140 L586.17694,-140 L587.64606,-140 L589.1152,-140 L590.5843,-140 L592.0534,-140 L593.5225,-140 L594.99164,-140 L596.46075,-140 L597.9299,-140 L599.399,-140 L600.8681,-140 L602.3372,-140 L603.80634,-140 L605.27545,-140 L606.74457,-140 L608.2137,-140 L609.6828,-139.99998 L611.1519,-139.99998 L612.62103,-139.99998 L614.09015,-139.99998 L615.55927,-139.99998 L617.0284,-139.99998 L618.4975,-139.99998 L619.9666,-139.99998 L621.4357,-139.99998 L622.90485,-139.99998 L624.37396,-139.99998 L625.8431,-139.99998 L627.3122,-139.99998 L628.7813,-139.99997 L630.2504,-139.99997 L631.71954,-139.99997 L633.18866,-139.99997 L634.6578,-139.99997 L636.1269,-139.99997 L637.596,-139.99997 L639.0651,-139.99997 L640.53424,-139.99997 L642.00336,-139.99997 L643.4725,-139.99997 L644.9416,-139.99995 L646.4107,-139.99995 L647.8798,-139.99995 L649.34894,-139.99994 L650.81805,-139.99994 L652.2872,-139.99992 L653.7563,-139.99991 L655.2254,-139.9999 L656.6945,-139.99988 L658.16364,-139.99985 L659.63275,-139.99983 L661.1018,-139.9998 L662.5709,-139.99977 L664.04004,-139.99976 L665.50916,-139.99973 L666.9783,-139.9997 L668.4474,-139.99966 L669.9165,-139.99963 L671.3856,-139.9996 L672.85474,-139.99957 L674.32385,-139.99954 L675.79297,-139.99951 L677.2621,-139.9995 L678.7312,-139.99947 L680.2003,-139.99945 L681.66943,-139.99944 L683.13855,-139.99942 L684.60767,-139.9994 L686.0768,-139.9994 L687.5459,-139.99939 L689.015,-139.99936 L690.48413,-139.99934 L691.95325,-139.9993 L693.42236,-139.99925 L694.8915,-139.99918 L696.3606,-139.99908 L697.8297,-139.99898 L699.2988,-139.99883 L700.76794,-139.99864 L702.23706,-139.99841 L703.7062,-139.99814 L705.1753,-139.99782 L706.6444,-139.99745 L708.1135,-139.99702 L709.58264,-139.99655 L711.05176,-139.99602 L712.5209,-139.99544 L713.99,-139.99481 L715.4591,-139.99414 L716.9282,-139.99345 L718.39734,-139.99272 L719.86646,-139.99199 L721.3356,-139.99126 L722.8047,-139.99054 L724.2738,-139.98985 L725.7429,-139.9892 L727.21204,-139.98859 L728.68115,-139.98804 L730.15027,-139.98755 L731.6194,-139.98712 L733.0885,-139.98676 L734.5576,-139.98643 L736.02673,-139.98615 L737.49585,-139.98584 L738.96497,-139.98549 L740.4341,-139.98505 L741.9032,-139.98444 L743.3723,-139.9836 L744.84143,-139.98244 L746.31055,-139.98087 L747.77966,-139.97878 L749.2487,-139.97607 L750.71783,-139.97263 L752.18695,-139.96834 L753.65607,-139.96309 L755.1252,-139.9568 L756.5943,-139.94936 L758.0634,-139.94072 L759.53253,-139.93082 L761.00165,-139.91965 L762.47076,-139.90724 L763.9399,-139.89363 L765.409,-139.87892 L766.8781,-139.86327 L768.3472,-139.84682 L769.81635,-139.82982 L771.28546,-139.81252 L772.7546,-139.7952 L774.2237,-139.77817 L775.6928,-139.76172 L777.1619,-139.74614 L778.63104,-139.73172 L780.10016,-139.71863 L781.5693,-139.70702 L783.0384,-139.6969 L784.5075,-139.68814 L785.9766,-139.68048 L787.44574,-139.67343 L788.91486,-139.66632 L790.384,-139.6582 L791.8531,-139.6479 L793.3222,-139.63396 L794.7913,-139.61467 L796.26044,-139.58806 L797.72955,-139.55194 L799.19867,-139.50389 L800.6678,-139.44138 L802.1369,-139.36174 L803.606,-139.26236 L805.07513,-139.14066 L806.54425,-138.99428 L808.01337,-138.82114 L809.4825,-138.6196 L810.9516,-138.38857 L812.4207,-138.12761 L813.88983,-137.8371 L815.35895,-137.51826 L816.82806,-137.17328 L818.2972,-136.80533 L819.7663,-136.41861 L821.2354,-136.01822 L822.7045,-135.61012 L824.17365,-135.20097 L825.64276,-134.79785 L827.1119,-134.40797 L828.581,-134.03827 L830.0501,-133.69499 L831.5192,-133.38313 L832.98834,-133.10582 L834.45746,-132.86374 L835.9266,-132.65445 L837.3956,-132.47168 L838.86475,-132.30466 L840.33386,-132.1376 L841.803,-131.94907 L843.2721,-131.71167 L844.7412,-131.39174 L846.2103,-130.94937 L847.67944,-130.3386 L849.14856,-129.50789 L850.6177,-128.4009 L852.0868,-126.95768 L853.5559,-125.11607 L855.025,-122.813576 L856.49414,-119.98946 L857.96326,-116.58724 L859.4324,-112.557335 L860.9015,-107.85993 L862.3706,-102.46791 L863.8397,-96.3697 L865.30884,-89.57198 L866.77795,-82.102005 L868.2471,-74.00934 L869.7162,-65.366974 L871.1853,-56.27142 L872.6544,-46.8417 L874.12354,-37.21704 L875.59265,-27.553032 L877.06177,-18.016209 L878.5309,-8.77684 L880,0" fill="none" stroke="black" stroke-linejoin="round" stroke-width="2"/>
</g>
</g>
<g>
<g>
<path d="M0,-140 L0,-140 L1.4691151,-140 L2.9382303,-140 L4.407346,-140 L5.8764606,-140 L7.345576,-140 L8.814692,-140 L10.283807,-140 L11.752921,-140 L13.222036,-140 L14.691152,-140 L16.160267,-140 L17.629383,-140 L19.098497,-140 L20.567614,-140 L22.036728,-140 L23.505842,-140 L24.974958,-140 L26.444073,-140 L27.913189,-140 L29.382303,-140 L30.85142,-140 L32.320534,-140 L33.78965,-140 L35.258766,-140 L36.72788,-140 L38.196995,-140 L39.66611,-140 L41.135227,-140 L42.60434,-140 L44.073456,-140 L45.542572,-140 L47.011684,-140 L48.4808,-140 L49.949917,-140 L51.419033,-140 L52.888145,-140 L54.35726,-140 L55.826378,-140 L57.295494,-140 L58.764606,-140 L60.233723,-140 L61.70284,-140 L63.171955,-140 L64.64107,-140 L66.11018,-140 L67.5793,-140 L69.048416,-140 L70.51753,-140 L71.98664,-140 L73.45576,-140 L74.92487,-140 L76.39399,-140 L77.863106,-140 L79.33222,-140 L80.80134,-140 L82.270454,-140 L83.73956,-140 L85.20868,-140 L86.677795,-140 L88.14691,-140 L89.61603,-140 L91.085144,-140 L92.55426,-140 L94.02337,-140 L95.492485,-140 L96.9616,-140 L98.43072,-140 L99.89983,-140 L101.36895,-140 L102.838066,-140 L104.30718,-140 L105.77629,-140 L107.24541,-140 L108.71452,-140 L110.18364,-140 L111.652756,-140 L113.12187,-140 L114.59099,-140 L116.0601,-140 L117.52921,-140 L118.99833,-140 L120.467445,-140 L121.93656,-140 L123.40568,-140 L124.874794,-140 L126.34391,-140 L127.81302,-140 L129.28214,-140 L130.75125,-140 L132.22037,-140 L133.68948,-140 L135.1586,-140 L136.62772,-140 L138.09683,-140 L139.56595,-140 L141.03506,-140 L142.50418,-140 L143.97328,-140 L145.4424,-140 L146.91151,-140 L148.38063,-140 L149.84975,-140 L151.31886,-140 L152.78798,-140 L154.2571,-140 L155.72621,-140 L157.19533,-140 L158.66444,-140 L160.13356,-140 L161.60268,-140 L163.0718,-140 L164.54091,-140 L166.01001,-140 L167.47913,-140 L168.94824,-140 L170.41736,-140 L171.88647,-140 L173.35559,-140 L174.8247,-140 L176.29382,-140 L177.76294,-140 L179.23206,-140 L180.70117,-140 L182.17029,-140 L183.6394,-140 L185.10852,-140 L186.57764,-140 L188.04674,-140 L189.51585,-140 L190.98497,-140 L192.45409,-140 L193.9232,-140 L195.39232,-140 L196.86143,-140 L198.33055,-140 L199.79967,-140 L201.26878,-140 L202.7379,-140 L204.20702,-140 L205.67613,-140 L207.14525,-140 L208.61436,-140 L210.08347,-140 L211.55258,-140 L213.0217,-140 L214.49081,-140 L215.95993,-140 L217.42905,-140 L218.89816,-140 L220.36728,-140 L221.8364,-140 L223.30551,-140 L224.77463,-140 L226.24374,-140 L227.71286,-140 L229.18198,-140 L230.6511,-140 L232.1202,-140 L233.58931,-140 L235.05843,-140 L236.52754,-140 L237.99666,-140 L239.46577,-140 L240.93489,-140 L242.404,-140 L243.87312,-140 L245.34224,-140 L246.81136,-140 L248.28047,-140 L249.74959,-140 L251.2187,-140 L252.68782,-140 L254.15692,-140 L255.62604,-140 L257.09515,-140 L258.56427,-140 L260.0334,-140 L261.5025,-140 L262.97162,-140 L264.44073,-140 L265.90985,-140 L267.37897,-140 L268.84808,-140 L270.3172,-140 L271.78632,-140 L273.25543,-140 L274.72455,-140 L276.19366,-140 L277.66278,-140 L279.1319,-140 L280.601,-140 L282.07013,-140 L283.53925,-140 L285.00836,-140 L286.47745,-140 L287.94656,-140 L289.41568,-140 L290.8848,-140 L292.3539,-140 L293.82303,-140 L295.29214,-140 L296.76126,-140 L298.23038,-140 L299.6995,-140 L301.1686,-140 L302.63773,-140 L304.10684,-140 L305.57596,-140 L307.04507,-140 L308.5142,-140 L309.9833,-140 L311.45242,-140 L312.92154,-140 L314.39066,-140 L315.85977,-140 L317.3289,-140 L318.798,-140 L320.26712,-140 L321.73624,-140 L323.20535,-140 L324.67447,-140 L326.1436,-140 L327.6127,-140 L329.08182,-140 L330.5509,-140 L332.02002,-140 L333.48914,-140 L334.95825,-140 L336.42737,-140 L337.89648,-140 L339.3656,-140 L340.83472,-140 L342.30383,-140 L343.77295,-140 L345.24207,-140 L346.71118,-140 L348.1803,-140 L349.6494,-140 L351.11853,-140 L352.58765,-140 L354.05676,-140 L355.52588,-140 L356.995,-140 L358.4641,-140 L359.93323,-140 L361.40234,-140 L362.87146,-140 L364.34058,-140 L365.8097,-140 L367.2788,-140 L368.74792,-140 L370.21704,-140 L371.68616,-140 L373.15527,-140 L374.62436,-140 L376.09348,-140 L377.5626,-140 L379.0317,-140 L380.50082,-140 L381.96994,-140 L383.43906,-140 L384.90817,-140 L386.3773,-140 L387.8464,-140 L389.31552,-140 L390.78464,-140 L392.25375,-140 L393.72287,-140 L395.192,-140 L396.6611,-140 L398.13022,-140 L399.59933,-140 L401.06845,-140 L402.53757,-140 L404.00668,-140 L405.4758,-140 L406.94492,-140 L408.41403,-140 L409.88315,-140 L411.35226,-140 L412.82138,-140 L414.2905,-140 L415.7596,-140 L417.22873,-140 L418.6978,-140 L420.16693,-140 L421.63605,-140 L423.10516,-140 L424.57428,-140 L426.0434,-140 L427.5125,-140 L428.98163,-140 L430.45074,-140 L431.91986,-140 L433.38898,-140 L434.8581,-140 L436.3272,-140 L437.79633,-140 L439.26544,-140 L440.73456,-140 L442.20367,-140 L443.6728,-140 L445.1419,-140 L446.61102,-140 L448.08014,-140 L449.54926,-140 L451.01837,-140 L452.4875,-140 L453.9566,-140 L455.42572,-140 L456.89484,-140 L458.36395,-140 L459.83307,-140 L461.3022,-140 L462.77127,-140 L464.2404,-140 L465.7095,-140 L467.17862,-140 L468.64774,-140 L470.11685,-140 L471.58597,-140 L473.05508,-140 L474.5242,-140 L475.99332,-140 L477.46243,-140 L478.93155,-140 L480.40067,-140 L481.86978,-140 L483.3389,-140 L484.808,-140 L486.27713,-140 L487.74625,-140 L489.21536,-140 L490.68448,-140 L492.1536,-140 L493.6227,-140 L495.09183,-140 L496.56094,-140 L498.03006,-140 L499.49918,-140 L500.9683,-140 L502.4374,-140 L503.90652,-140 L505.37564,-140 L506.84473,-140 L508.31384,-140 L509.78296,-140 L511.25208,-140 L512.7212,-140 L514.1903,-140 L515.6594,-140 L517.12854,-140 L518.59766,-140 L520.0668,-140 L521.5359,-140 L523.005,-140 L524.4741,-140 L525.94324,-140 L527.41235,-140 L528.8815,-140 L530.3506,-140 L531.8197,-140 L533.2888,-140 L534.75793,-140 L536.22705,-140 L537.69617,-140 L539.1653,-140 L540.6344,-140 L542.1035,-140 L543.57263,-140 L545.04175,-140 L546.51086,-140 L547.98,-140 L549.4491,-140 L550.9182,-140 L552.3873,-140 L553.85645,-140 L555.32556,-140 L556.7947,-140 L558.2638,-140 L559.7329,-140 L561.202,-140 L562.67114,-140 L564.14026,-140 L565.6094,-140 L567.0785,-140 L568.5476,-140 L570.0167,-140 L571.48584,-140 L572.9549,-140 L574.424,-140 L575.8931,-140 L577.36224,-140 L578.83136,-140 L580.3005,-140 L581.7696,-140 L583.2387,-140 L584.7078,-140 L586.17694,-140 L587.64606,-140 L589.1152,-140 L590.5843,-140 L592.0534,-140 L593.5225,-140 L594.99164,-140 L596.46075,-140 L597.9299,-140 L599.399,-140 L600.8681,-140 L602.3372,-140 L603.80634,-140 L605.27545,-140 L606.74457,-140 L608.2137,-140 L609.6828,-140 L611.1519,-140 L612.62103,-140 L614.09015,-140 L615.55927,-140 L617.0284,-139.99998 L618.4975,-139.99998 L619.9666,-139.99998 L621.4357,-139.99998 L622.90485,-139.99998 L624.37396,-139.99998 L625.8431,-139.99998 L627.3122,-139.99997 L628.7813,-139.99997 L630.2504,-139.99997 L631.71954,-139.99997 L633.18866,-139.99995 L634.6578,-139.99995 L636.1269,-139.99995 L637.596,-139.99995 L639.0651,-139.99994 L640.53424,-139.99994 L642.00336,-139.99994 L643.4725,-139.99994 L644.9416,-139.99994 L646.4107,-139.99994 L647.8798,-139.99992 L649.34894,-139.99992 L650.81805,-139.99992 L652.2872,-139.99992 L653.7563,-139.99992 L655.2254,-139.99992 L656.6945,-139.99992 L658.16364,-139.99991 L659.63275,-139.99991 L661.1018,-139.9999 L662.5709,-139.99988 L664.04004,-139.99986 L665.50916,-139.99985 L666.9783,-139.99983 L668.4474,-139.9998 L669.9165,-139.99976 L671.3856,-139.99973 L672.85474,-139.99968 L674.32385,-139.99962 L675.79297,-139.99956 L677.2621,-139.9995 L678.7312,-139.99942 L680.2003,-139.99934 L681.66943,-139.99925 L683.13855,-139.99918 L684.60767,-139.99908 L686.0768,-139.999 L687.5459,-139.9989 L689.015,-139.99881 L690.48413,-139.99873 L691.95325,-139.99866 L693.42236,-139.99858 L694.8915,-139.9985 L696.3606,-139.99846 L697.8297,-139.9984 L699.2988,-139.99835 L700.76794,-139.99832 L702.23706,-139.99829 L703.7062,-139.99825 L705.1753,-139.9982 L706.6444,-139.99814 L708.1135,-139.99806 L709.58264,-139.99796 L711.05176,-139.99779 L712.5209,-139.99759 L713.99,-139.99731 L715.4591,-139.99696 L716.9282,-139.9965 L718.39734,-139.99596 L719.86646,-139.99529 L721.3356,-139.99448 L722.8047,-139.99352 L724.2738,-139.99242 L725.7429,-139.99117 L727.21204,-139.98975 L728.68115,-139.98819 L730.15027,-139.98648 L731.6194,-139.98463 L733.0885,-139.98268 L734.5576,-139.98064 L736.02673,-139.97853 L737.49585,-139.9764 L738.96497,-139.97426 L740.4341,-139.97218 L741.9032,-139.97017 L743.3723,-139.96828 L744.84143,-139.96654 L746.31055,-139.96498 L747.77966,-139.9636 L749.2487,-139.96239 L750.71783,-139.96133 L752.18695,-139.96042 L753.65607,-139.95956 L755.1252,-139.95866 L756.5943,-139.95761 L758.0634,-139.95625 L759.53253,-139.9544 L761.00165,-139.95183 L762.47076,-139.9483 L763.9399,-139.94353 L765.409,-139.93721 L766.8781,-139.92903 L768.3472,-139.91867 L769.81635,-139.9058 L771.28546,-139.8901 L772.7546,-139.8713 L774.2237,-139.84917 L775.6928,-139.82347 L777.1619,-139.79413 L778.63104,-139.76111 L780.10016,-139.72446 L781.5693,-139.68439 L783.0384,-139.64116 L784.5075,-139.59523 L785.9766,-139.5471 L787.44574,-139.49748 L788.91486,-139.44708 L790.384,-139.39677 L791.8531,-139.34741 L793.3222,-139.29988 L794.7913,-139.25505 L796.26044,-139.21362 L797.72955,-139.17618 L799.19867,-139.14305 L800.6678,-139.11423 L802.1369,-139.08931 L803.606,-139.06738 L805.07513,-139.04701 L806.54425,-139.02606 L808.01337,-139.00174 L809.4825,-138.97047 L810.9516,-138.92793 L812.4207,-138.86903 L813.88983,-138.78793 L815.35895,-138.67813 L816.82806,-138.53256 L818.2972,-138.34375 L819.7663,-138.10403 L821.2354,-137.80571 L822.7045,-137.44139 L824.17365,-137.0043 L825.64276,-136.48859 L827.1119,-135.88968 L828.581,-135.20465 L830.0501,-134.4326 L831.5192,-133.5749 L832.98834,-132.63559 L834.45746,-131.62141 L835.9266,-130.54207 L837.3956,-129.41014 L838.86475,-128.2409 L840.33386,-127.05205 L841.803,-125.86313 L843.2721,-124.69486 L844.7412,-123.56819 L846.2103,-122.50312 L847.67944,-121.517334 L849.14856,-120.62466 L850.6177,-119.83332 L852.0868,-119.14406 L853.5559,-118.54819 L855.025,-118.02564 L856.49414,-117.54308 L857.96326,-117.05215 L859.4324,-116.48801 L860.9015,-115.76824 L862.3706,-114.79226 L863.8397,-113.44126 L865.30884,-111.579 L866.77795,-109.0533 L868.2471,-105.698494 L869.7162,-101.338905 L871.1853,-95.79322 L872.6544,-88.87996 L874.12354,-80.42385 L875.59265,-70.26304 L877.06177,-58.25701 L878.5309,-44.29491 L880,-28.304068" fill="none" stroke="black" stroke-linejoin="round" stroke-width="2"/>
</g>
</g>
<g>
<g>
<line stroke="black" stroke-width="1" x1="0" x2="0" y1="0" y2="10"/>
<line stroke="black" stroke-width="1" x1="146.91151919866445" x2="146.91151919866445" y1="0" y2="10"/>
<line stroke="black" stroke-width="1" x1="293.8230383973289" x2="293.8230383973289" y1="0" y2="10"/>
<line stroke="black" stroke-width="1" x1="440.73455759599335" x2="440.73455759599335" y1="0" y2="10"/>
<line stroke="black" stroke-width="1" x1="587.6460767946578" x2="587.6460767946578" y1="0" y2="10"/>
<line stroke="black" stroke-width="1" x1="734.5575959933223" x2="734.5575959933223" y1="0" y2="10"/>
</g>
<line stroke="black" stroke-width="1" x1="0" x2="880" y1="0" y2="0"/>
<g>
<text font-size="12" text-anchor="middle" x="0" y="20">
0
</text>
<text font-size="12" text-anchor="middle" x="146.91151919866445" y="20">
10
</text>
<text font-size="12" text-anchor="middle" x="293.8230383973289" y="20">
20
</text>
<text font-size="12" text-anchor="middle" x="440.73455759599335" y="20">
30
</text>
<text font-size="12" text-anchor="middle" x="587.6460767946578" y="20">
40
</text>
<text font-size="12" text-anchor="middle" x="734.5575959933223" y="20">
50
</text>
</g>
<text font-size="12" text-anchor="middle" x="440" y="30">
time
</text>
</g>
<g>
<g>
<line stroke="black" stroke-width="1" x1="0" x2="-10" y1="-6.177647539670829" y2="-6.177647539670829"/>
<line stroke="black" stroke-width="1" x1="0" x2="-10" y1="-50.785098359780555" y2="-50.785098359780555"/>
<line stroke="black" stroke-width="1" x1="0" x2="-10" y1="-95.39254917989028" y2="-95.39254917989028"/>
<line stroke="black" stroke-width="1" x1="0" x2="-10" y1="-140" y2="-140"/>
</g>
<line stroke="black" stroke-width="1" x1="0" x2="0" y1="0" y2="-140"/>
<g>
<text dominant-baseline="middle" font-size="12" text-anchor="end" x="-15" y="-6.177647539670829">
-149999999999999990000000
</text>
<text dominant-baseline="middle" font-size="12" text-anchor="end" x="-15" y="-50.785098359780555">
-100000000000000000000000
</text>
<text dominant-baseline="middle" font-size="12" text-anchor="end" x="-15" y="-95.39254917989028">
-50000000000000000000000
</text>
<text dominant-baseline="middle" font-size="12" text-anchor="end" x="-15" y="-140">
-0.3298
</text>
</g>
<text font-size="12" text-anchor="middle" transform="rotate(-90 -300 -70)" x="-300" y="-82">
concentration
</text>
</g>
</g>
</svg>