<svg viewBox="0 0 1000 200" xmlns="http://www.w3.org/2000/svg">
<g transform="translate(72, 164)">
<g>
<g>
<path d="M0,-55.879555 L0,-55.879555 L4.4221106,-55.879555 L8.844221,-55.879555 L13.266332,-55.879555 L17.688442,-55.879555 L22.110552,-55.879555 L26.532663,-55.879555 L30.954773,-55.879555 L35.376884,-55.879555 L39.798996,-55.879555 L44.221104,-55.879555 L48.643215,-55.879555 L53.065327,-55.879555 L57.48744,-55.879555 L61.909546,-55.879555 L66.33166,-55.879555 L70.75377,-55.879555 L75.17588,-55.879555 L79.59799,-55.879555 L84.0201,-55.879555 L88.44221,-55.879555 L92.86432,-55.879555 L97.28643,-55.879555 L101.70854,-55.879555 L106.13065,-55.879555 L110.552765,-55.879555 L114.97488,-55.879555 L119.39699,-55.879555 L123.81909,-55.879555 L128.24121,-55.879555 L132.66331,-55.879555 L137.08543,-55.879555 L141.50754,-55.879555 L145.92964,-55.879555 L150.35176,-55.879555 L154.77386,-55.879555 L159.19598,-55.879555 L163.61809,-55.879555 L168.0402,-55.879555 L172.46231,-55.879555 L176.88441,-55.879555 L181.30653,-55.879555 L185.72864,-55.879555 L190.15076,-55.879555 L194.57286,-55.879555 L198.99498,-55.879555 L203.41708,-55.879555 L207.8392,-55.879555 L212.2613,-55.879555 L216.68341,-55.879555 L221.10553,-55.879555 L225.52763,-55.879555 L229.94975,-55.879555 L234.37186,-55.879555 L238.79398,-55.879555 L243.21608,-55.879555 L247.63818,-55.879555 L252.0603,-55.879555 L256.48242,-55.879555 L260.9045,-55.879555 L265.32663,-55.879555 L269.74875,-55.879555 L274.17087,-55.879555 L278.59296,-55.879555 L283.01508,-55.879555 L287.4372,-55.879555 L291.85928,-55.879555 L296.2814,-55.879555 L300.70352,-55.879555 L305.12564,-55.879555 L309.54773,-55.879555 L313.96985,-55.879555 L318.39197,-55.879555 L322.81406,-55.879555 L327.23618,-55.879555 L331.6583,-55.879555 L336.0804,-55.879555 L340.5025,-55.879555 L344.92462,-55.879555 L349.34674,-55.879555 L353.76883,-55.879555 L358.19095,-55.879555 L362.61307,-55.879555 L367.0352,-55.879555 L371.45728,-55.879555 L375.8794,-55.879555 L380.3015,-55.879555 L384.72363,-55.879555 L389.14572,-55.879555 L393.56784,-55.879555 L397.98996,-55.879555 L402.41205,-55.879555 L406.83417,-55.879555 L411.2563,-55.879555 L415.6784,-55.879555 L420.1005,-55.879555 L424.5226,-55.879555 L428.94473,-55.879555 L433.36682,-55.879555 L437.78894,-55.879555 L442.21106,-55.879555 L446.63318,-55.879555 L451.05527,-55.879555 L455.4774,-55.879555 L459.8995,-55.879555 L464.3216,-55.879555 L468.7437,-55.879555 L473.16583,-55.879555 L477.58795,-55.879555 L482.01004,-55.879555 L486.43216,-55.879555 L490.85428,-55.879555 L495.27637,-55.879555 L499.6985,-55.879555 L504.1206,-55.879555 L508.54272,-55.879555 L512.96484,-55.879555 L517.38696,-55.879555 L521.809,-55.879555 L526.23114,-55.879555 L530.65326,-55.879555 L535.0754,-55.879555 L539.4975,-55.879555 L543.9196,-55.879555 L548.34174,-55.879555 L552.7638,-55.879555 L557.1859,-55.879555 L561.60803,-55.879555 L566.03015,-55.879555 L570.4523,-55.879555 L574.8744,-55.879555 L579.2965,-55.879555 L583.71857,-55.879555 L588.1407,-55.879555 L592.5628,-55.879555 L596.9849,-55.879555 L601.40704,-55.879555 L605.82916,-55.879555 L610.2513,-55.879555 L614.67334,-55.879555 L619.09546,-55.879555 L623.5176,-55.879555 L627.9397,-55.879555 L632.3618,-55.879555 L636.78394,-55.879555 L641.20605,-55.879555 L645.6281,-55.879555 L650.05023,-55.879555 L654.47235,-55.879555 L658.8945,-55.879555 L663.3166,-55.879555 L667.7387,-55.879555 L672.1608,-55.879555 L676.5829,-55.879555 L681.005,-55.879555 L685.4271,-55.879555 L689.84924,-55.879555 L694.27136,-55.879555 L698.6935,-55.879555 L703.1156,-55.879555 L707.53766,-55.879555 L711.9598,-55.879555 L716.3819,-55.879555 L720.804,-55.879555 L725.22614,-55.879555 L729.64825,-55.879555 L734.0704,-55.879555 L738.4925,-55.879555 L742.91455,-55.879555 L747.3367,-55.879555 L751.7588,-55.879555 L756.1809,-55.879555 L760.603,-55.879555 L765.02515,-55.879555 L769.44727,-55.879555 L773.8693,-55.879555 L778.29144,-55.879555 L782.71356,-55.879555 L787.1357,-55.879555 L791.5578,-55.879555 L795.9799,-55.87955 L800.40204,-55.879547 L804.8241,-55.87958 L809.2462,-55.879547 L813.66833,-55.87938 L818.09045,-55.87977 L822.5126,-55.880363 L826.9347,-55.877373 L831.3568,-55.876972 L835.7789,-55.89554 L840.201,-55.87803 L844.6231,-55.784275 L849.0452,-55.99111 L853.46735,-56.33735 L857.88947,-54.711597 L862.3116,-54.358624 L866.73364,-64.5934 L871.15576,-55.74147 L875.5779,-3.2024314 L880,-113.28979" fill="none" stroke="black" stroke-linejoin="round" stroke-width="2"/>
</g>
</g>
<g>
<g>
<path d="M0,-55.879555 L0,-55.879555 L4.4221106,-55.879555 L8.844221,-55.879555 L13.266332,-55.879555 L17.688442,-55.879555 L22.110552,-55.879555 L26.532663,-55.879555 L30.954773,-55.879555 L35.376884,-55.879555 L39.798996,-55.879555 L44.221104,-55.879555 L48.643215,-55.879555 L53.065327,-55.879555 L57.48744,-55.879555 L61.909546,-55.879555 L66.33166,-55.879555 L70.75377,-55.879555 L75.17588,-55.879555 L79.59799,-55.879555 L84.0201,-55.879555 L88.44221,-55.879555 L92.86432,-55.879555 L97.28643,-55.879555 L101.70854,-55.879555 L106.13065,-55.879555 L110.552765,-55.879555 L114.97488,-55.879555 L119.39699,-55.879555 L123.81909,-55.879555 L128.24121,-55.879555 L132.66331,-55.879555 L137.08543,-55.879555 L141.50754,-55.879555 L145.92964,-55.879555 L150.35176,-55.879555 L154.77386,-55.879555 L159.19598,-55.879555 L163.61809,-55.879555 L168.0402,-55.879555 L172.46231,-55.879555 L176.88441,-55.879555 L181.30653,-55.879555 L185.72864,-55.879555 L190.15076,-55.879555 L194.57286,-55.879555 L198.99498,-55.879555 L203.41708,-55.879555 L207.8392,-55.879555 L212.2613,-55.879555 L216.68341,-55.879555 L221.10553,-55.879555 L225.52763,-55.879555 L229.94975,-55.879555 L234.37186,-55.879555 L238.79398,-55.879555 L243.21608,-55.879555 L247.63818,-55.879555 L252.0603,-55.879555 L256.48242,-55.879555 L260.9045,-55.879555 L265.32663,-55.879555 L269.74875,-55.879555 L274.17087,-55.879555 L278.59296,-55.879555 L283.01508,-55.879555 L287.4372,-55.879555 L291.85928,-55.879555 L296.2814,-55.879555 L300.70352,-55.879555 L305.12564,-55.879555 L309.54773,-55.879555 L313.96985,-55.879555 L318.39197,-55.879555 L322.81406,-55.879555 L327.23618,-55.879555 L331.6583,-55.879555 L336.0804,-55.879555 L340.5025,-55.879555 L344.92462,-55.879555 L349.34674,-55.879555 L353.76883,-55.879555 L358.19095,-55.879555 L362.61307,-55.879555 L367.0352,-55.879555 L371.45728,-55.879555 L375.8794,-55.879555 L380.3015,-55.879555 L384.72363,-55.879555 L389.14572,-55.879555 L393.56784,-55.879555 L397.98996,-55.879555 L402.41205,-55.879555 L406.83417,-55.879555 L411.2563,-55.879555 L415.6784,-55.879555 L420.1005,-55.879555 L424.5226,-55.879555 L428.94473,-55.879555 L433.36682,-55.879555 L437.78894,-55.879555 L442.21106,-55.879555 L446.63318,-55.879555 L451.05527,-55.879555 L455.4774,-55.879555 L459.8995,-55.879555 L464.3216,-55.879555 L468.7437,-55.879555 L473.16583,-55.879555 L477.58795,-55.879555 L482.01004,-55.879555 L486.43216,-55.879555 L490.85428,-55.879555 L495.27637,-55.879555 L499.6985,-55.879555 L504.1206,-55.879555 L508.54272,-55.879555 L512.96484,-55.879555 L517.38696,-55.879555 L521.809,-55.879555 L526.23114,-55.879555 L530.65326,-55.879555 L535.0754,-55.879555 L539.4975,-55.879555 L543.9196,-55.879555 L548.34174,-55.879555 L552.7638,-55.879555 L557.1859,-55.879555 L561.60803,-55.879555 L566.03015,-55.879555 L570.4523,-55.879555 L574.8744,-55.879555 L579.2965,-55.879555 L583.71857,-55.879555 L588.1407,-55.879555 L592.5628,-55.879555 L596.9849,-55.879555 L601.40704,-55.879555 L605.82916,-55.879555 L610.2513,-55.879555 L614.67334,-55.879555 L619.09546,-55.879555 L623.5176,-55.879555 L627.9397,-55.879555 L632.3618,-55.879555 L636.78394,-55.879555 L641.20605,-55.879555 L645.6281,-55.879555 L650.05023,-55.879555 L654.47235,-55.879555 L658.8945,-55.879555 L663.3166,-55.879555 L667.7387,-55.879555 L672.1608,-55.879555 L676.5829,-55.879555 L681.005,-55.879555 L685.4271,-55.879555 L689.84924,-55.879555 L694.27136,-55.879555 L698.6935,-55.879555 L703.1156,-55.879555 L707.53766,-55.879555 L711.9598,-55.879555 L716.3819,-55.879555 L720.804,-55.879555 L725.22614,-55.879555 L729.64825,-55.879555 L734.0704,-55.879555 L738.4925,-55.879555 L742.91455,-55.879555 L747.3367,-55.879555 L751.7588,-55.879555 L756.1809,-55.879555 L760.603,-55.879555 L765.02515,-55.879555 L769.44727,-55.879555 L773.8693,-55.879555 L778.29144,-55.879555 L782.71356,-55.879555 L787.1357,-55.879555 L791.5578,-55.879555 L795.9799,-55.87955 L800.40204,-55.87955 L804.8241,-55.87958 L809.2462,-55.879536 L813.66833,-55.879406 L818.09045,-55.87981 L822.5126,-55.88018 L826.9347,-55.877327 L831.3568,-55.87813 L835.7789,-55.89458 L840.201,-55.872025 L844.6231,-55.79654 L849.0452,-56.01434 L853.46735,-56.23806 L857.88947,-54.67743 L862.3116,-54.99723 L866.73364,-64.11469 L871.15576,-52.384186 L875.5779,-9.710043 L880,-126.65356" fill="none" stroke="black" stroke-linejoin="round" stroke-width="2"/>
</g>
</g>
<g>
<g>
<path d="M0,-55.879555 L0,-55.879555 L4.4221106,-55.879555 L8.844221,-55.879555 L13.266332,-55.879555 L17.688442,-55.879555 L22.110552,-55.879555 L26.532663,-55.879555 L30.954773,-55.879555 L35.376884,-55.879555 L39.798996,-55.879555 L44.221104,-55.879555 L48.643215,-55.879555 L53.065327,-55.879555 L57.48744,-55.879555 L61.909546,-55.879555 L66.33166,-55.879555 L70.75377,-55.879555 L75.17588,-55.879555 L79.59799,-55.879555 L84.0201,-55.879555 L88.44221,-55.879555 L92.86432,-55.879555 L97.28643,-55.879555 L101.70854,-55.879555 L106.13065,-55.879555 L110.552765,-55.879555 L114.97488,-55.879555 L119.39699,-55.879555 L123.81909,-55.879555 L128.24121,-55.879555 L132.66331,-55.879555 L137.08543,-55.879555 L141.50754,-55.879555 L145.92964,-55.879555 L150.35176,-55.879555 L154.77386,-55.879555 L159.19598,-55.879555 L163.61809,-55.879555 L168.0402,-55.879555 L172.46231,-55.879555 L176.88441,-55.879555 L181.30653,-55.879555 L185.72864,-55.879555 L190.15076,-55.879555 L194.57286,-55.879555 L198.99498,-55.879555 L203.41708,-55.879555 L207.8392,-55.879555 L212.2613,-55.879555 L216.68341,-55.879555 L221.10553,-55.879555 L225.52763,-55.879555 L229.94975,-55.879555 L234.37186,-55.879555 L238.79398,-55.879555 L243.21608,-55.879555 L247.63818,-55.879555 L252.0603,-55.879555 L256.48242,-55.879555 L260.9045,-55.879555 L265.32663,-55.879555 L269.74875,-55.879555 L274.17087,-55.879555 L278.59296,-55.879555 L283.01508,-55.879555 L287.4372,-55.879555 L291.85928,-55.879555 L296.2814,-55.879555 L300.70352,-55.879555 L305.12564,-55.879555 L309.54773,-55.879555 L313.96985,-55.879555 L318.39197,-55.879555 L322.81406,-55.879555 L327.23618,-55.879555 L331.6583,-55.879555 L336.0804,-55.879555 L340.5025,-55.879555 L344.92462,-55.879555 L349.34674,-55.879555 L353.76883,-55.879555 L358.19095,-55.879555 L362.61307,-55.879555 L367.0352,-55.879555 L371.45728,-55.879555 L375.8794,-55.879555 L380.3015,-55.879555 L384.72363,-55.879555 L389.14572,-55.879555 L393.56784,-55.879555 L397.98996,-55.879555 L402.41205,-55.879555 L406.83417,-55.879555 L411.2563,-55.879555 L415.6784,-55.879555 L420.1005,-55.879555 L424.5226,-55.879555 L428.94473,-55.879555 L433.36682,-55.879555 L437.78894,-55.879555 L442.21106,-55.879555 L446.63318,-55.879555 L451.05527,-55.879555 L455.4774,-55.879555 L459.8995,-55.879555 L464.3216,-55.879555 L468.7437,-55.879555 L473.16583,-55.879555 L477.58795,-55.879555 L482.01004,-55.879555 L486.43216,-55.879555 L490.85428,-55.879555 L495.27637,-55.879555 L499.6985,-55.879555 L504.1206,-55.879555 L508.54272,-55.879555 L512.96484,-55.879555 L517.38696,-55.879555 L521.809,-55.879555 L526.23114,-55.879555 L530.65326,-55.879555 L535.0754,-55.879555 L539.4975,-55.879555 L543.9196,-55.879555 L548.34174,-55.879555 L552.7638,-55.879555 L557.1859,-55.879555 L561.60803,-55.879555 L566.03015,-55.879555 L570.4523,-55.879555 L574.8744,-55.879555 L579.2965,-55.879555 L583.71857,-55.879555 L588.1407,-55.879555 L592.5628,-55.879555 L596.9849,-55.879555 L601.40704,-55.879555 L605.82916,-55.879555 L610.2513,-55.879555 L614.67334,-55.879555 L619.09546,-55.879555 L623.5176,-55.879555 L627.9397,-55.879555 L632.3618,-55.879555 L636.78394,-55.879555 L641.20605,-55.879555 L645.6281,-55.879555 L650.05023,-55.879555 L654.47235,-55.879555 L658.8945,-55.879555 L663.3166,-55.879555 L667.7387,-55.879555 L672.1608,-55.879555 L676.5829,-55.879555 L681.005,-55.879555 L685.4271,-55.879555 L689.84924,-55.879555 L694.27136,-55.879555 L698.6935,-55.879555 L703.1156,-55.879555 L707.53766,-55.879555 L711.9598,-55.879555 L716.3819,-55.879555 L720.804,-55.879555 L725.22614,-55.879555 L729.64825,-55.879555 L734.0704,-55.879555 L738.4925,-55.879555 L742.91455,-55.879555 L747.3367,-55.879555 L751.7588,-55.879555 L756.1809,-55.879555 L760.603,-55.879555 L765.02515,-55.879555 L769.44727,-55.879555 L773.8693,-55.879555 L778.29144,-55.879555 L782.71356,-55.879555 L787.1357,-55.879555 L791.5578,-55.879555 L795.9799,-55.879547 L800.40204,-55.87955 L804.8241,-55.879585 L809.2462,-55.879536 L813.66833,-55.87937 L818.09045,-55.87986 L822.5126,-55.88032 L826.9347,-55.87688 L831.3568,-55.87777 L835.7789,-55.897663 L840.201,-55.87091 L844.6231,-55.77904 L849.0452,-56.0399 L853.46735,-56.316673 L857.88947,-54.438026 L862.3116,-54.777775 L866.73364,-65.8017 L871.15576,-51.902805 L875.5779,0 L880,-140" fill="none" stroke="black" stroke-linejoin="round" stroke-width="2"/>
</g>
</g>
<g>
<g>
<line stroke="black" stroke-width="1" x1="0" x2="0" y1="0" y2="10"/>
<line stroke="black" stroke-width="1" x1="176.88442211055278" x2="176.88442211055278" y1="0" y2="10"/>
<line stroke="black" stroke-width="1" x1="353.76884422110555" x2="353.76884422110555" y1="0" y2="10"/>
<line stroke="black" stroke-width="1" x1="530.6532663316583" x2="530.6532663316583" y1="0" y2="10"/>
<line stroke="black" stroke-width="1" x1="707.5376884422111" x2="707.5376884422111" y1="0" y2="10"/>
</g>
<line stroke="black" stroke-width="1" x1="0" x2="880" y1="0" y2="0"/>
<g>
<text font-size="12" text-anchor="middle" x="0" y="20">
0
</text>
<text font-size="12" text-anchor="middle" x="176.88442211055278" y="20">
40
</text>
<text font-size="12" text-anchor="middle" x="353.76884422110555" y="20">
80
</text>
<text font-size="12" text-anchor="middle" x="530.6532663316583" y="20">
120
</text>
<text font-size="12" text-anchor="middle" x="707.5376884422111" y="20">
160
</text>
</g>
<text font-size="12" text-anchor="middle" x="440" y="30">
time
</text>
</g>
<g>
<g>
<line stroke="black" stroke-width="1" x1="0" x2="-10" y1="-17.457394794046365" y2="-17.457394794046365"/>
<line stroke="black" stroke-width="1" x1="0" x2="-10" y1="-55.879553265207235" y2="-55.879553265207235"/>
<line stroke="black" stroke-width="1" x1="0" x2="-10" y1="-94.3017117363681" y2="-94.3017117363681"/>
<line stroke="black" stroke-width="1" x1="0" x2="-10" y1="-132.72387020752893" y2="-132.72387020752893"/>
</g>
<line stroke="black" stroke-width="1" x1="0" x2="0" y1="0" y2="-140"/>
<g>
<text dominant-baseline="middle" font-size="12" text-anchor="end" x="-15" y="-17.457394794046365">
-40000000000000010000000000000000000000000000000000000000000000000000000000000
</text>
<text dominant-baseline="middle" font-size="12" text-anchor="end" x="-15" y="-55.879553265207235">
0
</text>
<text dominant-baseline="middle" font-size="12" text-anchor="end" x="-15" y="-94.3017117363681">
40000000000000010000000000000000000000000000000000000000000000000000000000000
</text>
<text dominant-baseline="middle" font-size="12" text-anchor="end" x="-15" y="-132.72387020752893">
80000000000000020000000000000000000000000000000000000000000000000000000000000
</text>
</g>
<text font-size="12" text-anchor="middle" transform="rotate(-90 -936 -70)" x="-936" y="-82">
concentration
</text>
</g>
</g>
</svg>