<svg viewBox="0 0 1000 200" xmlns="http://www.w3.org/2000/svg">
<g transform="translate(72, 164)">
<g>
<g>
<path d="M0,-2.4071896 L0,-2.4071896 L0.8808809,-1.917432 L1.7617618,-1.525633 L2.6426427,-1.2122033 L3.5235236,-0.9614723 L4.4044046,-0.76090497 L5.2852855,-0.6004749 L6.1661663,-0.4721629 L7.047047,-0.36955652 L7.927928,-0.2875295 L8.808809,-0.22198577 L9.68969,-0.16965534 L10.570571,-0.1279312 L11.451451,-0.09473991 L12.332333,-0.06843897 L13.213213,-0.047736224 L14.094094,-0.03162714 L14.974975,-0.019347241 L15.855856,-0.010337341 L16.736736,-0.004220245 L17.617619,-0.00078805623 L18.498499,0 L19.37938,-0.0019912783 L20.26026,-0.007094255 L21.141142,-0.015874118 L22.022022,-0.029182183 L22.902903,-0.04823126 L23.783783,-0.07469897 L24.664665,-0.11086673 L25.545546,-0.15980422 L26.426426,-0.22561134 L27.307308,-0.31373224 L28.188189,-0.43135732 L29.069069,-0.5879296 L29.94995,-0.7957672 L30.830832,-1.0708013 L31.711712,-1.4333946 L32.592594,-1.909135 L33.473473,-2.5293555 L34.354355,-3.3309386 L35.235237,-4.354783 L36.116116,-5.642208 L36.996998,-7.2285967 L37.877876,-9.133954 L38.75876,-11.351072 L39.63964,-13.833471 L40.52052,-16.486517 L41.4014,-19.165068 L42.282284,-21.679386 L43.163162,-23.809032 L44.044044,-25.324675 L44.924927,-26.020565 L45.805805,-25.7616 L46.686687,-24.538277 L47.567566,-22.499369 L48.44845,-19.923931 L49.32933,-17.134033 L50.21021,-14.402424 L51.09109,-11.905822 L51.971973,-9.727706 L52.85285,-7.8852425 L53.733734,-6.357849 L54.614616,-5.1080327 L55.495495,-4.09383 L56.376377,-3.2751715 L57.257256,-2.6165762 L58.138138,-2.087897 L59.01902,-1.6641299 L59.8999,-1.3248397 L60.78078,-1.053479 L61.661663,-0.8367226 L62.54254,-0.66388726 L63.423424,-0.52644646 L64.304306,-0.4176351 L65.18519,-0.33213082 L66.06606,-0.2658028 L66.946945,-0.21551955 L67.82783,-0.17900862 L68.70871,-0.1547631 L69.58959,-0.14199206 L70.470474,-0.14061418 L71.35135,-0.15129681 L72.23223,-0.17554435 L73.11311,-0.21584363 L73.993996,-0.27587584 L74.87488,-0.36080745 L75.75575,-0.47767442 L76.636635,-0.6358733 L77.51752,-0.8477675 L78.3984,-1.1293999 L79.27928,-1.5012642 L80.160164,-1.9889969 L81.04104,-2.6236916 L81.92192,-3.4413319 L82.8028,-4.4806776 L83.683685,-5.778876 L84.56457,-7.3641744 L85.44544,-9.245651 L86.326324,-11.401071 L87.20721,-13.765492 L88.08809,-16.224297 L88.96897,-18.613905 L89.84985,-20.731794 L90.73073,-22.356304 L91.61161,-23.277529 L92.49249,-23.341436 L93.373375,-22.50239 L94.25426,-20.860483 L95.13513,-18.648514 L96.016014,-16.160511 L96.8969,-13.663296 L97.77778,-11.342164 L98.65866,-9.293971 L99.53954,-7.548236 L100.42042,-6.0938153 L101.3013,-4.8998675 L102.18218,-3.9289958 L103.063065,-3.1442847 L103.94395,-2.5124836 L104.82482,-2.005068 L105.7057,-1.5982486 L106.586586,-1.2725236 L107.46747,-1.0120732 L108.34835,-0.8041494 L109.22923,-0.63853294 L110.11011,-0.5070788 L110.99099,-0.4033435 L111.87187,-0.322285 L112.752754,-0.26002863 L113.63364,-0.21369022 L114.51451,-0.18125187 L115.39539,-0.16148555 L116.276276,-0.15392318 L117.15716,-0.15887354 L118.03804,-0.17748967 L118.91892,-0.21189243 L119.7998,-0.2653594 L120.68068,-0.34259045 L121.56156,-0.4500637 L122.442444,-0.5964955 L123.323326,-0.7934144 L124.2042,-1.0558466 L125.08508,-1.4030749 L125.965965,-1.8593619 L126.84685,-2.4543822 L127.72773,-3.2229037 L128.60861,-4.203085 L129.48949,-5.432659 L130.37038,-6.942343 L131.25125,-8.7462 L132.13213,-10.829747 L133.01302,-13.138114 L133.89389,-15.567767 L134.77478,-17.965342 L135.65565,-20.13567 L136.53653,-21.859642 L137.41742,-22.922955 L138.2983,-23.157831 L139.17918,-22.49495 L140.06006,-21.00585 L140.94095,-18.901 L141.82182,-16.46759 L142.7027,-13.980613 L143.58359,-11.640472 L144.46446,-9.5583725 L145.34535,-7.773983 L146.22623,-6.282021 L147.1071,-5.0544157 L147.98799,-4.054694 L148.86887,-3.2459013 L149.74976,-2.5943189 L150.63063,-2.0708113 L151.5115,-1.6509775 L152.3924,-1.3147613 L153.27327,-1.0458684 L154.15416,-0.83115524 L155.03503,-0.6600767 L155.91591,-0.5242206 L156.7968,-0.41692507 L157.67767,-0.33296928 L158.55856,-0.26833066 L159.43944,-0.22000127 L160.32033,-0.18585688 L161.2012,-0.16457495 L162.08208,-0.15559931 L162.96297,-0.15915179 L163.84384,-0.17629415 L164.72473,-0.20904581 L165.6056,-0.2605661 L166.48648,-0.33541206 L167.36737,-0.43988582 L168.24825,-0.5824846 L169.12914,-0.7744645 L170.01001,-1.0305161 L170.89088,-1.3695205 L171.77177,-1.8152812 L172.65265,-2.3969948 L173.53354,-3.14902 L174.41441,-4.109314 L175.29529,-5.315829 L176.17618,-6.800166 L177.05705,-8.578191 L177.93794,-10.638264 L178.81882,-12.929266 L179.6997,-15.351885 L180.58058,-17.756744 L181.46146,-19.951637 L182.34235,-21.718576 L183.22322,-22.841589 L184.10411,-23.14739 L184.98499,-22.556898 L185.86586,-21.129595 L186.74675,-19.066233 L187.62762,-16.650902 L188.50851,-14.162222 L189.38939,-11.807517 L190.27026,-9.704645 L191.15115,-7.8979897 L192.03203,-6.3849645 L192.91292,-5.1387258 L193.7938,-4.123149 L194.67467,-3.3011782 L195.55556,-2.6387982 L196.43643,-2.1065207 L197.31732,-1.6796001 L198.1982,-1.3376733 L199.07909,-1.0641845 L199.95996,-0.8457726 L200.84084,-0.6717139 L201.72173,-0.5334497 L202.6026,-0.4241978 L203.48349,-0.33863804 L204.36436,-0.27266508 L205.24524,-0.22320028 L206.12613,-0.18805715 L207.007,-0.1658559 L207.8879,-0.15598455 L208.76877,-0.15860729 L209.64964,-0.17472255 L210.53053,-0.20627652 L211.4114,-0.2563404 L212.2923,-0.32936272 L213.17317,-0.43150958 L214.05405,-0.5711073 L214.93494,-0.75919807 L215.81581,-1.0102081 L216.6967,-1.3427 L217.57758,-1.7801124 L218.45847,-2.3512607 L219.33934,-3.0901725 L220.22021,-4.0346413 L221.1011,-5.2227864 L221.98198,-6.6869183 L222.86287,-8.444357 L223.74374,-10.485778 L224.62462,-12.763149 L225.50551,-15.180669 L226.38638,-17.592321 L227.26727,-19.808447 L228.14815,-21.61209 L229.02902,-22.785995 L229.90991,-23.152344 L230.79079,-22.623848 L231.67168,-21.249634 L232.55255,-19.221865 L233.43343,-16.82166 L234.31432,-14.330619 L235.19519,-11.962102 L236.07608,-9.839885 L236.95695,-8.012595 L237.83784,-6.4800835 L238.71872,-5.216618 L239.5996,-4.186388 L240.48048,-3.35224 L241.36136,-2.6798835 L242.24225,-2.1395032 L243.12312,-1.7060353 L244.004,-1.3588326 L244.88489,-1.0810975 L245.76576,-0.85926807 L246.64665,-0.68245524 L247.52753,-0.5419649 L248.4084,-0.4309034 L249.28929,-0.3438589 L250.17017,-0.27664915 L251.05106,-0.22612981 L251.93193,-0.19005652 L252.81282,-0.16699584 L253.6937,-0.15628351 L254.57457,-0.15802935 L255.45546,-0.17317176 L256.33633,-0.20358734 L257.21722,-0.25226337 L258.09808,-0.32354465 L258.97897,-0.42346728 L259.85986,-0.5601939 L260.74075,-0.74456125 L261.6216,-0.9907417 L262.5025,-1.3169911 L263.3834,-1.7463952 L264.26425,-2.3073974 L265.14514,-3.0336971 L266.02603,-3.962914 L266.90692,-5.1333055 L267.78778,-6.577835 L268.66867,-8.315195 L269.54956,-10.338269 L270.43042,-12.60201 L271.3113,-15.014038 L272.1922,-17.431662 L273.07306,-19.66779 L273.95395,-21.5066 L274.83484,-22.729753 L275.71573,-23.155209 L276.5966,-22.687832 L277.47748,-21.366606 L278.35837,-19.375 L279.23923,-16.990788 L280.12012,-14.498195 L281.001,-12.116442 L281.8819,-9.975216 L282.76276,-8.12745 L283.64365,-6.575504 L284.52454,-5.294806 L285.4054,-4.249893 L286.2863,-3.4035296 L287.16718,-2.7211587 L288.04803,-2.1726418 L288.92892,-1.7325975 L289.8098,-1.3800951 L290.6907,-1.0980943 L291.57156,-0.8728318 L292.45245,-0.6932526 L293.33334,-0.5505267 L294.2142,-0.4376487 L295.0951,-0.34911466 L295.97598,-0.2806653 L296.85684,-0.22909065 L297.73773,-0.19208837 L298.61862,-0.16817176 L299.4995,-0.15662457 L300.38037,-0.15750279 L301.26126,-0.17168565 L302.14215,-0.20098121 L303.023,-0.24829431 L303.9039,-0.31786785 L304.7848,-0.4156103 L305.66568,-0.54952365 L306.54654,-0.730243 L307.42743,-0.97169083 L308.30832,-1.2918208 L309.18918,-1.713369 L310.07007,-2.2644079 L310.95096,-2.978304 L311.83182,-3.892488 L312.7127,-5.0453286 L313.5936,-6.470401 L314.4745,-8.187709 L315.35535,-10.192287 L316.23624,-12.442018 L317.11713,-14.847922 L317.998,-17.270657 L318.87888,-19.525759 L319.75977,-21.39866 L320.64066,-22.670118 L321.5215,-23.154114 L322.4024,-22.74792 L323.2833,-21.480444 L324.16415,-19.526243 L325.04504,-17.159317 L325.92593,-14.666174 L326.8068,-12.271777 L327.68768,-10.111789 L328.56857,-8.243566 L329.44946,-6.6720824 L330.33032,-5.374003 L331.2112,-4.314248 L332.0921,-3.4555216 L332.97296,-2.7630074 L333.85385,-2.2062447 L334.73474,-1.7595347 L335.6156,-1.4016596 L336.4965,-1.1153344 L337.37738,-0.8865914 L338.25827,-0.70420814 L339.13913,-0.5592166 L340.02002,-0.4444987 L340.9009,-0.35445696 L341.78177,-0.28475446 L342.66266,-0.23211484 L343.54355,-0.19417757 L344.42444,-0.16940239 L345.3053,-0.15702115 L346.1862,-0.1570363 L347.06708,-0.1702684 L347.94794,-0.19845778 L348.82883,-0.24442792 L349.70972,-0.31232142 L350.59058,-0.40792117 L351.47147,-0.53907096 L352.35236,-0.71620744 L353.23325,-0.9530066 L354.1141,-1.2671236 L354.995,-1.680948 L355.8759,-2.2221808 L356.75674,-2.9238508 L357.63763,-3.8231857 L358.51852,-4.9586396 L359.3994,-6.364356 L360.28027,-8.061601 L361.16116,-10.047498 L362.04205,-12.282811 L362.9229,-14.6819515 L363.8038,-17.108936 L364.6847,-19.38201 L365.56555,-21.28797 L366.44644,-22.606844 L367.32733,-23.148876 L368.20822,-22.803978 L369.08908,-21.59107 L369.96997,-19.675568 L370.85086,-17.327278 L371.73172,-14.83463 L372.6126,-12.428212 L373.4935,-10.249716 L374.37436,-8.361052 L375.25525,-6.7699194 L376.13614,-5.4542937 L377.01703,-4.379524 L377.8979,-3.5082746 L378.77878,-2.8054771 L379.65967,-2.2403514 L380.54053,-1.7868782 L381.42142,-1.4235513 L382.3023,-1.1328375 L383.1832,-0.9005629 L384.06406,-0.71533453 L384.94495,-0.56804496 L385.82584,-0.4514615 L386.7067,-0.3598923 L387.5876,-0.28892165 L388.46848,-0.2352063 L389.34933,-0.19632702 L390.23022,-0.17068979 L391.1111,-0.15747458 L391.992,-0.15663047 L392.87286,-0.16891983 L393.75375,-0.19601603 L394.63464,-0.24066229 L395.5155,-0.3069024 L396.3964,-0.4003956 L397.27728,-0.52882993 L398.15817,-0.7024466 L399.03903,-0.93467855 L399.91992,-1.2428861 L400.8008,-1.6491148 L401.68167,-2.180695 L402.56256,-2.8703125 L403.44345,-3.7549787 L404.3243,-4.873207 L405.2052,-6.259671 L406.0861,-7.9368443 L406.96698,-9.903884 L407.84784,-12.124388 L408.72873,-14.516132 L409.60962,-16.946522 L410.49048,-19.236572 L411.37137,-21.174559 L412.25226,-22.539951 L413.13315,-23.13949 L414.014,-22.855965 L414.8949,-21.698404 L415.7758,-19.822884 L416.65665,-17.494595 L417.53754,-15.00352 L418.41843,-12.585731 L419.2993,-10.389003 L420.18018,-8.479923 L421.06107,-6.8690333 L421.94196,-5.535698 L422.8228,-4.4457397 L423.7037,-3.5618038 L424.5846,-2.848581 L425.46545,-2.274972 L426.34634,-1.8146366 L427.22723,-1.4457772 L428.1081,-1.1506097 L428.98898,-0.91475093 L429.86987,-0.7266355 L430.75076,-0.5770146 L431.63162,-0.4585394 L432.5125,-0.36542237 L433.3934,-0.29316822 L434.27426,-0.23836602 L435.15515,-0.19853736 L436.03604,-0.17203432 L436.91693,-0.15798487 L437.7978,-0.15628499 L438.67868,-0.16763932 L439.55957,-0.19365492 L440.44043,-0.2369959 L441.32132,-0.30160865 L442.2022,-0.39303058 L443.08307,-0.51879656 L443.96396,-0.6889552 L444.84485,-0.9167 L445.72574,-1.2190998 L446.6066,-1.6178591 L447.4875,-2.1399384 L448.36838,-2.817675 L449.24924,-3.6878529 L450.13013,-4.7890196 L451.01102,-6.156339 L451.8919,-7.813442 L452.77277,-9.76146 L453.65366,-11.966777 L454.53455,-14.350512 L455.4154,-16.783474 L456.2963,-19.08951 L457.1772,-21.05849 L458.05804,-22.46949 L458.93893,-23.12597 L459.81982,-22.90385 L460.7007,-21.802374 L461.58157,-19.968098 L462.46246,-17.66118 L463.34335,-15.172785 L464.2242,-12.744303 L465.1051,-10.52964 L465.986,-8.600184 L466.86685,-6.9694357 L467.74774,-5.6182284 L468.62863,-4.5129066 L469.50952,-3.6161208 L470.39038,-2.8923285 L471.27127,-2.3101144 L472.15216,-1.8428165 L473.03302,-1.4683424 L473.9139,-1.168655 L474.7948,-0.92915875 L475.6757,-0.7381137 L476.55655,-0.58612764 L477.43744,-0.465734 L478.31833,-0.3710485 L479.1992,-0.2974951 L480.08008,-0.24159464 L480.96097,-0.20080903 L481.84183,-0.17343612 L482.72272,-0.15855195 L483.6036,-0.15599953 L484.4845,-0.16642617 L485.36536,-0.19137342 L486.24625,-0.23342726 L487.12714,-0.29643807 L488.008,-0.38582343 L488.8889,-0.5089673 L489.76978,-0.6757286 L490.65067,-0.8990649 L491.53152,-1.1957569 L492.4124,-1.5871716 L493.2933,-2.0998995 L494.17416,-2.765927 L495.05505,-3.6217961 L495.93594,-4.7060666 L496.8168,-6.054356 L497.6977,-7.6913986 L498.57858,-9.620243 L499.45947,-11.81001 L500.34033,-14.185136 L501.22122,-16.619852 L502.1021,-18.940897 L502.98297,-20.939837 L503.86386,-22.395514 L504.74475,-23.108341 L505.62564,-22.947613 L506.5065,-21.90291 L507.3874,-20.111113 L508.26828,-17.82695 L509.14914,-15.342362 L510.03003,-12.903896 L510.91092,-10.671619 L511.79178,-8.721838 L512.67267,-7.071135 L513.5535,-5.7018967 L514.43445,-4.581037 L515.3153,-3.6712358 L516.19617,-2.9367287 L517.0771,-2.3457866 L517.95795,-1.8714238 L518.83887,-1.4912522 L519.7197,-1.1869775 L520.6006,-0.9437897 L521.4815,-0.74977183 L522.36237,-0.59538615 L523.2432,-0.473047 L524.12415,-0.37677193 L525.005,-0.30190328 L525.88586,-0.24489282 L526.7668,-0.2031424 L527.64764,-0.17489538 L528.5285,-0.15917574 L529.4094,-0.15577374 L530.2903,-0.16527976 L531.17114,-0.18917055 L532.05206,-0.2299549 L532.9329,-0.2913887 L533.81384,-0.3787714 L534.6947,-0.4993385 L535.57556,-0.6627621 L536.4565,-0.8817671 L537.33734,-1.1728499 L538.2182,-1.5570427 L539.0991,-2.0605676 L539.98,-2.7150557 L540.86084,-3.5567966 L541.74176,-4.6243386 L542.6226,-5.9537163 L543.5035,-7.5707173 L544.3844,-9.48025 L545.26526,-11.6541195 L546.1461,-14.020055 L547.02704,-16.455717 L547.9079,-18.790798 L548.7888,-20.81866 L549.6697,-22.318075 L550.55054,-23.086624 L551.43146,-22.987226 L552.3123,-21.999943 L553.1932,-20.251839 L554.0741,-17.991814 L554.95496,-15.512189 L555.8358,-13.064476 L556.71674,-10.814926 L557.5976,-8.844888 L558.47845,-7.1741414 L559.3594,-5.786715 L560.24023,-4.650142 L561.1211,-3.7271597 L562.002,-2.9817908 L562.8829,-2.3819957 L563.7638,-1.9004651 L564.64465,-1.5145115 L565.5255,-1.2055813 L566.40643,-0.95864713 L567.2873,-0.76161236 L568.16815,-0.6047922 L569.0491,-0.48048 L569.92993,-0.38259387 L570.8108,-0.30639362 L571.6917,-0.24826124 L572.5726,-0.20553792 L573.4534,-0.17641227 L574.33435,-0.15985617 L575.2152,-0.15560728 L576.09607,-0.16419947 L576.977,-0.1870453 L577.85785,-0.22657743 L578.7387,-0.28645852 L579.6196,-0.37187186 L580.5005,-0.48990667 L581.3814,-0.6500512 L582.26227,-0.8648009 L583.1431,-1.1503714 L584.02405,-1.5274634 L584.9049,-2.0219316 L585.78577,-2.665049 L586.6667,-3.4928417 L587.54755,-4.543825 L588.4284,-5.854414 L589.3093,-7.451401 L590.1902,-9.341496 L591.07104,-11.499137 L591.95197,-13.855314 L592.8328,-16.291134 L593.7137,-18.639286 L594.5946,-20.695036 L595.47546,-22.237234 L596.3564,-23.06085 L597.23724,-23.022675 L598.1181,-22.093409 L598.999,-20.39018 L599.8799,-18.15568 L600.76074,-15.682198 L601.64166,-13.2260065 L602.5225,-10.95955 L603.4034,-8.969335 L604.2843,-7.278464 L605.16516,-5.8726945 L606.046,-4.7202344 L606.92694,-3.7839034 L607.8078,-3.0275242 L608.68866,-2.41875 L609.5696,-1.9299467 L610.45044,-1.5381255 L611.33136,-1.2244706 L612.2122,-0.97373426 L613.0931,-0.7736381 L613.974,-0.61434793 L614.85486,-0.48803464 L615.7357,-0.38851568 L616.61664,-0.31096715 L617.4975,-0.25170058 L618.37836,-0.20799601 L619.2593,-0.17798698 L620.14014,-0.16059321 L621.021,-0.15549988 L621.9019,-0.1631847 L622.7828,-0.18499674 L623.66364,-0.22329347 L624.54456,-0.28164572 L625.4254,-0.36512226 L626.30634,-0.4806684 L627.1872,-0.63759124 L628.06805,-0.8481603 L628.949,-1.1283141 L629.82983,-1.4984248 L630.7107,-1.9839814 L631.5916,-2.6158953 L632.4725,-3.4299192 L633.35333,-4.464515 L634.23425,-5.7564435 L635.1151,-7.3334527 L635.996,-9.203998 L636.8769,-11.345092 L637.75775,-13.690962 L638.6386,-16.126158 L639.51953,-18.486427 L640.4004,-20.56903 L641.2813,-22.153048 L642.1622,-23.031046 L643.043,-23.053946 L643.92395,-22.183245 L644.8048,-20.526047 L645.68567,-18.318455 L646.5666,-15.852322 L647.44745,-13.388448 L648.3283,-11.105475 L649.2092,-9.09518 L650.0901,-7.3841105 L650.97095,-5.959847 L651.85187,-4.7913256 L652.7327,-3.8414774 L653.6136,-3.0739381 L654.4945,-2.4560573 L655.37537,-1.9598751 L656.2563,-1.5620996 L657.13715,-1.2436497 L658.018,-0.9890547 L658.8989,-0.7858518 L659.7798,-0.62405545 L660.66064,-0.49571267 L661.54156,-0.3945386 L662.4224,-0.31562486 L663.3033,-0.25521153 L664.1842,-0.21051711 L665.06506,-0.17961971 L665.9459,-0.16138682 L666.82684,-0.15545121 L667.7077,-0.16223486 L668.58856,-0.18302393 L669.4695,-0.22010167 L670.35034,-0.27694833 L671.2312,-0.35852 L672.1121,-0.4716203 L672.993,-0.625378 L673.8739,-0.8318398 L674.75476,-1.1066707 L675.6356,-1.4699178 L676.51654,-1.9467056 L677.3974,-2.5675821 L678.27826,-3.3680172 L679.1592,-4.3863983 L680.04004,-5.659798 L680.9209,-7.2168736 L681.8018,-9.067765 L682.6827,-11.192013 L683.56354,-13.527041 L684.44446,-15.960852 L685.3253,-18.332294 L686.2062,-20.440716 L687.0871,-22.065573 L687.96796,-22.997246 L688.8489,-23.081026 L689.72974,-22.269392 L690.6106,-20.659346 L691.4915,-18.480051 L692.3724,-16.02249 L693.25323,-13.55176 L694.13416,-11.252686 L695.015,-9.222423 L695.8959,-7.4910903 L696.7768,-6.048184 L697.65765,-4.863427 L698.5385,-3.8998926 L699.41943,-3.121042 L700.3003,-2.4939253 L701.18115,-1.9902569 L702.0621,-1.586439 L702.94293,-1.2631229 L703.82385,-1.0046117 L704.7047,-0.79825604 L705.5856,-0.6339171 L706.4665,-0.5035158 L707.34735,-0.40066403 L708.2282,-0.3203677 L709.10913,-0.25879484 L709.99,-0.2131017 L710.87085,-0.18131073 L711.7518,-0.16223697 L712.6326,-0.15546101 L713.5135,-0.16134939 L714.3944,-0.18112597 L715.27527,-0.21700071 L716.1561,-0.27236456 L717.03705,-0.35206264 L717.9179,-0.46275905 L718.7988,-0.613407 L719.6797,-0.8158337 L720.56055,-1.0854342 L721.44147,-1.4419335 L722.3223,-1.9100941 L723.2032,-2.5200982 L724.0841,-3.3071232 L724.96497,-4.3094635 L725.8458,-5.5644717 L726.72675,-7.1016645 L727.6076,-8.932813 L728.48846,-11.0399275 L729.3694,-13.363597 L730.25024,-15.795274 L731.1311,-18.176952 L732.012,-20.310163 L732.8929,-21.974874 L733.7738,-22.959482 L734.65466,-23.103907 L735.5355,-22.351793 L736.41644,-20.789988 L737.2973,-18.640373 L738.17816,-16.19263 L739.0591,-13.7159 L739.93994,-11.401166 L740.8208,-9.351063 L741.7017,-7.5994105 L742.5826,-6.1377163 L743.46344,-4.936551 L744.34436,-3.9591603 L745.2252,-3.168846 L746.1061,-2.5323622 L746.987,-2.0210986 L747.86786,-1.6111493 L748.7487,-1.2828946 L749.62964,-1.020409 L750.5105,-0.81085384 L751.3914,-0.64393497 L752.2723,-0.51144576 L753.15314,-0.40689328 L754.03406,-0.32519674 L754.9149,-0.26245126 L755.7958,-0.21575028 L756.6767,-0.18306024 L757.55756,-0.1631437 L758.4384,-0.15552905 L759.31934,-0.16052775 L760.2002,-0.17930199 L761.08105,-0.21398929 L761.962,-0.2678926 L762.84283,-0.34574774 L763.7237,-0.45408142 L764.6046,-0.601674 L765.4855,-0.8001365 L766.3664,-1.0645975 L767.24725,-1.4144635 L768.1281,-1.8741364 L769.00903,-2.4734313 L769.8899,-3.247225 L770.77075,-4.2337003 L771.6517,-5.4704566 L772.53253,-6.9878263 L773.4134,-8.799153 L774.2943,-10.888864 L775.1752,-13.200671 L776.056,-15.629479 L776.93695,-18.02047 L777.8178,-20.17744 L778.69867,-21.881012 L779.5796,-22.917795 L780.46045,-23.122585 L781.3414,-22.430395 L782.2222,-20.917887 L783.1031,-18.799326 L783.984,-16.36267 L784.86487,-13.880826 L785.7457,-11.550896 L786.62665,-9.481099 L787.5075,-7.709079 L788.38837,-6.228456 L789.2693,-5.0107093 L790.15015,-4.019292 L791.031,-3.2173588 L791.9119,-2.5713763 L792.7928,-2.0524073 L793.67365,-1.6362358 L794.55457,-1.3029691 L795.4354,-1.0364499 L796.31635,-0.823648 L797.1972,-0.6541113 L798.07806,-0.5195043 L798.959,-0.4132278 L799.83984,-0.33011302 L800.7207,-0.2661815 L801.6016,-0.21846332 L802.4825,-0.18486851 L803.36334,-0.164107 L804.24426,-0.15565509 L805.1251,-0.15976945 L806.006,-0.17755115 L806.8869,-0.21106617 L807.76776,-0.2635307 L808.6486,-0.33957288 L809.52954,-0.44558424 L810.4104,-0.5901749 L811.2913,-0.7847428 L812.1722,-1.0441537 L813.05304,-1.387499 L813.93396,-1.8388224 L814.8148,-2.4275696 L815.6957,-3.1883101 L816.5766,-4.1590962 L817.45746,-5.377745 L818.3383,-6.875358 L819.21924,-8.666796 L820.1001,-10.738845 L820.98096,-13.038306 L821.8619,-15.463527 L822.74274,-17.862915 L823.6236,-20.042622 L824.5045,-21.78405 L825.3854,-22.872223 L826.2663,-23.137062 L827.14716,-22.505148 L828.028,-21.042952 L828.90894,-18.956816 L829.7898,-16.532534 L830.67065,-14.04649 L831.5516,-11.701856 L832.43243,-9.612528 L833.3133,-7.8201027 L834.1942,-6.3204136 L835.0751,-5.085914 L835.95593,-4.0802975 L836.83685,-3.2665913 L837.7177,-2.6109757 L838.5986,-2.0841894 L839.4795,-1.6617043 L840.36035,-1.323351 L841.2412,-1.0527383 L842.12213,-0.8366413 L843.003,-0.66444856 L843.8839,-0.52769333 L844.7648,-0.4196689 L845.6456,-0.33511764 L846.52655,-0.2699864 L847.4074,-0.22124137 L848.28827,-0.18673584 L849.1692,-0.1651269 L850.05005,-0.15583889 L850.9309,-0.15907395 L851.8118,-0.17587261 L852.6927,-0.20823014 L853.57355,-0.25927716 L854.45447,-0.33353573 L855.3353,-0.43726435 L856.2162,-0.5789056 L857.0971,-0.7696473 L857.97797,-1.0240961 L858.8589,-1.3610317 L859.73975,-1.8041415 L860.6206,-2.382502 L861.5015,-3.1303663 L862.3824,-4.085641 L863.26324,-5.2863293 L864.14417,-6.764259 L865.025,-8.535752 L865.9059,-10.589897 L866.7868,-12.876542 L867.66766,-15.297472 L868.5485,-17.704355 L869.42944,-19.905773 L870.3103,-21.68405 L871.19116,-22.822805 L872.0721,-23.147335 L872.95294,-22.576004 L873.83386,-21.1651 L874.7147,-19.112747 L875.5956,-16.702143 L876.4765,-14.212843 L877.35736,-11.854024 L878.2382,-9.745347 L879.11914,-7.9324884 L880,-6.4136004" fill="none" stroke="black" stroke-linejoin="round" stroke-width="2"/>
</g>
</g>
<g>
<g>
<path d="M0,-14.779142 L0,-14.779142 L0.8808809,-16.018337 L1.7617618,-18.86024 L2.6426427,-23.630535 L3.5235236,-30.269361 L4.4044046,-38.28023 L5.2852855,-46.97241 L6.1661663,-55.742306 L7.047047,-64.19051 L7.927928,-72.103355 L8.808809,-79.39249 L9.68969,-86.04206 L10.570571,-92.073944 L11.451451,-97.527534 L12.332333,-102.448875 L13.213213,-106.88497 L14.094094,-110.881096 L14.974975,-114.47952 L15.855856,-117.71913 L16.736736,-120.63531 L17.617619,-123.26015 L18.498499,-125.622635 L19.37938,-127.74889 L20.26026,-129.66246 L21.141142,-131.38446 L22.022022,-132.9338 L22.902903,-134.3272 L23.783783,-135.57903 L24.664665,-136.70071 L25.545546,-137.69904 L26.426426,-138.57204 L27.307308,-139.29964 L28.188189,-139.82277 L29.069069,-140 L29.94995,-139.52972 L30.830832,-137.85896 L31.711712,-134.22775 L32.592594,-128.1054 L33.473473,-119.776855 L34.354355,-110.21705 L35.235237,-100.4025 L36.116116,-90.94559 L36.996998,-82.1318 L37.877876,-74.0554 L38.75876,-66.71779 L39.63964,-60.080418 L40.52052,-54.09001 L41.4014,-48.689976 L42.282284,-43.825306 L43.163162,-39.444553 L44.044044,-35.50046 L44.924927,-31.950039 L45.805805,-28.754372 L46.686687,-25.878374 L47.567566,-23.290524 L48.44845,-20.962643 L49.32933,-18.869804 L50.21021,-16.990404 L51.09109,-15.3066025 L51.971973,-13.805393 L52.85285,-12.480846 L53.733734,-11.33851 L54.614616,-10.403659 L55.495495,-9.736069 L56.376377,-9.454469 L57.257256,-9.771017 L58.138138,-11.022383 L59.01902,-13.650998 L59.8999,-18.062582 L60.78078,-24.368174 L61.661663,-32.22745 L62.54254,-40.995155 L63.423424,-50.019962 L64.304306,-58.828545 L65.18519,-67.14709 L66.06606,-74.84898 L66.946945,-81.89723 L67.82783,-88.303246 L68.70871,-94.10196 L69.58959,-99.33792 L70.470474,-104.05786 L71.35135,-108.306564 L72.23223,-112.124214 L73.11311,-115.54351 L73.993996,-118.58456 L74.87488,-121.244156 L75.75575,-123.472725 L76.636635,-125.12793 L77.51752,-125.89628 L78.3984,-125.216354 L79.27928,-122.36994 L80.160164,-116.955055 L81.04104,-109.387375 L81.92192,-100.66247 L82.8028,-91.70353 L83.683685,-83.07204 L84.56457,-75.02698 L85.44544,-67.65377 L86.326324,-60.95385 L87.20721,-54.892387 L88.08809,-49.421097 L88.96897,-44.488575 L89.84985,-40.044792 L90.73073,-36.042915 L91.61161,-32.439896 L92.49249,-29.196577 L93.373375,-26.277552 L94.25426,-23.650969 L95.13513,-21.288351 L96.016014,-19.164543 L96.8969,-17.257833 L97.77778,-15.550479 L98.65866,-14.029927 L99.53954,-12.691357 L100.42042,-11.542603 L101.3013,-10.613336 L102.18218,-9.971312 L103.063065,-9.748725 L103.94395,-10.1776285 L104.82482,-11.616612 L105.7057,-14.51522 L106.586586,-19.245377 L107.46747,-25.841091 L108.34835,-33.889355 L109.22923,-42.72395 L110.11011,-51.718166 L110.99099,-60.43641 L111.87187,-68.635574 L112.752754,-76.20856 L113.63364,-83.129105 L114.51451,-89.41383 L115.39539,-95.09971 L116.276276,-100.23152 L117.15716,-104.85506 L118.03804,-109.01307 L118.91892,-112.74198 L119.7998,-116.06726 L120.68068,-118.99432 L121.56156,-121.489265 L122.442444,-123.43935 L123.323326,-124.582596 L124.2042,-124.42293 L125.08508,-122.25742 L125.965965,-117.55329 L126.84685,-110.516884 L127.72773,-102.0617 L128.60861,-93.17185 L129.48949,-84.4982 L130.37038,-76.361244 L131.25125,-68.87912 L132.13213,-62.068707 L133.01302,-55.90184 L133.89389,-50.33279 L134.77478,-45.310844 L135.65565,-40.785835 L136.53653,-36.71045 L137.41742,-33.041042 L138.2983,-29.73783 L139.17918,-26.76479 L140.06006,-24.089487 L140.94095,-21.682886 L141.82182,-19.519274 L142.7027,-17.576355 L143.58359,-15.835697 L144.46446,-14.283836 L145.34535,-12.914561 L146.22623,-11.733417 L147.1071,-10.766119 L147.98799,-10.073592 L148.86887,-9.776757 L149.74976,-10.091136 L150.63063,-11.35705 L151.5115,-14.017643 L152.3924,-18.471453 L153.27327,-24.814056 L154.15416,-32.69077 L155.03503,-41.45252 L155.91591,-50.453407 L156.7968,-59.228004 L157.67767,-67.508705 L158.55856,-75.1727 L159.43944,-82.184875 L160.32033,-88.557365 L161.2012,-94.325134 L162.08208,-99.5323 L162.96297,-104.2247 L163.84384,-108.445564 L164.72473,-112.23215 L165.6056,-115.61128 L166.48648,-118.5908 L167.36737,-121.141464 L168.24825,-123.15974 L169.12914,-124.40009 L170.01001,-124.38892 L170.89088,-122.433 L171.77177,-117.961174 L172.65265,-111.104614 L173.53354,-102.73818 L174.41441,-93.86267 L175.29529,-85.161255 L176.17618,-76.97799 L177.05705,-69.4438 L177.93794,-62.581593 L178.81882,-56.36577 L179.6997,-50.751526 L180.58058,-45.688343 L181.46146,-41.125935 L182.34235,-37.01674 L183.22322,-33.31681 L184.10411,-29.986074 L184.98499,-26.988218 L185.86586,-24.29053 L186.74675,-21.863714 L187.62762,-19.681799 L188.50851,-17.722212 L189.38939,-15.966196 L190.27026,-14.39984 L191.15115,-13.016261 L192.03203,-11.819876 L192.91292,-10.834446 L193.7938,-10.117499 L194.67467,-9.784295 L195.55556,-10.041899 L196.43643,-11.22085 L197.31732,-13.75972 L198.1982,-18.068888 L199.07909,-24.275234 L199.95996,-32.056446 L200.84084,-40.775154 L201.72173,-49.77667 L202.6026,-58.57978 L203.48349,-66.90342 L204.36436,-74.61598 L205.24524,-81.677345 L206.12613,-88.0971 L207.007,-93.90905 L207.8879,-99.15694 L208.76877,-103.88663 L209.64964,-108.141655 L210.53053,-111.95983 L211.4114,-115.36892 L212.2923,-118.37855 L213.17317,-120.963005 L214.05405,-123.025734 L214.93494,-124.334015 L215.81581,-124.432205 L216.6967,-122.63643 L217.57758,-118.34757 L218.45847,-111.63588 L219.33934,-103.3411 L220.22021,-94.47529 L221.1011,-85.748024 L221.98198,-77.523224 L222.86287,-69.94273 L223.74374,-63.034615 L224.62462,-56.775463 L225.50551,-51.121258 L226.38638,-46.021633 L227.26727,-41.426186 L228.14815,-37.28712 L229.02902,-33.56024 L229.90991,-30.205198 L230.79079,-27.185425 L231.67168,-24.46797 L232.55255,-22.023308 L233.43343,-19.825232 L234.31432,-17.850931 L235.19519,-16.08136 L236.07608,-14.50222 L236.95695,-13.106039 L237.83784,-11.896254 L238.71872,-10.894923 L239.5996,-10.156608 L240.48048,-9.7916 L241.36136,-9.999456 L242.24225,-11.101795 L243.12312,-13.53237 L244.004,-17.710972 L244.88489,-23.792 L245.76576,-31.483303 L246.64665,-40.15975 L247.52753,-49.159622 L248.4084,-57.98744 L249.28929,-66.34962 L250.17017,-74.106255 L251.05106,-81.212494 L251.93193,-87.67546 L252.81282,-93.52787 L253.6937,-98.81307 L254.57457,-103.57696 L255.45546,-107.863335 L256.33633,-111.7105 L257.21722,-115.147125 L258.09808,-118.18446 L258.97897,-120.800064 L259.85986,-122.9039 L260.74075,-124.27528 L261.6216,-124.475945 L262.5025,-122.83255 L263.3834,-118.72178 L264.26425,-112.154945 L265.14514,-103.93428 L266.02603,-95.08056 L266.90692,-86.329056 L267.78778,-78.06375 L268.66867,-70.437645 L269.54956,-63.484116 L270.43042,-57.18203 L271.3113,-51.488194 L272.1922,-46.352417 L273.07306,-41.724186 L273.95395,-37.55548 L274.83484,-33.801853 L275.71573,-30.422684 L276.5966,-27.38116 L277.47748,-24.64409 L278.35837,-22.181715 L279.23923,-19.967607 L280.12012,-17.978716 L281.001,-16.195715 L281.8819,-14.603937 L282.76276,-13.195341 L283.64365,-11.972431 L284.52454,-10.955644 L285.4054,-10.1967125 L286.2863,-9.801172 L287.16718,-9.961318 L288.04803,-10.9899235 L288.92892,-13.315409 L289.8098,-17.365622 L290.6907,-23.321234 L291.57156,-30.920534 L292.45245,-39.552017 L293.33334,-48.54797 L294.2142,-57.398907 L295.0951,-65.798615 L295.97598,-73.598694 L296.85684,-80.74939 L297.73773,-87.2553 L298.61862,-93.147964 L299.4995,-98.47032 L300.38037,-103.268265 L301.26126,-107.585846 L302.14215,-111.46187 L303.023,-114.92582 L303.9039,-117.99053 L304.7848,-120.636665 L305.66568,-122.780396 L306.54654,-124.212585 L307.42743,-124.51215 L308.30832,-123.0175 L309.18918,-119.08423 L310.07007,-112.66582 L310.95096,-104.52394 L311.83182,-95.68561 L312.7127,-86.91158 L313.5936,-78.606476 L314.4745,-70.93494 L315.35535,-63.93596 L316.23624,-57.590797 L317.11713,-51.85716 L317.998,-46.685047 L318.87888,-42.023857 L319.75977,-37.82535 L320.64066,-34.044823 L321.5215,-30.641397 L322.4024,-27.578005 L323.2833,-24.821209 L324.16415,-22.341028 L325.04504,-20.110807 L325.92593,-18.107256 L326.8068,-16.31078 L327.68768,-14.706341 L328.56857,-13.285357 L329.44946,-12.049429 L330.33032,-11.017436 L331.2112,-10.23839 L332.0921,-9.813228 L332.97296,-9.927162 L333.85385,-10.884141 L334.73474,-13.106735 L335.6156,-17.029627 L336.4965,-22.85871 L337.37738,-30.363146 L338.25827,-38.946545 L339.13913,-47.93621 L340.02002,-56.80885 L340.9009,-65.245384 L341.78177,-73.088646 L342.66266,-80.28379 L343.54355,-86.83275 L344.42444,-92.76582 L345.3053,-98.12551 L346.1862,-102.95768 L347.06708,-107.306625 L347.94794,-111.2116 L348.82883,-114.70293 L349.70972,-117.794914 L350.59058,-120.47118 L351.47147,-122.65385 L352.35236,-124.144905 L353.23325,-124.540184 L354.1141,-123.19099 L354.995,-119.43483 L355.8759,-113.16858 L356.75674,-105.110435 L357.63763,-96.291016 L358.51852,-87.496284 L359.3994,-79.15209 L360.28027,-71.43529 L361.16116,-64.39076 L362.04205,-58.002335 L362.9229,-52.22866 L363.8038,-47.019985 L364.6847,-42.325615 L365.56555,-38.09711 L366.44644,-34.2895 L367.32733,-30.861649 L368.20822,-27.776234 L369.08908,-24.999578 L369.96997,-22.50147 L370.85086,-20.25503 L371.73172,-18.236732 L372.6126,-16.426708 L373.4935,-14.809572 L374.37436,-13.376207 L375.25525,-12.127347 L376.13614,-11.080369 L377.01703,-10.281664 L377.8979,-9.827724 L378.77878,-9.896854 L379.65967,-10.784205 L380.54053,-12.906033 L381.42142,-16.702667 L382.3023,-22.404135 L383.1832,-29.810833 L384.06406,-38.342945 L384.94495,-47.32389 L385.82584,-56.21678 L386.7067,-64.68944 L387.5876,-72.57564 L388.46848,-79.81524 L389.34933,-86.40739 L390.23022,-92.38107 L391.1111,-97.778305 L391.992,-102.6449 L392.87286,-107.02538 L393.75375,-110.95946 L394.63464,-114.47822 L395.5155,-117.59741 L396.3964,-120.30348 L397.27728,-122.52419 L398.15817,-124.07227 L399.03903,-124.560196 L399.91992,-123.35312 L400.8008,-119.77345 L401.68167,-113.66293 L402.56256,-105.69353 L403.44345,-96.896675 L404.3243,-88.08315 L405.2052,-79.700645 L406.0861,-71.93876 L406.96698,-64.8486 L407.84784,-58.416706 L408.72873,-52.602768 L409.60962,-47.357296 L410.49048,-42.629524 L411.37137,-38.37081 L412.25226,-34.535927 L413.13315,-31.083479 L414.014,-27.975887 L414.8949,-25.179232 L415.7758,-22.663073 L416.65665,-20.400303 L417.53754,-18.367167 L418.41843,-16.543528 L419.2993,-14.913649 L420.18018,-13.467904 L421.06107,-12.206186 L421.94196,-11.144429 L422.8228,-10.3265 L423.7037,-9.844594 L424.5846,-9.870277 L425.46545,-10.6899605 L426.34634,-12.713155 L427.22723,-16.3847 L428.1081,-21.95761 L428.98898,-29.26376 L429.86987,-37.741364 L430.75076,-46.71109 L431.63162,-55.62271 L432.5125,-64.13074 L433.3934,-72.05962 L434.27426,-79.34369 L435.15515,-85.97917 L436.03604,-91.99366 L436.91693,-97.42864 L437.7978,-102.32988 L438.67868,-106.74208 L439.55957,-110.70541 L440.44043,-114.25168 L441.32132,-117.398026 L442.2022,-120.13358 L443.08307,-122.39152 L443.96396,-123.99486 L444.84485,-124.57241 L445.72574,-123.504074 L446.6066,-120.1 L447.4875,-114.14856 L448.36838,-106.2729 L449.24924,-97.5024 L450.13013,-88.672104 L451.01102,-80.25212 L451.8919,-72.445366 L452.77277,-65.309494 L453.65366,-58.83394 L454.53455,-52.979504 L455.4154,-47.696995 L456.2963,-42.9356 L457.1772,-38.646465 L458.05804,-34.78412 L458.93893,-31.3069 L459.81982,-28.176975 L460.7007,-25.360182 L461.58157,-22.825846 L462.46246,-20.546637 L463.34335,-18.498568 L464.2242,-16.661238 L465.1051,-15.018573 L465.986,-13.560444 L466.86685,-12.285939 L467.74774,-11.2095995 L468.62863,-10.37286 L469.50952,-9.863765 L470.39038,-9.847321 L471.27127,-10.601257 L472.15216,-12.52797 L473.03302,-16.075703 L473.9139,-21.519266 L474.7948,-28.722145 L475.6757,-37.142 L476.55655,-46.09794 L477.43744,-55.026707 L478.31833,-63.569324 L479.1992,-71.54061 L480.08008,-78.86913 L480.96097,-85.54808 L481.84183,-91.60357 L482.72272,-97.076515 L483.6036,-102.012596 L484.4845,-106.45671 L485.36536,-110.44943 L486.24625,-114.0233 L487.12714,-117.19676 L488.008,-119.96151 L488.8889,-122.25589 L489.76978,-123.9128 L490.65067,-124.57707 L491.53152,-123.644035 L492.4124,-120.41438 L493.2933,-114.62513 L494.17416,-106.84825 L495.05505,-98.10802 L495.93594,-89.26306 L496.8168,-80.80648 L497.6977,-72.955086 L498.57858,-65.773445 L499.45947,-59.254044 L500.34033,-53.358883 L501.22122,-48.039104 L502.1021,-43.24386 L502.98297,-38.924095 L503.86386,-35.034092 L504.74475,-31.531927 L505.62564,-28.379509 L506.5065,-25.542435 L507.3874,-22.989796 L508.26828,-20.694038 L509.14914,-18.630941 L510.03003,-16.779846 L510.91092,-15.124346 L511.79178,-13.653829 L512.67267,-12.366599 L513.5535,-11.27586 L514.43445,-10.420705 L515.3153,-9.885169 L516.19617,-9.827872 L517.0771,-10.517951 L517.95795,-12.350344 L518.83887,-15.775642 L519.7197,-21.08923 L520.6006,-28.186209 L521.4815,-36.545055 L522.36237,-45.484573 L523.2432,-54.428852 L524.12415,-63.00523 L525.005,-71.01859 L525.88586,-78.39156 L526.7668,-85.1141 L527.64764,-91.210785 L528.5285,-96.72191 L529.4094,-101.69304 L530.2903,-106.16926 L531.17114,-110.19152 L532.05206,-113.79308 L532.9329,-116.99363 L533.81384,-119.78731 L534.6947,-122.11738 L535.57556,-123.82626 L536.4565,-124.57442 L537.33734,-123.77321 L538.2182,-120.71656 L539.0991,-115.092316 L539.98,-107.419235 L540.86084,-98.71329 L541.74176,-89.85592 L542.6226,-81.3637 L543.5035,-73.46793 L544.3844,-66.24047 L545.26526,-59.67704 L546.1461,-53.740925 L547.02704,-48.38364 L547.9079,-43.554314 L548.7888,-39.20371 L549.6697,-35.285854 L550.55054,-31.75857 L551.43146,-28.5835 L552.3123,-25.726002 L553.1932,-23.154932 L554.0741,-20.842514 L554.95496,-18.764294 L555.8358,-16.899359 L556.71674,-15.230971 L557.5976,-13.7480545 L558.47845,-12.448157 L559.3594,-11.343193 L560.24023,-10.47 L561.1211,-9.908742 L562.002,-9.811828 L562.8829,-10.439896 L563.7638,-12.180138 L564.64465,-15.48448 L565.5255,-20.667614 L566.40643,-27.656166 L567.2873,-35.95075 L568.16815,-44.87115 L569.0491,-53.829227 L569.92993,-62.438484 L570.8108,-70.4936 L571.6917,-77.91097 L572.5726,-84.677216 L573.4534,-90.815285 L574.33435,-96.36481 L575.2152,-101.3712 L576.09607,-105.87971 L576.977,-109.93167 L577.85785,-113.56102 L578.7387,-116.788635 L579.6196,-119.611 L580.5005,-121.976074 L581.3814,-123.73538 L582.26227,-124.56466 L583.1431,-123.891815 L584.02405,-121.006485 L584.9049,-115.549835 L585.78577,-107.985535 L586.6667,-99.31802 L587.54755,-90.45058 L588.4284,-81.92374 L589.3093,-73.9839 L590.1902,-66.71058 L591.07104,-60.102943 L591.95197,-54.125645 L592.8328,-48.730614 L593.7137,-43.866978 L594.5946,-39.48532 L595.47546,-35.539425 L596.3564,-31.986837 L597.23724,-28.78896 L598.1181,-25.91089 L598.999,-23.321264 L599.8799,-20.992071 L600.76074,-18.898632 L601.64166,-17.019775 L602.5225,-15.338451 L603.4034,-13.843122 L604.2843,-12.530607 L605.16516,-11.411582 L606.046,-10.52071 L606.92694,-9.93442 L607.8078,-9.799082 L608.68866,-10.366949 L609.5696,-12.01721 L610.45044,-15.202167 L611.33136,-20.25453 L612.2122,-27.13223 L613.0931,-35.359287 L613.974,-44.257813 L614.85486,-53.22792 L615.7357,-61.86913 L616.61664,-69.96562 L617.4975,-77.42736 L618.37836,-84.23743 L619.2593,-90.41707 L620.14014,-96.005196 L621.021,-101.04706 L621.9019,-105.58804 L622.7828,-109.669876 L623.66364,-113.3271 L624.54456,-116.58178 L625.4254,-119.43261 L626.30634,-121.83203 L627.1872,-123.64031 L628.06805,-124.54804 L628.949,-124.00006 L629.82983,-121.28416 L630.7107,-115.997375 L631.5916,-108.54679 L632.4725,-99.92199 L633.35333,-91.04692 L634.23425,-82.48654 L635.1151,-74.502975 L635.996,-67.18378 L636.8769,-60.531765 L637.75775,-54.513054 L638.6386,-49.080044 L639.51953,-44.181873 L640.4004,-39.768948 L641.2813,-35.794807 L642.1622,-32.216747 L643.043,-28.995893 L643.92395,-26.097113 L644.8048,-23.488798 L645.68567,-21.142715 L646.5666,-19.03396 L647.44745,-17.141106 L648.3283,-15.446788 L649.2092,-13.939028 L650.0901,-12.613944 L650.97095,-11.4810095 L651.85187,-10.572802 L652.7327,-9.96214 L653.6136,-9.7895355 L654.4945,-10.29897 L655.37537,-11.861419 L656.2563,-14.928642 L657.13715,-19.85007 L658.018,-26.614613 L658.8989,-34.77089 L659.7798,-43.644726 L660.66064,-52.62502 L661.54156,-61.29721 L662.4224,-69.43469 L663.3033,-76.94072 L664.1842,-83.79471 L665.06506,-90.01611 L665.9459,-95.64305 L666.82684,-100.7206 L667.7077,-105.294266 L668.58856,-109.40612 L669.4695,-113.09134 L670.35034,-116.37307 L671.2312,-119.25217 L672.1121,-121.68532 L672.993,-123.54117 L673.8739,-124.52477 L674.75476,-124.098175 L675.6356,-121.549576 L676.51654,-116.43466 L677.3974,-109.102684 L678.27826,-100.524956 L679.1592,-91.64484 L680.04004,-83.05208 L680.9209,-75.025154 L681.8018,-67.66007 L682.6827,-60.963516 L683.56354,-54.903175 L684.44446,-49.43195 L685.3253,-44.49901 L686.2062,-40.0546 L687.0871,-36.052025 L687.96796,-32.448303 L688.8489,-29.204317 L689.72974,-26.284678 L690.6106,-23.657543 L691.4915,-21.294458 L692.3724,-19.170284 L693.25323,-17.26335 L694.13416,-15.5559845 L695.015,-14.035775 L695.8959,-12.69816 L696.7768,-11.551461 L697.65765,-10.626245 L698.5385,-9.991847 L699.41943,-9.783091 L700.3003,-10.235822 L701.18115,-11.712618 L702.0621,-14.663838 L702.94293,-19.45432 L703.82385,-26.10352 L704.7047,-34.185776 L705.5856,-43.032047 L706.4665,-52.02062 L707.34735,-60.72277 L708.2282,-68.90081 L709.10913,-76.45104 L709.99,-83.34907 L710.87085,-89.612404 L711.7518,-95.27837 L712.6326,-100.391815 L713.5135,-104.99835 L714.3944,-109.140396 L715.27527,-112.853714 L716.1561,-116.16252 L717.03705,-119.06969 L717.9179,-121.535995 L718.7988,-123.4381 L719.6797,-124.49508 L720.56055,-124.186386 L721.44147,-121.80277 L722.3223,-116.861435 L723.2032,-109.65285 L724.0841,-101.12668 L724.96497,-92.2442 L725.8458,-83.6203 L726.72675,-75.55042 L727.6076,-68.139465 L728.48846,-61.398216 L729.3694,-55.29602 L730.25024,-49.78634 L731.1311,-44.8184 L732.012,-40.342297 L732.8929,-36.31108 L733.7738,-32.681522 L734.65466,-29.414238 L735.5355,-26.473593 L736.41644,-23.827509 L737.2973,-21.447304 L738.17816,-19.307611 L739.0591,-17.386517 L739.93994,-15.666043 L740.8208,-14.133361 L741.7017,-12.783251 L742.5826,-11.622924 L743.46344,-10.681006 L744.34436,-10.023483 L745.2252,-9.779653 L746.1061,-10.177366 L746.987,-11.570659 L747.86786,-14.4076805 L748.7487,-19.067354 L749.62964,-25.599148 L750.5105,-33.604164 L751.3914,-42.419945 L752.2723,-51.414818 L753.15314,-60.145855 L754.03406,-68.36399 L754.9149,-75.95834 L755.7958,-82.90048 L756.6767,-89.20593 L757.55756,-94.91114 L758.4384,-100.060684 L759.31934,-104.700294 L760.2002,-108.87269 L761.08105,-112.61423 L761.962,-115.950134 L762.84283,-118.88521 L763.7237,-121.384125 L764.6046,-123.331215 L765.4855,-124.45916 L766.3664,-124.26494 L767.24725,-122.04381 L768.1281,-117.27743 L769.00903,-110.196945 L769.8899,-101.726906 L770.77075,-92.84489 L771.6517,-84.19116 L772.53253,-76.07877 L773.4134,-68.62198 L774.2943,-61.835873 L775.1752,-55.691605 L776.056,-50.143234 L776.93695,-45.140068 L777.8178,-40.632046 L778.69867,-36.571995 L779.5796,-32.916416 L780.46045,-29.62567 L781.3414,-26.663868 L782.2222,-23.998701 L783.1031,-21.60126 L783.984,-19.445948 L784.86487,-17.510607 L785.7457,-15.776967 L786.62665,-14.231787 L787.5075,-12.869211 L788.38837,-11.695381 L789.2693,-10.737061 L790.15015,-10.0569935 L791.031,-9.779129 L791.9119,-10.12347 L792.7928,-11.435394 L793.67365,-14.160084 L794.55457,-18.689238 L795.4354,-25.101694 L796.31635,-33.026283 L797.1972,-41.808586 L798.07806,-50.80772 L798.959,-59.566517 L799.83984,-67.824265 L800.7207,-75.46261 L801.6016,-82.448944 L802.4825,-88.796684 L803.36334,-94.541336 L804.24426,-99.7272 L805.1251,-104.40008 L806.006,-108.603 L806.8869,-112.37287 L807.76776,-115.7359 L808.6486,-118.69874 L809.52954,-121.22977 L810.4104,-123.22064 L811.2913,-124.41723 L812.1722,-124.33407 L813.05304,-122.27274 L813.93396,-117.68242 L814.8148,-110.73463 L815.6957,-102.32538 L816.5766,-93.44676 L817.45746,-84.76459 L818.3383,-76.61019 L819.21924,-69.107605 L820.1001,-62.27651 L820.98096,-56.089947 L821.8619,-50.50265 L822.74274,-45.464024 L823.6236,-40.923866 L824.5045,-36.834774 L825.3854,-33.152992 L826.2663,-29.83862 L827.14716,-26.855515 L828.028,-24.171131 L828.90894,-21.756332 L829.7898,-19.5853 L830.67065,-17.63563 L831.5516,-15.888761 L832.43243,-14.331053 L833.3133,-12.956037 L834.1942,-11.768823 L835.0751,-10.794377 L835.95593,-10.092327 L836.83685,-9.781432 L837.7177,-10.074002 L838.5986,-11.306675 L839.4795,-13.920956 L840.36035,-18.320019 L841.2412,-24.611347 L842.12213,-32.45235 L843.003,-41.198154 L843.8839,-50.199432 L844.7648,-58.984806 L845.6456,-67.28164 L846.52655,-74.963844 L847.4074,-81.99445 L848.28827,-88.38464 L849.1692,-94.168945 L850.05005,-99.39135 L850.9309,-104.097694 L851.8118,-108.33131 L852.6927,-112.12964 L853.57355,-115.51983 L854.45447,-118.5103 L855.3353,-121.07296 L856.2162,-123.10649 L857.0971,-124.369484 L857.97797,-124.39401 L858.8589,-122.48966 L859.73975,-118.07619 L860.6206,-111.265526 L861.5015,-102.92184 L862.3824,-94.049675 L863.26324,-85.34054 L864.14417,-77.14465 L865.025,-69.59635 L865.9059,-62.720127 L866.7868,-56.491062 L867.66766,-50.864605 L868.5485,-45.79028 L869.42944,-41.21777 L870.3103,-37.099438 L871.19116,-33.39127 L872.0721,-30.053099 L872.95294,-27.04854 L873.83386,-24.344805 L874.7147,-21.91253 L875.5956,-19.725674 L876.4765,-17.761587 L877.35736,-16.001425 L878.2382,-14.431159 L879.11914,-13.043723 L880,-11.843234" fill="none" stroke="black" stroke-linejoin="round" stroke-width="2"/>
</g>
</g>
<g>
<g>
<path d="M0,-35.571 L0,-35.571 L0.8808809,-32.56445 L1.7617618,-29.762585 L2.6426427,-27.093746 L3.5235236,-24.562435 L4.4044046,-22.202936 L5.2852855,-20.036024 L6.1661663,-18.063509 L7.047047,-16.27638 L7.927928,-14.661252 L8.808809,-13.203578 L9.68969,-11.889069 L10.570571,-10.704252 L11.451451,-9.636678 L12.332333,-8.674955 L13.213213,-7.808724 L14.094094,-7.02859 L14.974975,-6.3260555 L15.855856,-5.693443 L16.736736,-5.1238217 L17.617619,-4.6109405 L18.498499,-4.1491623 L19.37938,-3.7334068 L20.26026,-3.3590953 L21.141142,-3.0221028 L22.022022,-2.7187133 L22.902903,-2.4455795 L23.783783,-2.1996875 L24.664665,-1.9783219 L25.545546,-1.7790387 L26.426426,-1.5996367 L27.307308,-1.4381347 L28.188189,-1.2927499 L29.069069,-1.1618804 L29.94995,-1.0440899 L30.830832,-0.9380994 L31.711712,-0.84278387 L32.592594,-0.75717634 L33.473473,-0.68046653 L34.354355,-0.6119843 L35.235237,-0.5511756 L36.116116,-0.4975917 L36.996998,-0.4508943 L37.877876,-0.41087025 L38.75876,-0.37745142 L39.63964,-0.3507403 L40.52052,-0.33104295 L41.4014,-0.31891155 L42.282284,-0.3152004 L43.163162,-0.32113823 L44.044044,-0.33842233 L44.924927,-0.3693396 L45.805805,-0.41692254 L46.686687,-0.48514828 L47.567566,-0.57919097 L48.44845,-0.7057389 L49.32933,-0.8733852 L50.21021,-1.093092 L51.09109,-1.3786993 L51.971973,-1.7473689 L52.85285,-2.2196398 L53.733734,-2.8182416 L54.614616,-3.5635908 L55.495495,-4.4615707 L56.376377,-5.476936 L57.257256,-6.492518 L58.138138,-7.292806 L59.01902,-7.660589 L59.8999,-7.5589623 L60.78078,-7.144124 L61.661663,-6.594898 L62.54254,-6.018111 L63.423424,-5.460974 L64.304306,-4.941034 L65.18519,-4.4633193 L66.06606,-4.027789 L66.946945,-3.6323798 L67.82783,-3.2742708 L68.70871,-2.9504354 L69.58959,-2.6578853 L70.470474,-2.3937783 L71.35135,-2.155465 L72.23223,-1.9405036 L73.11311,-1.746659 L73.993996,-1.5718945 L74.87488,-1.4143603 L75.75575,-1.2723811 L76.636635,-1.1444447 L77.51752,-1.0291927 L78.3984,-0.92541677 L79.27928,-0.83206177 L80.160164,-0.7482329 L81.04104,-0.673194 L81.92192,-0.6063478 L82.8028,-0.54721135 L83.683685,-0.49540943 L84.56457,-0.45068508 L85.44544,-0.41292042 L86.326324,-0.38216287 L87.20721,-0.35865846 L88.08809,-0.34289363 L88.96897,-0.3356494 L89.84985,-0.33807132 L90.73073,-0.35175988 L91.61161,-0.37888715 L92.49249,-0.4223468 L93.373375,-0.48594537 L94.25426,-0.5746451 L95.13513,-0.6948684 L96.016014,-0.8548716 L96.8969,-1.0651867 L97.77778,-1.3390976 L98.65866,-1.6930302 L99.53954,-2.146514 L100.42042,-2.7208097 L101.3013,-3.4340386 L102.18218,-4.2883506 L103.063065,-5.242948 L103.94395,-6.1758204 L104.82482,-6.877873 L105.7057,-7.160802 L106.586586,-7.019315 L107.46747,-6.610203 L108.34835,-6.0922456 L109.22923,-5.555881 L110.11011,-5.040367 L110.99099,-4.560156 L111.87187,-4.1192417 L112.752754,-3.7173529 L113.63364,-3.3524992 L114.51451,-3.022051 L115.39539,-2.7232087 L116.276276,-2.4532146 L117.15716,-2.2094502 L118.03804,-1.9894748 L118.91892,-1.7910388 L119.7998,-1.6120834 L120.68068,-1.4507325 L121.56156,-1.3052828 L122.442444,-1.1741939 L123.323326,-1.0560784 L124.2042,-0.94969845 L125.08508,-0.85396695 L125.965965,-0.76795536 L126.84685,-0.6908961 L127.72773,-0.6221666 L128.60861,-0.56126356 L129.48949,-0.5077913 L130.37038,-0.4614692 L131.25125,-0.42215112 L132.13213,-0.38985097 L133.01302,-0.36477482 L133.89389,-0.3473611 L134.77478,-0.3383324 L135.65565,-0.33876255 L136.53653,-0.35016286 L137.41742,-0.37459397 L138.2983,-0.41480923 L139.17918,-0.47443804 L140.06006,-0.5582191 L140.94095,-0.67229265 L141.82182,-0.82456195 L142.7027,-1.0251226 L143.58359,-1.2867348 L144.46446,-1.6252375 L145.34535,-2.05961 L146.22623,-2.6108978 L147.1071,-3.2980986 L147.98799,-4.1269617 L148.86887,-5.065548 L149.74976,-6.006579 L150.63063,-6.751793 L151.5115,-7.099883 L152.3924,-7.013973 L153.27327,-6.635784 L154.15416,-6.1302257 L155.03503,-5.5969906 L155.91591,-5.080685 L156.7968,-4.598153 L157.67767,-4.1543956 L158.55856,-3.7495666 L159.43944,-3.3818605 L160.32033,-3.0487254 L161.2012,-2.7473915 L162.08208,-2.475108 L162.96297,-2.2292511 L163.84384,-2.0073705 L164.72473,-1.807204 L165.6056,-1.6266793 L166.48648,-1.463907 L167.36737,-1.3171711 L168.24825,-1.1849182 L169.12914,-1.0657493 L170.01001,-0.9584142 L170.89088,-0.86181337 L171.77177,-0.7750049 L172.65265,-0.69720834 L173.53354,-0.62779033 L174.41441,-0.56623864 L175.29529,-0.512149 L176.17618,-0.46523085 L177.05705,-0.4253264 L177.93794,-0.39243567 L178.81882,-0.36674783 L179.6997,-0.34868106 L180.58058,-0.33893308 L181.46146,-0.33854687 L182.34235,-0.3489953 L183.22322,-0.37229073 L184.10411,-0.41112545 L184.98499,-0.46905187 L185.86586,-0.55071104 L186.74675,-0.6621203 L187.62762,-0.8110285 L188.50851,-1.0073407 L189.38939,-1.2635889 L190.27026,-1.595357 L191.15115,-2.0213876 L192.03203,-2.5626426 L192.91292,-3.238532 L193.7938,-4.0564632 L194.67467,-4.988616 L195.55556,-5.9347777 L196.43643,-6.7024326 L197.31732,-7.0846305 L198.1982,-7.0282626 L199.07909,-6.6662087 L199.95996,-6.1663246 L200.84084,-5.633507 L201.72173,-5.1154637 L202.6026,-4.6304307 L203.48349,-4.183986 L204.36436,-3.7765207 L205.24524,-3.4063246 L206.12613,-3.0708814 L207.007,-2.7674289 L207.8879,-2.4932122 L208.76877,-2.245598 L209.64964,-2.0221236 L210.53053,-1.8205138 L211.4114,-1.6386837 L212.2923,-1.4747314 L213.17317,-1.3269296 L214.05405,-1.1937137 L214.93494,-1.0736743 L215.81581,-0.96555114 L216.6967,-0.86823374 L217.57758,-0.78076917 L218.45847,-0.7023659 L219.33934,-0.63238114 L220.22021,-0.57029516 L221.1011,-0.515696 L221.98198,-0.46828485 L222.86287,-0.4278939 L223.74374,-0.39451128 L224.62462,-0.368312 L225.50551,-0.3496968 L226.38638,-0.33934218 L227.26727,-0.33826473 L228.14815,-0.3479044 L229.02902,-0.37023208 L229.90991,-0.4078878 L230.79079,-0.46435767 L231.67168,-0.54419905 L232.55255,-0.65332335 L233.43343,-0.799347 L234.31432,-0.99201095 L235.19519,-1.2436504 L236.07608,-1.5696285 L236.95695,-1.9884808 L237.83784,-2.5210881 L238.71872,-3.1871946 L239.5996,-3.9955962 L240.48048,-4.9219823 L241.36136,-5.872331 L242.24225,-6.659579 L243.12312,-7.072519 L244.004,-7.0435357 L244.88489,-6.6967077 L245.76576,-6.202166 L246.64665,-5.669642 L247.52753,-5.1498203 L248.4084,-4.6622825 L249.28929,-4.2131653 L250.17017,-3.8030856 L251.05106,-3.430426 L251.93193,-3.0927014 L252.81282,-2.787157 L253.6937,-2.5110333 L254.57457,-2.2616863 L255.45546,-2.036641 L256.33633,-1.833609 L257.21722,-1.6504928 L258.09808,-1.4853786 L258.97897,-1.3365271 L259.85986,-1.2023634 L260.74075,-1.0814674 L261.6216,-0.97256875 L262.5025,-0.87454677 L263.3834,-0.78643733 L264.26425,-0.70743823 L265.14514,-0.6368973 L266.02603,-0.5742871 L266.90692,-0.51918834 L267.78778,-0.4712941 L268.66867,-0.43042693 L269.54956,-0.39656335 L270.43042,-0.36986455 L271.3113,-0.35071447 L272.1922,-0.33976895 L273.07306,-0.33801898 L273.95395,-0.34687263 L274.83484,-0.36826053 L275.71573,-0.40477207 L276.5966,-0.4598292 L277.47748,-0.537908 L278.35837,-0.64481735 L279.23923,-0.7880449 L280.12012,-0.97717243 L281.001,-1.2243434 L281.8819,-1.5447044 L282.76276,-1.9565842 L283.64365,-2.48077 L284.52454,-3.1372943 L285.4054,-3.9362257 L286.2863,-4.8565445 L287.16718,-5.810201 L288.04803,-6.615812 L288.92892,-7.0588417 L289.8098,-7.0575924 L290.6907,-6.726633 L291.57156,-6.2378454 L292.45245,-5.705801 L293.33334,-5.1842713 L294.2142,-4.694251 L295.0951,-4.2424636 L295.97598,-3.8297656 L296.85684,-3.4546342 L297.73773,-3.11462 L298.61862,-2.8069754 L299.4995,-2.5289361 L300.38037,-2.2778485 L301.26126,-2.0512247 L302.14215,-1.8467643 L303.023,-1.6623564 L303.9039,-1.4960748 L304.7848,-1.3461689 L305.66568,-1.2110529 L306.54654,-1.0892965 L307.42743,-0.979619 L308.30832,-0.8808896 L309.18918,-0.7921333 L310.07007,-0.7125367 L310.95096,-0.64143854 L311.83182,-0.5783034 L312.7127,-0.52270484 L313.5936,-0.47432777 L314.4745,-0.43298528 L315.35535,-0.39864257 L316.23624,-0.37144706 L317.11713,-0.35176614 L317.998,-0.34023538 L318.87888,-0.33782065 L319.75977,-0.3458985 L320.64066,-0.3663602 L321.5215,-0.4017452 L322.4024,-0.4554125 L323.2833,-0.5317583 L324.16415,-0.6364907 L325.04504,-0.77697074 L325.92593,-0.96262336 L326.8068,-1.2054027 L327.68768,-1.5202404 L328.56857,-1.9252559 L329.44946,-2.4411294 L330.33032,-3.0881412 L331.2112,-3.8775363 L332.0921,-4.791409 L332.97296,-5.7475176 L333.85385,-6.570405 L334.73474,-7.0430803 L335.6156,-7.0701365 L336.4965,-6.755867 L337.37738,-6.273349 L338.25827,-5.7420163 L339.13913,-5.218867 L340.02002,-4.7263923 L340.9009,-4.2719374 L341.78177,-3.8566136 L342.66266,-3.4789994 L343.54355,-3.136683 L344.42444,-2.8269258 L345.3053,-2.5469592 L346.1862,-2.2941196 L347.06708,-2.0659075 L347.94794,-1.860009 L348.82883,-1.6743006 L349.70972,-1.5068439 L350.59058,-1.3558766 L351.47147,-1.2198019 L352.35236,-1.0971793 L353.23325,-0.98671806 L354.1141,-0.8872769 L354.995,-0.79787 L355.8759,-0.7176731 L356.75674,-0.6460153 L357.63763,-0.5823534 L358.51852,-0.5262537 L359.3994,-0.4773931 L360.28027,-0.43557522 L361.16116,-0.4007541 L362.04205,-0.37306365 L362.9229,-0.352855 L363.8038,-0.34074354 L364.6847,-0.33767045 L365.56555,-0.34498137 L366.44644,-0.3645287 L367.32733,-0.39880285 L368.20822,-0.45110074 L369.08908,-0.5257401 L369.96997,-0.62832975 L370.85086,-0.7661061 L371.73172,-0.9483395 L372.6126,-1.1867969 L373.4935,-1.4961962 L374.37436,-1.8944451 L375.25525,-2.4021044 L376.13614,-3.039665 L377.01703,-3.8194563 L377.8979,-4.726519 L378.77878,-5.6842537 L379.65967,-6.5233374 L380.54053,-7.0251727 L381.42142,-7.0810823 L382.3023,-6.784352 L383.1832,-6.3086514 L384.06406,-5.7782807 L384.94495,-5.2536087 L385.82584,-4.7587104 L386.7067,-4.3015924 L387.5876,-3.8836355 L388.46848,-3.5035274 L389.34933,-3.1588962 L390.23022,-2.8470132 L391.1111,-2.565107 L391.992,-2.3105042 L392.87286,-2.080693 L393.75375,-1.8733467 L394.63464,-1.6863289 L395.5155,-1.5176889 L396.3964,-1.3656527 L397.27728,-1.2286128 L398.15817,-1.105118 L399.03903,-0.99386775 L399.91992,-0.8937103 L400.8008,-0.80364907 L401.68167,-0.72284883 L402.56256,-0.65062886 L403.44345,-0.58643824 L404.3243,-0.5298359 L405.2052,-0.4804908 L406.0861,-0.43819737 L406.96698,-0.40289846 L407.84784,-0.37471473 L408.72873,-0.35398108 L409.60962,-0.3412933 L410.49048,-0.33756807 L411.37137,-0.34412056 L412.25226,-0.36276495 L413.13315,-0.39594343 L414.014,-0.44689184 L414.8949,-0.51985055 L415.7758,-0.6203308 L416.65665,-0.75544626 L417.53754,-0.93431467 L418.41843,-1.1685182 L419.2993,-1.472562 L420.18018,-1.8641403 L421.06107,-2.3636832 L421.94196,-2.9918563 L422.8228,-3.761989 L423.7037,-4.6619034 L424.5846,-5.62047 L425.46545,-6.4746666 L426.34634,-7.00511 L427.22723,-7.090369 L428.1081,-6.8120365 L428.98898,-6.343727 L429.86987,-5.814585 L430.75076,-5.288494 L431.63162,-4.791206 L432.5125,-4.3314295 L433.3934,-3.910833 L434.27426,-3.5282195 L435.15515,-3.1812606 L436.03604,-2.8672392 L436.91693,-2.583381 L437.7978,-2.3270032 L438.67868,-2.0955822 L439.55957,-1.8867781 L440.44043,-1.698442 L441.32132,-1.5286105 L442.2022,-1.3754982 L443.08307,-1.2374862 L443.96396,-1.1131133 L444.84485,-1.0010687 L445.72574,-0.90019035 L446.6066,-0.8094709 L447.4875,-0.7280641 L448.36838,-0.6552796 L449.24924,-0.5905581 L450.13013,-0.53345156 L451.01102,-0.4836211 L451.8919,-0.44085178 L452.77277,-0.40507564 L453.65366,-0.3764001 L454.53455,-0.35514426 L455.4154,-0.34188434 L456.2963,-0.337513 L457.1772,-0.34331542 L458.05804,-0.36106813 L458.93893,-0.3931658 L459.81982,-0.44278422 L460.7007,-0.5140877 L461.58157,-0.61249125 L462.46246,-0.7449878 L463.34335,-0.92054456 L464.2242,-1.1505611 L465.1051,-1.4493314 L465.986,-1.8343345 L466.86685,-2.325859 L467.74774,-2.9447134 L468.62863,-3.7051442 L469.50952,-4.597598 L470.39038,-5.556234 L471.27127,-6.42446 L472.15216,-6.982894 L473.03302,-7.0979404 L473.9139,-6.8388677 L474.7948,-6.3785486 L475.6757,-5.8509173 L476.55655,-5.3235188 L477.43744,-4.823877 L478.31833,-4.3614483 L479.1992,-3.9382062 L480.08008,-3.5530763 L480.96097,-3.2037773 L481.84183,-2.8876047 L482.72272,-2.601782 L483.6036,-2.3436177 L484.4845,-2.110576 L485.36536,-1.9003042 L486.24625,-1.7106405 L487.12714,-1.5396094 L488.008,-1.3854133 L488.8889,-1.2464226 L489.76978,-1.1211656 L490.65067,-1.0083212 L491.53152,-0.9067173 L492.4124,-0.8153357 L493.2933,-0.7333193 L494.17416,-0.6599674 L495.05505,-0.59471315 L495.93594,-0.53710085 L496.8168,-0.48678392 L497.6977,-0.44353846 L498.57858,-0.40728554 L499.45947,-0.37811974 L500.34033,-0.35634428 L501.22122,-0.34251636 L502.1021,-0.3375048 L502.98297,-0.34256533 L503.86386,-0.35943735 L504.74475,-0.3904688 L505.62564,-0.43877637 L506.5065,-0.5084495 L507.3874,-0.6048086 L508.26828,-0.73472744 L509.14914,-0.90702516 L510.03003,-1.1329206 L510.91092,-1.4264984 L511.79178,-1.8050208 L512.67267,-2.2886257 L513.5535,-2.898233 L514.43445,-3.6489308 L515.3153,-4.5336356 L516.19617,-5.4916124 L517.0771,-6.3727884 L517.95795,-6.9585333 L518.83887,-7.1037416 L519.7197,-6.864792 L520.6006,-6.413086 L521.4815,-5.8872657 L522.36237,-5.3586774 L523.2432,-4.8567224 L524.12415,-4.3916497 L525.005,-3.965756 L525.88586,-3.5780993 L526.7668,-3.226447 L527.64764,-2.9081104 L528.5285,-2.6203108 L529.4094,-2.3603482 L530.2903,-2.1256747 L531.17114,-1.9139255 L532.05206,-1.7229253 L532.9329,-1.5506861 L533.81384,-1.3953987 L534.6947,-1.2554225 L535.57556,-1.1292752 L536.4565,-1.0156256 L537.33734,-0.9132914 L538.2182,-0.82124376 L539.0991,-0.7386144 L539.98,-0.66469276 L540.86084,-0.5989035 L541.74176,-0.5407838 L542.6226,-0.48997942 L543.5035,-0.44625738 L544.3844,-0.40952814 L545.26526,-0.3798734 L546.1461,-0.35758096 L547.02704,-0.34318894 L547.9079,-0.33754295 L548.7888,-0.3418696 L549.6697,-0.3578717 L550.55054,-0.38785133 L551.43146,-0.43486685 L552.3123,-0.5029341 L553.1932,-0.5972804 L554.0741,-0.7246621 L554.95496,-0.89375246 L555.8358,-1.1155919 L556.71674,-1.4040569 L557.5976,-1.7761923 L558.47845,-2.2519765 L559.3594,-2.8524127 L560.24023,-3.5933566 L561.1211,-4.470049 L562.002,-5.4266706 L562.8829,-6.319724 L563.7638,-6.9320426 L564.64465,-7.10772 L565.5255,-6.8897533 L566.40643,-6.4473095 L567.2873,-5.9236164 L568.16815,-5.3939667 L569.0491,-4.8897414 L569.92993,-4.4220333 L570.8108,-3.993483 L571.6917,-3.6032887 L572.5726,-3.2492712 L573.4534,-2.9287572 L574.33435,-2.6389682 L575.2152,-2.3771956 L576.09607,-2.1408796 L576.977,-1.9276427 L577.85785,-1.7352966 L578.7387,-1.561841 L579.6196,-1.4054549 L580.5005,-1.2644863 L581.3814,-1.1374425 L582.26227,-1.0229822 L583.1431,-0.91991305 L584.02405,-0.8271953 L584.9049,-0.7439497 L585.78577,-0.6694556 L586.6667,-0.6031292 L587.54755,-0.5445005 L588.4284,-0.4932076 L589.3093,-0.44900858 L590.1902,-0.4118034 L591.07104,-0.38166103 L591.95197,-0.358854 L592.8328,-0.34390184 L593.7137,-0.33762705 L594.5946,-0.3412276 L595.47546,-0.35637042 L596.3564,-0.38531223 L597.23724,-0.43105417 L598.1181,-0.49753958 L598.999,-0.5899041 L599.8799,-0.71478873 L600.76074,-0.8807225 L601.64166,-1.09857 L602.5225,-1.3820012 L603.4034,-1.7478426 L604.2843,-2.2159052 L605.16516,-2.8072488 L606.046,-3.538429 L606.92694,-4.4068675 L607.8078,-5.3614707 L608.68866,-6.265341 L609.5696,-6.90344 L610.45044,-7.1098256 L611.33136,-6.9136963 L612.2122,-6.481186 L613.0931,-5.9599557 L613.974,-5.42938 L614.85486,-4.922932 L615.7357,-4.452599 L616.61664,-4.021388 L617.4975,-3.6286454 L618.37836,-3.27225 L619.2593,-2.949546 L620.14014,-2.6577551 L621.021,-2.3941605 L621.9019,-2.156191 L622.7828,-1.9414563 L623.66364,-1.7477553 L624.54456,-1.5730748 L625.4254,-1.4155823 L626.30634,-1.2736144 L627.1872,-1.1456679 L628.06805,-1.0303915 L628.949,-0.92658246 L629.82983,-0.83319056 L630.7107,-0.74932545 L631.5916,-0.67425615 L632.4725,-0.6073905 L633.35333,-0.54825115 L634.23425,-0.4964685 L635.1151,-0.45179206 L635.996,-0.4141112 L636.8769,-0.38348246 L637.75775,-0.36016327 L638.6386,-0.3446547 L639.51953,-0.33775663 L640.4004,-0.34063876 L641.2813,-0.35493267 L642.1622,-0.38285047 L643.043,-0.427337 L643.92395,-0.49226418 L644.8048,-0.58267754 L645.68567,-0.7051043 L646.5666,-0.86793154 L647.44745,-1.0818499 L648.3283,-1.3603251 L649.2092,-1.7199647 L650.0901,-2.1804054 L650.97095,-2.7627382 L651.85187,-3.484154 L652.7327,-4.344119 L653.6136,-5.2960744 L654.4945,-6.2097135 L655.37537,-6.8727517 L656.2563,-7.1100125 L657.13715,-6.9365616 L658.018,-6.514682 L658.8989,-5.996269 L659.7798,-5.464913 L660.66064,-4.956293 L661.54156,-4.483347 L662.4224,-4.0494714 L663.3033,-3.6541705 L664.1842,-3.2953846 L665.06506,-2.970478 L665.9459,-2.6766725 L666.82684,-2.411244 L667.7077,-2.1716099 L668.58856,-1.9553672 L669.4695,-1.7603018 L670.35034,-1.5843881 L671.2312,-1.4257814 L672.1121,-1.2828072 L672.993,-1.1539519 L673.8739,-1.0378537 L674.75476,-0.9333 L675.6356,-0.8392298 L676.51654,-0.75474185 L677.3974,-0.6790946 L678.27826,-0.6116875 L679.1592,-0.55203575 L680.04004,-0.49976224 L680.9209,-0.4546078 L681.8018,-0.41645154 L682.6827,-0.3853376 L683.56354,-0.36150855 L684.44446,-0.34544727 L685.3253,-0.33793128 L686.2062,-0.34010246 L687.0871,-0.35355762 L687.96796,-0.38046494 L688.8489,-0.42371383 L689.72974,-0.48710606 L690.6106,-0.57559824 L691.4915,-0.6956057 L692.3724,-0.8553757 L693.25323,-1.0654273 L694.13416,-1.3390231 L695.015,-1.6925522 L695.8959,-2.14547 L696.7768,-2.7188768 L697.65765,-3.430536 L698.5385,-4.2818294 L699.41943,-5.2305393 L700.3003,-6.152918 L701.18115,-6.840007 L702.0621,-7.108237 L702.94293,-6.9582906 L703.82385,-6.5477614 L704.7047,-6.032541 L705.5856,-5.5005584 L706.4665,-4.989822 L707.34735,-4.5142765 L708.2282,-4.0777335 L709.10913,-3.6798646 L709.99,-3.318676 L710.87085,-2.9915535 L711.7518,-2.6957207 L712.6326,-2.4284463 L713.5135,-2.187137 L714.3944,-1.9693758 L715.27527,-1.7729367 L716.1561,-1.5957813 L717.03705,-1.4360527 L717.9179,-1.2920653 L718.7988,-1.1622947 L719.6797,-1.0453693 L720.56055,-0.9400659 L721.44147,-0.8453133 L722.3223,-0.760199 L723.2032,-0.6839711 L724.0841,-0.61602026 L724.96497,-0.5558544 L725.8458,-0.50308883 L726.72675,-0.45745587 L727.6076,-0.41882437 L728.48846,-0.38722634 L729.3694,-0.3628896 L730.25024,-0.34627917 L731.1311,-0.3381505 L732.012,-0.33961812 L732.8929,-0.35224447 L733.7738,-0.37815464 L734.65466,-0.4201834 L735.5355,-0.4820634 L736.41644,-0.56866395 L737.2973,-0.6862901 L738.17816,-0.8430513 L739.0591,-1.0492971 L739.93994,-1.3180895 L740.8208,-1.6655985 L741.7017,-2.1110926 L742.5826,-2.67566 L743.46344,-3.3775797 L744.34436,-4.220022 L745.2252,-5.164922 L746.1061,-6.095031 L746.987,-6.805241 L747.86786,-7.104459 L748.7487,-6.978824 L749.62964,-6.580387 L750.5105,-6.0687537 L751.3914,-5.536311 L752.2723,-5.023517 L753.15314,-4.545388 L754.03406,-4.106175 L754.9149,-3.7057285 L755.7958,-3.342125 L756.6767,-3.0127738 L757.55756,-2.7149012 L758.4384,-2.4457688 L759.31934,-2.2027726 L760.2002,-1.9834831 L761.08105,-1.7856609 L761.962,-1.607255 L762.84283,-1.4463966 L763.7237,-1.301389 L764.6046,-1.170697 L765.4855,-1.0529385 L766.3664,-0.9468806 L767.24725,-0.8514413 L768.1281,-0.76569724 L769.00903,-0.68888587 L769.8899,-0.62038904 L770.77075,-0.55970716 L771.6517,-0.5064483 L772.53253,-0.4603362 L773.4134,-0.42122963 L774.2943,-0.38914856 L775.1752,-0.36430627 L776.056,-0.34715018 L776.93695,-0.33841392 L777.8178,-0.33918512 L778.69867,-0.35099247 L779.5796,-0.3759185 L780.46045,-0.4167443 L781.3414,-0.47713453 L782.2222,-0.5618724 L783.1031,-0.67715454 L783.984,-0.8309547 L784.86487,-1.0334549 L785.7457,-1.2975185 L786.62665,-1.6390969 L787.5075,-2.0772665 L788.38837,-2.6330833 L789.2693,-3.325288 L790.15015,-4.15872 L791.031,-5.099277 L791.9119,-6.0361276 L792.7928,-6.7684946 L793.67365,-7.098643 L794.55457,-6.9981017 L795.4354,-6.61252 L796.31635,-6.1048903 L797.1972,-5.572163 L798.07806,-5.0573764 L798.959,-4.5766816 L799.83984,-4.1347966 L800.7207,-3.731763 L801.6016,-3.3657322 L802.4825,-3.0341394 L803.36334,-2.7342143 L804.24426,-2.4632123 L805.1251,-2.2185178 L806.006,-1.9976895 L806.8869,-1.7984746 L807.76776,-1.6188097 L808.6486,-1.4568139 L809.52954,-1.3107789 L810.4104,-1.1791589 L811.2913,-1.0605618 L812.1722,-0.9537443 L813.05304,-0.85761404 L813.93396,-0.7712367 L814.8148,-0.693839 L815.6957,-0.6247939 L816.5766,-0.5635943 L817.45746,-0.50984085 L818.3383,-0.4632489 L819.21924,-0.4236673 L820.1001,-0.39110413 L820.98096,-0.3657584 L821.8619,-0.34805995 L822.74274,-0.33872116 L823.6236,-0.33880296 L824.5045,-0.34980088 L825.3854,-0.37375554 L826.2663,-0.4133952 L827.14716,-0.47231767 L828.028,-0.5552214 L828.90894,-0.66819626 L829.7898,-0.81908214 L830.67065,-1.0178962 L831.5516,-1.2773046 L832.43243,-1.6130409 L833.3133,-2.043985 L834.1942,-2.5911417 L835.0751,-3.2736633 L835.95593,-4.0979433 L836.83685,-5.033655 L837.7177,-5.9762855 L838.5986,-6.729812 L839.4795,-7.090757 L840.36035,-7.016062 L841.2412,-6.6441197 L842.12213,-6.1409316 L843.003,-5.608108 L843.8839,-5.0913973 L844.7648,-4.6081557 L845.6456,-4.1635985 L846.52655,-3.7579687 L847.4074,-3.389499 L848.28827,-3.0556517 L849.1692,-2.7536612 L850.05005,-2.480777 L850.9309,-2.2343733 L851.8118,-2.0119956 L852.6927,-1.8113787 L853.57355,-1.6304461 L854.45447,-1.4673048 L855.3353,-1.3202354 L856.2162,-1.187681 L857.0971,-1.0682395 L857.97797,-0.96065736 L858.8589,-0.8638319 L859.73975,-0.7768176 L860.6206,-0.6988307 L861.5015,-0.6292349 L862.3824,-0.56751573 L863.26324,-0.51326644 L864.14417,-0.46619394 L865.025,-0.42613736 L865.9059,-0.39309302 L866.7868,-0.36724573 L867.66766,-0.34900826 L868.5485,-0.33907178 L869.42944,-0.33847108 L870.3103,-0.3486689 L871.19116,-0.37166476 L872.0721,-0.41013485 L872.95294,-0.46761113 L873.83386,-0.5487088 L874.7147,-0.65941244 L875.5956,-0.80743015 L876.4765,-1.0026164 L877.35736,-1.2574425 L878.2382,-1.5874243 L879.11914,-2.011241 L880,-2.5498302" fill="none" stroke="black" stroke-linejoin="round" stroke-width="2"/>
</g>
</g>
<g>
<g>
<line stroke="black" stroke-width="1" x1="0" x2="0" y1="0" y2="10"/>
<line stroke="black" stroke-width="1" x1="176.17617617617617" x2="176.17617617617617" y1="0" y2="10"/>
<line stroke="black" stroke-width="1" x1="352.35235235235234" x2="352.35235235235234" y1="0" y2="10"/>
<line stroke="black" stroke-width="1" x1="528.5285285285286" x2="528.5285285285286" y1="0" y2="10"/>
<line stroke="black" stroke-width="1" x1="704.7047047047047" x2="704.7047047047047" y1="0" y2="10"/>
</g>
<line stroke="black" stroke-width="1" x1="0" x2="880" y1="0" y2="0"/>
<g>
<text font-size="12" text-anchor="middle" x="0" y="20">
0
</text>
<text font-size="12" text-anchor="middle" x="176.17617617617617" y="20">
200
</text>
<text font-size="12" text-anchor="middle" x="352.35235235235234" y="20">
400
</text>
<text font-size="12" text-anchor="middle" x="528.5285285285286" y="20">
600
</text>
<text font-size="12" text-anchor="middle" x="704.7047047047047" y="20">
800
</text>
</g>
<text font-size="12" text-anchor="middle" x="440" y="30">
time
</text>
</g>
<g>
<g>
<line stroke="black" stroke-width="1" x1="0" x2="-10" y1="-0.00000023126711079274764" y2="-0.00000023126711079274764"/>
<line stroke="black" stroke-width="1" x1="0" x2="-10" y1="-29.38635880497011" y2="-29.38635880497011"/>
<line stroke="black" stroke-width="1" x1="0" x2="-10" y1="-58.77271737867311" y2="-58.77271737867311"/>
<line stroke="black" stroke-width="1" x1="0" x2="-10" y1="-88.1590759523761" y2="-88.1590759523761"/>
<line stroke="black" stroke-width="1" x1="0" x2="-10" y1="-117.54543452607912" y2="-117.54543452607912"/>
</g>
<line stroke="black" stroke-width="1" x1="0" x2="0" y1="0" y2="-140"/>
<g>
<text dominant-baseline="middle" font-size="12" text-anchor="end" x="-15" y="-0.00000023126711079274764">
0.0142
</text>
<text dominant-baseline="middle" font-size="12" text-anchor="end" x="-15" y="-29.38635880497011">
10.0142
</text>
<text dominant-baseline="middle" font-size="12" text-anchor="end" x="-15" y="-58.77271737867311">
20.0142
</text>
<text dominant-baseline="middle" font-size="12" text-anchor="end" x="-15" y="-88.1590759523761">
30.0142
</text>
<text dominant-baseline="middle" font-size="12" text-anchor="end" x="-15" y="-117.54543452607912">
40.0142
</text>
</g>
<text font-size="12" text-anchor="middle" transform="rotate(-90 -84 -70)" x="-84" y="-82">
concentration
</text>
</g>
</g>
</svg>